<svg xmlns="http://www.w3.org/2000/svg" width="172" height="345"><path fill="#fefefe" d="M0 344.5V0h172v345H0zm95.54-142.214c1.305-20.19.125-39.075.014-58.538-.03-5.354 1.505-10.673 4.19-14.888l33.236 3.601c8.728-.128 13.438-10.52 11.718-18.447 4.221-5.944 5.471-12.246 3.452-19.097 3.564-5.174 4.564-11.743 2.195-17.94 3.696-6.4 3.627-12.917 1.621-19.993 3.409-6.939 1.936-18.8-6.288-21.43-11.958-3.825-24.705-3.127-37.184-5.114-5.335-9.057-15.877-13.22-26.633-10.086-8.402 2.448-15.168 9.704-18.215 18.607-8.176 23.89-10.55 50.478-6.185 75.611 1.903 10.958 2.503 20.71-1.424 31.589L39.87 190.958c-11.804 32.707-25.865 87.74-14.518 119.576 4.89 13.721 19.181 20.6 32.668 14.355 15.334-7.1 23.532-30.772 27.364-47.62 5.599-24.617 8.484-49.102 10.156-74.983"/><path fill="#050606" d="M95.54 202.286c-1.672 25.881-4.557 50.366-10.156 74.983-3.832 16.848-12.03 40.52-27.364 47.62-13.487 6.245-27.778-.634-32.668-14.355-11.347-31.836 2.714-86.869 14.518-119.576l16.167-44.797c3.927-10.879 3.327-20.631 1.424-31.589-4.366-25.133-1.99-51.722 6.185-75.61 3.047-8.904 9.813-16.16 18.215-18.608 10.756-3.134 21.298 1.029 26.633 10.086 12.479 1.987 25.226 1.29 37.184 5.113 8.224 2.63 9.697 14.492 6.288 21.43 2.006 7.077 2.075 13.593-1.621 19.995 2.369 6.196 1.369 12.765-2.195 17.939 2.019 6.851.769 13.153-3.452 19.097 1.72 7.927-2.99 18.319-11.718 18.447l-33.237-3.601c-2.684 4.215-4.22 9.534-4.188 14.888.11 19.463 1.29 38.348-.015 58.538M60.275 314.782c10.501-10.48 16.024-28.784 19.16-43.52 8.56-40.206 11.435-80.906 8.904-122.107-.54-8.784 1.33-16.481 5.092-24.52-3.684-1.293-6.001-4.378-6.87-8.5-5.066-24.022-2.768-49.418 6.01-72.323 1.785-4.655 4.627-8.238 9.17-11.131-4.36-6.425-13.716-8.622-20.695-4.616-6.151 3.531-9.656 9.655-11.769 16.242-7.956 24.802-8.921 50.837-4.099 76.405 2.127 11.277-.562 22.527-4.458 33.277l-13.026 35.939c-11.119 30.675-30.66 99.65-12.558 123.816 6.37 8.503 17.536 8.627 25.14 1.038m74.086-258.695c-5.708 4.586-6.711 11.676-3.504 18.072-4.504 5.204-5.492 12.473-1.919 18.583-4.71 5.384-3.908 11.162-1.624 17.101.804 3.493-2.619 9.697.745 13.97-1.483-.183-1.7-.384-3.491-.019-1.162-3.595-2.294-8.5 1.04-12.349-4.313-4.738-4.576-12.182-.251-18.7-2.651-6.332-2.489-13.13 2.119-18.861-2.276-6.711-1.648-13.974 4.156-18.97-1.447-5.464-.193-10.73 4.608-14.297l-34.468-3.892c-4.5 3.94-6.406 9.344-8.245 14.996-5.515 16.944-7.142 35.099-5.219 52.873.603 5.567 1.149 11.137 4.1 15.856l39.879 5.481c5.498-1.853 7.823-8.477 4.344-14.065 5.703-4.644 7.442-11.344 3.805-18.07 5.158-4.741 5.947-11.833 2.163-17.707 5.303-5.085 5.435-12.396 1.234-18.343 4.571-4.988 4.44-12.452-1.05-16.477-3.555-1.085-6.133.824-7.535 4.004-1.495 3.391-1.824 6.85-.887 10.814"/><path fill="#89c1e4" d="M60.275 314.782c-7.603 7.589-18.77 7.465-25.14-1.038-18.101-24.166 1.44-93.141 12.559-123.816l13.026-35.939c3.896-10.75 6.585-22 4.458-33.277-4.822-25.568-3.857-51.603 4.1-76.405 2.112-6.587 5.617-12.71 11.768-16.242 6.98-4.006 16.335-1.81 20.695 4.616-4.543 2.893-7.385 6.476-9.17 11.131-8.778 22.905-11.076 48.301-6.01 72.323.869 4.122 3.186 7.207 6.87 8.5-3.763 8.039-5.632 15.736-5.092 24.52 2.531 41.201-.345 81.901-8.903 122.107-3.137 14.736-8.66 33.04-19.16 43.52m2.296-18.352c4.886-3.075 7.95-8.092 10.215-13.533 7.042-16.917 10.75-35.126 7.592-53.004-1.112-6.296-6.218-11.42-12.44-9.13-4.298 1.582-7.566 5.437-9.73 9.526-7.904 14.934-11.407 31.575-10.972 48.65.131 5.158.893 10.09 3.555 14.196 2.585 3.986 7.712 5.856 11.78 3.295"/><path fill="#fafafb" d="M134.361 56.087c-.937-3.964-.608-7.423.887-10.814 1.402-3.18 3.98-5.09 7.535-4.004 5.49 4.025 5.621 11.49 1.05 16.477 4.201 5.947 4.069 13.258-1.234 18.343 3.784 5.874 2.995 12.966-2.163 17.706 3.637 6.727 1.898 13.427-3.805 18.071 3.479 5.588 1.154 12.212-4.344 14.065l-39.88-5.481c-2.95-4.719-3.496-10.289-4.099-15.856-1.923-17.774-.296-35.929 5.219-52.873 1.84-5.651 3.746-11.056 8.245-14.996l34.468 3.892c-4.801 3.566-6.055 8.833-4.608 14.297-5.804 4.996-6.432 12.259-4.156 18.97-4.608 5.73-4.77 12.53-2.119 18.862-4.325 6.517-4.062 13.961.251 18.699-3.334 3.849-2.202 8.754-1.04 12.349 1.791-.365 2.008-.164 3.491.019-3.364-4.273.059-10.477-.745-13.97-2.284-5.939-3.086-11.717 1.624-17.101-3.573-6.11-2.585-13.38 1.919-18.583-3.207-6.396-2.204-13.486 3.504-18.072m-8.395 17.191L90.72 68.423c.175.304.335.78.242 1.336l33.118 5.82c.739-.64 1.495-1.673 1.886-2.301m-15.039 36.203c4.289.495 7.799 2.334 13.029 1.454-2.212-3.305-6.307-2.537-9.937-3.06l-24.501-3.532c-.152 4.291 3.781 2.233 5.284 2.661 5.514 1.569 10.683 1.848 16.125 2.477"/><path fill="#030404" d="M62.571 296.43c-4.068 2.561-9.195.691-11.78-3.295-2.662-4.106-3.424-9.038-3.555-14.196-.435-17.075 3.068-33.716 10.972-48.65 2.164-4.089 5.432-7.944 9.73-9.526 6.222-2.29 11.328 2.834 12.44 9.13 3.157 17.878-.55 36.087-7.592 53.004-2.265 5.441-5.33 10.458-10.215 13.533m9.413-72.881c-10.826-2.932-24.644 35.314-20.678 61.166.548 3.575 1.944 8.128 5.65 9.425 14.178 4.964 30.47-66.409 15.028-70.591"/><path fill="#c2c2c2" d="M110.927 109.481c-5.442-.629-10.611-.908-16.125-2.477-1.503-.428-5.436 1.63-5.284-2.661l24.501 3.532c3.63.523 7.725-.245 9.937 3.06-5.23.88-8.74-.959-13.029-1.454"/><path fill="#c4c4c4" d="M125.966 73.278c-.391.628-1.147 1.661-1.886 2.3L90.962 69.76a2.02 2.02 0 0 0-.243-1.336z"/><path fill="#fff" d="M71.984 223.549c15.442 4.182-.85 75.555-15.027 70.591-3.707-1.297-5.103-5.85-5.651-9.425-3.966-25.852 9.852-64.098 20.678-61.166"/></svg>