<svg xmlns="http://www.w3.org/2000/svg" width="161" height="330"><path fill="#fff" d="M0 329.5V0h161v330H0zm129.926-21.982c8.353-3.938 12.694-11.623 12.078-20.595l-5.152-75.028c2.557-3.431 5.341-6.86 5.76-11.331 1.314-14.046.233-28.469-2.89-42.241-1.205-5.317-4.784-9.061-8.638-11.814-2.526-17.367-9.476-38.49-22.468-48.102l-2.997-24.013c-3.81-19.262-16.826-34.04-36.21-38.681-.717-5.447-4.318-8.66-9.198-10.005L36.034 19.04c-5.134-1.415-9.634.245-12.128 4.947-2.472 4.66-4.54 9.675-5.014 14.897-.548 6.029 2.8 9.41 7.816 11.543l20.242 8.606c4.59 1.951 8.228 1.612 12.646-.545 12.747 2.907 19.423 12.009 20.8 25.19l1.791 17.127c-4.828 3.217-6.79 8.027-8.65 12.771-6.227 15.893-7.059 32.225-5.734 49.459l6.657 86.614 3.223 39.345c.778 9.506 4.678 17.282 14.106 20.461 12.165 4.102 25.989 3.789 38.137-1.938"/><path fill="#050506" d="M129.926 307.518c-12.148 5.727-25.972 6.04-38.137 1.938-9.428-3.179-13.328-10.955-14.106-20.461L74.46 249.65l-6.657-86.614c-1.325-17.234-.493-33.566 5.735-49.459 1.858-4.744 3.821-9.554 8.65-12.771l-1.791-17.127c-1.378-13.181-8.054-22.283-20.801-25.19-4.418 2.157-8.056 2.496-12.646.545l-20.242-8.606c-5.016-2.132-8.364-5.514-7.816-11.543.474-5.222 2.542-10.237 5.014-14.897 2.494-4.702 6.994-6.362 12.128-4.947l24.177 6.667c4.88 1.345 8.481 4.558 9.198 10.005 19.384 4.641 32.4 19.42 36.21 38.681l2.997 24.013c12.992 9.612 19.942 30.735 22.468 48.102 3.854 2.753 7.433 6.497 8.638 11.814 3.123 13.772 4.204 28.195 2.89 42.241-.419 4.471-3.203 7.9-5.76 11.331l5.152 75.028c.616 8.972-3.725 16.657-12.078 20.595M55.983 52.312c-2.48-4.975-.726-12.606 5.04-15.12 1.143-.499 1.54-3.01.031-3.467l-29.32-8.878c-4.004 4.834-6.047 10.792-6.061 17.158L50.197 52.87c1.86.824 3.641.919 5.786-.558m33.276 51.98c4.474 1.786 9.058 1.408 12.868-1.148l-2.541-23.852c-1.153-10.828-5.952-21.057-14.577-28.284-6.702-5.616-14.746-8.223-22.8-11.086-3.003 2.91-4.136 6.073-3.533 10.355l11.344 4.718c17.074 7.103 17.973 30.502 19.24 49.297m41.013 120.836c.981-4.514-.336-8.717-.409-13.823-8.234 2.913-17.34-1.127-19.121-10.251-2.382-12.209-3.29-25.237-2.969-37.845.24-9.429 8.017-15.843 16.458-14.637-1.852-14.907-7.758-34.929-18.71-43.543-5.166 4.189-12.781 5.12-19.013 1.206-2.33 1.552-4.03 4.02-5.312 7.025-6.005 14.072-7.93 28.983-6.74 44.44l5.413 70.348c.237 1.699 3.885 3.319 5.336 3.774 12.387 3.883 25.493 3.865 37.562-1.047 2.312-.941 6.947-3.076 7.505-5.647m5.935-28.75c.66-13.621-.547-39.968-8.019-43.098-4.575-1.917-8.839-1.865-12.531.851-2.273 1.674-4.586 5.966-4.61 9.931-.069 11.623.981 22.943 2.433 34.216.86 6.679 5.781 11.262 11.936 10.663 6.288-.611 10.412-4.739 10.791-12.563m-11.942 105.966c7.35-2.159 11.692-8.567 10.741-16.386l-3.907-55.516c-15.617 9.433-34.38 9.911-50.87 3.248l4.862 58.267c.522 6.254 5.626 10.186 11.21 11.711 9.285 2.549 19.017 2.016 27.964-1.324"/><path fill="#66a1d6" d="M130.272 225.128c-.558 2.571-5.193 4.706-7.505 5.647-12.069 4.912-25.175 4.93-37.562 1.047-1.45-.455-5.1-2.075-5.336-3.774L74.455 157.7c-1.19-15.457.736-30.368 6.74-44.44 1.283-3.005 2.983-5.473 5.313-7.025 6.232 3.914 13.847 2.983 19.013-1.206 10.952 8.614 16.858 28.636 18.71 43.543-8.441-1.206-16.218 5.208-16.458 14.637-.321 12.608.587 25.636 2.969 37.845 1.781 9.124 10.887 13.164 19.121 10.251.073 5.106 1.39 9.309.409 13.823"/><path fill="#67a3d7" d="M124.265 302.344c-8.947 3.34-18.679 3.873-27.964 1.324-5.584-1.525-10.688-5.457-11.21-11.711L80.23 233.69c16.49 6.663 35.253 6.185 50.87-3.248l3.907 55.516c.951 7.819-3.391 14.227-10.741 16.386"/><path fill="#93c7e8" d="M136.207 196.378c-.379 7.824-4.503 11.952-10.791 12.563-6.155.599-11.076-3.984-11.936-10.663-1.452-11.273-2.502-22.593-2.433-34.216.024-3.965 2.337-8.257 4.61-9.931 3.692-2.716 7.956-2.768 12.531-.851 7.472 3.13 8.679 29.477 8.019 43.098"/><path fill="#fff" d="M89.26 104.292c-1.267-18.795-2.166-42.194-19.24-49.297l-11.344-4.718c-.603-4.282.53-7.445 3.532-10.355 8.055 2.863 16.1 5.47 22.8 11.086 8.626 7.227 13.425 17.456 14.578 28.284l2.541 23.852c-3.81 2.556-8.394 2.934-12.868 1.148"/><path fill="#c5e6f8" d="M55.983 52.312c-2.145 1.477-3.927 1.382-5.786.558L25.673 42.005c.014-6.366 2.057-12.324 6.062-17.158l29.32 8.878c1.509.457 1.111 2.968-.031 3.466-5.767 2.515-7.522 10.146-5.04 15.121"/></svg>