<svg xmlns="http://www.w3.org/2000/svg" width="175" height="340"><path fill="#fff" d="M0 339.5V0h175v340H0zm53.843-19.067c6.017-1.805 10.29-6.441 11.594-12.146l27.454-120.154c2.834-12.404 3.78-24.423-.832-36.438l5.842-24.326c23.079-1.202 44.03-13.682 53.842-34.38 6.166-13.006 7.337-27.6 2.24-40.995-6.742-17.718-23.058-28.962-42.1-30.694-28.167-2.561-53.97 15.653-61.892 42.667-6.388 21.779 2.198 43.7 21.456 56.313l-6.119 25.862c-9.276 6.303-14.308 20.457-16.896 31.585L20.956 295.866c-1.512 6.499-.662 13.491 4.195 18.027 7.483 6.988 18.802 9.506 28.692 6.54"/><path fill="#060606" d="M53.843 320.433c-9.89 2.966-21.21.448-28.692-6.54-4.857-4.536-5.707-11.528-4.195-18.027l27.476-118.139c2.588-11.128 7.62-25.282 16.896-31.585l6.119-25.862c-19.258-12.613-27.844-34.534-21.456-56.313 7.923-27.014 33.725-45.228 61.892-42.667 19.042 1.732 35.358 12.976 42.1 30.694 5.097 13.395 3.926 27.99-2.24 40.995-9.812 20.698-30.763 33.178-53.842 34.38l-5.842 24.326c4.612 12.015 3.666 24.034.832 36.438L65.437 308.287c-1.303 5.705-5.577 10.341-11.594 12.146m14.775-211.226c10.523 10.122 27.621 13.644 42.681 9.116 29.616-8.904 47.521-39.912 35.303-65.629-7.118-14.98-21.256-24.705-38.764-24.886-21.216-.219-40.45 12.69-49.087 32.025-7.872 17.622-3.448 36.566 9.867 49.374m3.23 40.539c-.17.741-1.17 1.926-1.854 2.068-4.569.947-11.392 13.938-12.709 19.562l-29.88 127.58c-2.207 9.423 7.786 15.978 19.4 15.865 7.976-.078 11.078-4.79 12.674-11.768l27.826-121.668c1.851-8.096 1.313-16.232-.518-24.207-.498-2.171-2.497-2.695-1.855-5.336l6.857-28.229c-4.973-.616-8.572-1.873-13.073-3.842z"/><path fill="#cbcaca" d="M69.994 151.814c.093.748-.713 1.506-.977 2.009 5.433 3.314 12.069 4.748 17.77 3.355 1.831 7.975 2.37 16.111.518 24.207L59.479 303.053c-1.596 6.978-4.698 11.69-12.674 11.768-11.614.113-21.607-6.442-19.4-15.865l29.88-127.58c1.317-5.624 8.14-18.615 12.709-19.562"/><path fill="#cacaca" d="M146.602 52.694c5.319 27.52-11.635 52.987-38.513 60.545-12.7 3.571-25.584 2.129-36.871-4.501-.925-.543-1.35-.519-2.6.469-13.315-12.808-17.74-31.752-9.867-49.374 8.637-19.335 27.871-32.244 49.087-32.025 17.508.181 31.646 9.906 38.764 24.886m-20.565 39.937c8.132-8.675 12.342-18.936 11.045-30.739-1.241-11.297-9.721-20.374-20.89-23.269-21.966-5.693-44.854 8.266-50.496 30.13-3.956 15.33 3.178 30.52 18.048 35.543 15.153 5.121 31.185.188 42.293-11.665"/><path fill="#8b8b8c" d="M68.618 109.207c1.25-.988 1.675-1.012 2.6-.469 11.287 6.63 24.171 8.072 36.871 4.501 26.878-7.558 43.832-33.026 38.513-60.545 12.218 25.717-5.687 56.725-35.303 65.629-15.06 4.528-32.158 1.006-42.68-9.116"/><path fill="#cccbcb" d="M84.932 151.842c-.275-.06-1.427.318-.875 1.85-4.155.413-9.122-.343-12.21-3.946l6.869-29.975c4.501 1.969 8.1 3.226 13.073 3.842z"/><path fill="#747373" d="M84.932 151.842c-.642 2.641 1.357 3.165 1.855 5.336-5.701 1.393-12.337-.041-17.77-3.355.264-.503 1.07-1.261.977-2.009.683-.142 1.683-1.327 1.853-2.068 3.088 3.603 8.055 4.359 12.21 3.946-.552-1.532.6-1.91.875-1.85"/><path fill="#040505" d="M126.037 92.631c-11.108 11.853-27.14 16.786-42.293 11.665-14.87-5.024-22.004-20.214-18.048-35.544 5.642-21.863 28.53-35.822 50.496-30.129 11.169 2.895 19.649 11.972 20.89 23.27 1.297 11.802-2.913 22.063-11.045 30.738m5.26-14.42c2.896-7.001 3.465-14.168.851-21.356-2.685-7.383-9.098-13.111-17.089-15.046-20.433-4.946-41.623 8.49-46.214 29.08-1.856 8.319-.051 16.261 4.996 22.551 4.58 5.709 11.857 9.223 20.314 9.398 16.117.334 31-9.784 37.142-24.628"/><path fill="#cfebfb" d="M131.297 78.21c-6.142 14.844-21.025 24.962-37.142 24.628-8.457-.175-15.734-3.69-20.314-9.398-5.047-6.29-6.852-14.233-4.996-22.552 4.591-20.59 25.781-34.025 46.214-29.079 7.991 1.935 14.404 7.663 17.089 15.046 2.614 7.188 2.045 14.355-.851 21.355"/></svg>