<svg xmlns="http://www.w3.org/2000/svg" width="176" height="312"><path fill="#fff" d="M0 311.5V0h176v312H0zm57.432-29.159 2.046-9.621c4.186-1.872 4.947-5.662 5.708-9.672l2.986-15.754c4.517-1.285 6.409-4.815 7.246-9.044l11.523-58.173c1.434-7.241-.56-13.566-5.373-18.723l18-85.567c1.682-7.99 8.509-12.97 16.072-14.174l16.312-2.597 13.351-1.584c6.553-.778 10.964-4.647 12.174-11.193 1.116-6.038.532-12.235-1.677-18.002-2.468-6.444-7.753-10.179-14.86-8.924l-14.193 2.504-19.443 3.661C86.314 29.43 69.307 43.68 64.698 64.97l-14.711 67.95-4.164 21.604c-7.801 2.431-11.743 9.166-13.42 17.13L20.57 227.861c-.887 4.211-.546 7.86 3.005 10.934l-3.777 17.186c-.807 3.673.227 6.842 1.989 9.488l-2.092 9.391c-1.582 7.106 1.243 12.606 7.921 14.728 6.4 2.034 13.203 3.625 20.006 3.009 5.846-.53 8.67-4.896 9.81-10.256"/><path fill="#060606" d="M57.432 282.341c-1.14 5.36-3.964 9.726-9.81 10.256-6.803.616-13.606-.975-20.006-3.009-6.678-2.122-9.503-7.622-7.92-14.728l2.09-9.391c-1.761-2.646-2.795-5.815-1.988-9.488l3.777-17.186c-3.551-3.074-3.892-6.723-3.005-10.934l11.833-56.207c1.677-7.964 5.619-14.699 13.42-17.13l4.164-21.604 14.71-67.95c4.61-21.29 21.618-35.54 42.607-39.492l19.443-3.66 14.193-2.506c7.107-1.254 12.392 2.481 14.86 8.925 2.209 5.767 2.793 11.964 1.677 18.002-1.21 6.546-5.621 10.415-12.174 11.193l-13.351 1.584-16.312 2.597c-7.563 1.204-14.39 6.183-16.071 14.174l-18.001 85.567c4.813 5.157 6.807 11.482 5.373 18.723L75.418 238.25c-.837 4.229-2.73 7.759-7.246 9.044l-2.986 15.754c-.76 4.01-1.522 7.8-5.708 9.672zm90.35-232.886c5.569-2.992 4.15-21.201-3.026-23.058-4.25-1.1-11.436.406-15.379 1.865-6.278 7.031-3.674 18.597 3.33 23.92 5.234-.85 10.764-.411 15.075-2.727m-54.21 22.72c2.016-9.462 10.251-15.241 18.625-16.771l17.058-3.116c-.171-1.885-2.201-2.036-2.758-2.597-3.652-5.988-4.768-13.183-1.567-19.831-9.389.846-18.022 1.725-26.992 5.35C84.7 40.558 74.611 52.27 71.507 66.413L58.37 126.26l-6.93 34.209c6.535 4.405 14.601 5.783 22.355 4.459zm-52.83 95.758c-.534 1.75-1.071 3.303-1.507 5.363l-12.37 58.532c2.193 1.625 4.234 3.086 3.985 5.32l-4.571 22.591c1.332 1.421 3.161 2.795 2.61 5.277l-2.418 10.908c-.615 2.771-.723 5.102 2.266 6.47 7.967 3.647 20.115 4.905 20.976 1.351l3.88-16.015c2.859-1.063 4.207-2.676 4.77-5.623l3.656-19.147c.318-1.668 2.941-2.374 5.672-2.669l12.608-62.216c.812-4.01-.723-10.141-3.961-10.417-6.69 2.689-13.32.894-19.32-.634-3.391-.864-6.272-3.079-9.084-5.03-3.276-.67-6.484 3.617-7.192 5.939"/><path fill="#fff" d="m93.571 72.175-19.775 92.753c-7.754 1.324-15.82-.054-22.355-4.459l6.93-34.209 13.136-59.846C74.61 52.271 84.7 40.56 97.938 35.21c8.97-3.624 17.603-4.503 26.992-5.35-3.201 6.65-2.085 13.844 1.567 19.832.557.56 2.587.712 2.758 2.597l-17.058 3.116c-8.374 1.53-16.609 7.309-18.626 16.77"/><path fill="#addbf3" d="M62.019 242.96c-.915-.123-1.163-.814-1.05-2.049-10.354.063-19.45-2.196-28.678-6.277-.047 1.671-.451 2.379-1.44 2.514.248-2.234-1.793-3.695-3.986-5.32l12.37-58.532c.436-2.06.973-3.613 1.507-5.363 3.675 1.081 7.412 5.342 14.73 6.303l1.547-7.212c6 1.528 12.628 3.323 19.319.634 3.239.276 4.773 6.407 3.96 10.417l-12.607 62.216c-2.73.295-5.354 1.001-5.672 2.669"/><path fill="#93c9e8" d="m62.019 242.96-3.656 19.147c-.563 2.947-1.911 4.56-4.77 5.623l-3.88 16.015c-.861 3.554-13.009 2.296-20.976-1.351-2.988-1.368-2.88-3.699-2.266-6.47l2.419-10.908c.55-2.482-1.279-3.856-2.611-5.277l4.571-22.591c.99-.135 1.394-.843 1.441-2.514 9.228 4.081 18.324 6.34 28.678 6.277-.113 1.235.135 1.926 1.05 2.049m-9.383 26c-1.45-4.441-5.806-2.337-8.5-3.019l-12.906-3.268c-.764-1.03-2.194-.085-1.413 1.537 6.88 3.329 14.282 5.036 22.82 4.75"/><path fill="#b5dff5" d="M147.782 49.455c-4.311 2.316-9.841 1.877-15.075 2.727-7.004-5.323-9.608-16.889-3.33-23.92 3.943-1.46 11.129-2.965 15.379-1.865 7.176 1.857 8.595 20.066 3.026 23.058m-5.181-19.716c-5.73 1.768-4.267 10.885-1.664 15.064 1.381 2.218 2.759 2.598 4.732 2.178 3.337-.71 3.517-3.53 3.741-7.193.242-3.96-1.899-11.565-6.809-10.05"/><path fill="#cbebf9" d="m57.019 167.024-1.547 7.212c-7.318-.961-11.055-5.222-14.73-6.303.708-2.322 3.916-6.609 7.192-5.939 2.812 1.951 5.693 4.166 9.085 5.03"/><path fill="#4891c0" d="M52.636 268.96c-8.537.286-15.939-1.421-22.82-4.75-.78-1.622.65-2.567 1.414-1.537l12.906 3.268c2.694.682 7.05-1.422 8.5 3.019"/><path fill="#67a5ca" d="M145.669 46.98c.688-1.63-.657-2.566-1.568-4.063-4.216-6.927.953-13.329-1.5-13.178 4.91-1.516 7.051 6.09 6.809 10.05-.224 3.662-.404 6.481-3.741 7.192"/><path fill="#06090b" d="M142.601 29.739c2.453-.15-2.716 6.251 1.5 13.178.911 1.497 2.256 2.433 1.568 4.064-1.973.42-3.351.04-4.732-2.178-2.603-4.18-4.066-13.296 1.664-15.064"/></svg>