<svg xmlns="http://www.w3.org/2000/svg" width="113" height="329"><path fill="#fff" d="M0 328.5V0h113v329H0zm24.122-30.491c4.945 7.625 13.742 11.451 22.342 11.437 15.579-.026 26.935-12.481 29.244-27.701l7.66-50.503 10.724-85.144c1.366-10.848 1.978-22.604-5.094-29.377.852-4.605-1.246-8.818-4.997-11.419l2.926-24.683c10.948-18.934 9.672-44.787-10.353-54.167-8.555-4.007-17.925-6.333-27.514-7.341-3.525-.37-6.33 2.792-7.278 5.302-3.998 10.598 13.11 9.738 24.798 18.964 6.072 4.794 6.3 12.782 3.706 19.825l-6.79 11.128-4.113 27.933c-4.274 1.644-6.996 5.1-7.689 9.367-9.853 4.106-12.355 20.863-14.316 33.715L24.43 230.246l-5.441 42.72c-1.134 8.898.239 17.497 5.133 25.043"/><path fill="#060506" d="M24.122 298.009c-4.894-7.546-6.267-16.145-5.133-25.043l5.44-42.72 12.95-84.901c1.96-12.852 4.462-29.609 14.316-33.715.692-4.267 3.414-7.723 7.688-9.367l4.112-27.933 6.791-11.128c2.595-7.042 2.366-15.031-3.706-19.825-11.688-9.226-28.796-8.366-24.798-18.964.947-2.51 3.753-5.673 7.278-5.302 9.59 1.008 18.959 3.334 27.515 7.341 20.024 9.38 21.3 35.233 10.352 54.168L84 105.302c3.751 2.601 5.849 6.814 4.997 11.419 7.072 6.773 6.46 18.529 5.094 29.377l-10.725 85.144-7.66 50.503c-2.308 15.22-13.664 27.675-29.243 27.701-8.6.014-17.397-3.812-22.342-11.437M76.51 109.298l3.945-31.082c4.847-8.151 7.556-17.344 6.264-26.916-2.497-18.496-20.758-23.01-37.83-24.923 15.726 7.342 31.073 11.792 29.696 30.686-.248 7.257-3.824 13.456-8.75 18.83l-3.598 31.317c1.153 2.747 7.386 3.617 10.273 2.088m3.805 13.678c3.393-2.58 2.602-9.166.067-12.002-5.17 3.919-13.91 3.753-17.492-2.115-5.072-1.46-6.425 10.206-4.98 11.496 5.393 4.816 15.946 7.532 22.405 2.621m.28 75.428c3.066-21.271 5.978-41.847 7.434-63.315.296-4.367-.11-8.178-3.067-11.788-3.27 7.599-18.454 6.579-26.716 1.592-2.701-1.63-4.07-3.665-3.5-7.07-4.464 2.296-6.067 7.133-7.169 11.978-4.16 18.297-6.48 36.447-9.204 55.327l-12.52 86.776c-1.833 12.715 2.692 26.258 14.304 29.754 14.649 4.41 26.608-7.267 28.448-20.038z"/><path fill="#a886bb" d="M80.596 198.404 68.605 281.62c-1.84 12.771-13.8 24.448-28.448 20.038-11.612-3.496-16.137-17.039-14.303-29.754l12.519-86.776c2.724-18.88 5.044-37.03 9.205-55.327 1.101-4.845 2.704-9.682 7.169-11.978-.571 3.405.798 5.44 3.499 7.07 8.262 4.987 23.446 6.007 26.716-1.592 2.957 3.61 3.363 7.421 3.067 11.788-1.456 21.468-4.368 42.044-7.433 63.315M55.01 134.065c-1.112-2.361-2.947-3.797-5.488-3.6 1.835 2.134 3.26 3.167 5.488 3.6m15.82 83.925c2.577-17.389 2.57-44.563-12.33-43.943-3.937.163-8.687 2.481-11.093 6.828-10.365 18.736-13.582 42.196-8.782 63.075 1.183 5.143 5.363 8.78 9.156 9.589 13.978 2.981 20.71-19.781 23.048-35.549"/><path fill="#cacaca" d="M76.51 109.298c-2.888 1.529-9.12.659-10.273-2.088l3.598-31.317c4.926-5.374 8.502-11.573 8.75-18.83 1.377-18.894-13.97-23.344-29.695-30.686C65.96 28.29 84.221 32.804 86.719 51.3c1.292 9.572-1.417 18.765-6.264 26.917z"/><path fill="#c4c4c5" d="M80.315 122.976c-6.459 4.911-17.012 2.195-22.405-2.621-1.445-1.29-.092-12.956 4.98-11.496 3.582 5.868 12.322 6.034 17.492 2.115 2.535 2.836 3.326 9.422-.067 12.002"/><path fill="#070508" d="M70.83 217.99c-2.337 15.768-9.07 38.53-23.048 35.549-3.793-.809-7.973-4.446-9.156-9.589-4.8-20.879-1.583-44.339 8.782-63.075 2.406-4.347 7.156-6.665 11.093-6.828 14.9-.62 14.907 26.554 12.33 43.943m-16.737 31.127c12.837-9.097 20.884-55.555 9.348-69.487-2.33-2.815-6.61-3.238-9.51-.579-12.75 11.697-17.974 50.997-10.662 66.657 1.965 4.206 6.792 6.267 10.824 3.409"/><path fill="#856994" d="M55.01 134.065c-2.227-.433-3.652-1.466-5.487-3.6 2.541-.197 4.376 1.239 5.488 3.6"/><path fill="#dbc9e1" d="M54.093 249.117c-4.032 2.858-8.86.797-10.824-3.409-7.312-15.66-2.088-54.96 10.663-66.657 2.899-2.659 7.179-2.236 9.51.579 11.535 13.932 3.488 60.39-9.349 69.487"/></svg>