<svg xmlns="http://www.w3.org/2000/svg" viewBox="19.3 18.1 128.3 276.2" width="128" height="276"><path fill="#060505" d="M107.907 273.928c-.018 12.955-14.408 21.84-31.718 18.681-9.161-1.672-17.553-9.213-17.565-19.352l-.133-111.151c-.006-5.146 1.193-9.364 5.61-11.825l-.193-11.305c-8.934-2.523-16.848-7.385-21.093-15.805C39.64 116.875 39.54 110 37.7 103.196c-4.133-15.287-5.987-31.531-13.487-45.388-4.955-9.157-6.394-18.67 3.306-25.658 20.91-15.064 62.792-15.382 89.743-9.573 7.95 1.714 15.244 4.533 21.77 9.282 9.198 6.418 9.964 17.738 3.045 26.27-5.975 14.64-9.551 29.673-12.801 45.019l-1.936 9.141c-2.771 13.08-10.323 23.223-24.064 26.325-.218 3.605-.789 7.652.223 11.446.684 2.568 4.571 4.523 4.566 8zm1.233-162.611c5.567-2.069 12.042-5.502 13.638-11.28 4.422-16.002 6.82-31.838 13.863-46.48 1.398-2.906 3.769-5.15 3.037-8.89-1.495-7.63-12.016-12.04-21.01-14.462-44.849-12.077-102.556 2.645-90.166 20.41 7.675 11.003 11.248 34.91 16.292 51.034 1.47 4.701 8.343 8.036 12.962 9.626 16.635 5.723 35.031 6.121 51.384.042m11.381-1.799c-21.367 13.625-55.604 12.525-74.128-.31.584 10.732 5.817 17.864 14.989 21.48 14.197 5.599 29.97 5.53 44.256-.036 9.196-3.583 14.276-11.46 14.883-21.134m-50.25 45.366c-3.17.577-4.782 3.284-4.78 6.096l.084 110.922c.003 3.33.983 6.816 3.437 9.21 6.889 6.722 18.121 7.311 26.09 2.154 4.739-3.067 6.08-7.885 6.078-13.366l-.038-108.94c-.001-2.779-1.647-4.807-4.283-5.241l-.688-18.576c-8.657 1.447-16.616 1.466-25.464.082z"/><path fill="#f3a1bb" d="M109.14 111.317c-16.353 6.079-34.749 5.681-51.384-.042-4.62-1.59-11.491-4.925-12.962-9.626-5.044-16.124-8.617-40.03-16.292-51.035-12.39-17.764 45.317-32.486 90.166-20.409 8.994 2.422 19.515 6.832 21.01 14.462.732 3.74-1.639 5.984-3.037 8.89-7.043 14.642-9.441 30.478-13.863 46.48-1.596 5.778-8.071 9.211-13.638 11.28m3.509-55.13c7.354-1.804 15.8-5.42 16.318-9.738.728-6.082-10.437-10.353-19.355-12.071-20.772-4.001-42.05-3.064-62.304 2.588-1.775 1.04-3.304 1.133-4.666 2.778-2.942.867-5.533 4.989-3.627 8.268 2.31 3.975 7.246 6.22 11.691 7.391 20.15 5.307 41.16 5.88 61.943.784"/><path fill="#cbcaca" d="m101.142 160.96.038 108.94c.002 5.481-1.339 10.299-6.079 13.366-7.968 5.157-19.2 4.568-26.089-2.154-2.454-2.394-3.434-5.88-3.437-9.21l-.084-110.922c10.854 5.938 24.752 6.164 35.651-.02M120.521 109.518c-.607 9.674-5.687 17.551-14.883 21.134-14.287 5.566-30.059 5.635-44.256.036-9.172-3.616-14.405-10.748-14.99-21.48 18.525 12.835 52.762 13.935 74.129.31"/><path fill="#cbcaca" d="M96.86 155.719c-6.082 7.701-24.677 6.572-26.59-.835l.437-17.659c8.848 1.384 16.807 1.365 25.464-.082z"/><path fill="#727172" d="M70.27 154.884c1.913 7.407 20.508 8.536 26.59.835 2.635.434 4.281 2.462 4.282 5.241-10.899 6.184-24.797 5.958-35.65.02-.003-2.812 1.61-5.519 4.779-6.096"/><path fill="#e580a5" d="M112.649 56.187c-20.784 5.096-41.792 4.523-61.943-.784-4.445-1.17-9.38-3.416-11.69-7.39-1.907-3.28.684-7.402 3.626-8.27 1.361-1.644 2.891-1.736 4.666-2.777 20.253-5.652 41.532-6.589 62.304-2.588 8.918 1.718 20.083 5.99 19.355 12.07-.518 4.319-8.964 7.935-16.318 9.739"/></svg>