<svg xmlns="http://www.w3.org/2000/svg" viewBox="18.4 17.5 186.2 226.7" width="186" height="227"><path fill="#050606" d="M80.775 240.346c-12.72-2.393-33.043-9.662-34.494-20.679L32.895 118.073l-6.885-50.28c-8.701-7.68-8.763-20.253-.4-28.286 6.714-6.449 15.052-10.217 24.07-12.932 35.303-10.631 85.076-10.677 120.493-.899 14.499 4.004 32.885 12.692 33.378 27.022.198 5.775-2.18 10.84-6.599 15.312l-19.533 144.967c-.873 6.483-1.795 11.362-7.054 15.581-20.414 16.379-62.641 16.858-89.59 11.788m89.08-165.74c11.926-3.318 27.819-11.807 26.895-22.072-.936-10.39-18.776-18.022-30.614-20.89-34.425-8.336-70.668-8.588-105.376-1.129-13.676 2.94-34.863 10.82-34.715 22.987.145 11.888 20.635 19.85 33.772 22.896 36.03 8.356 74.062 8.216 110.038-1.793m-.094 144.226 20.096-149.108c-13.43 7.265-27.418 11.506-42.905 13.509-28.985 4.124-57.84 3.32-86.169-2.855-9.873-2.476-18.654-5.949-27.537-10.811l9.3 68.544 10.68 80.059c1.503 6.069 10.71 10.186 16.627 12.044 25.929 8.143 53.907 8.079 80.067 1.007 8.013-2.167 14.487-5.621 19.841-12.389"/><path fill="#98ceea" d="M169.761 218.832c-5.354 6.768-11.828 10.222-19.841 12.389-26.16 7.072-54.138 7.136-80.067-1.007-5.917-1.858-15.124-5.975-16.627-12.044l-10.68-80.059-9.3-68.544c8.883 4.862 17.664 8.335 27.537 10.812 28.33 6.175 57.184 6.978 86.169 2.854 15.487-2.003 29.475-6.244 42.905-13.509z"/><path fill="#fff" d="M169.855 74.605c-35.976 10.01-74.008 10.149-110.038 1.793C46.68 73.352 26.19 65.39 26.045 53.502c-.148-12.166 21.04-20.047 34.715-22.987 34.708-7.46 70.951-7.207 105.376 1.13 11.838 2.867 29.678 10.5 30.614 20.89.924 10.264-14.969 18.752-26.895 22.07"/></svg>