<svg xmlns="http://www.w3.org/2000/svg" viewBox="17.7 19.5 152.5 299.3" width="153" height="299"><path fill="#050506" d="M118.548 294.855c-.583 7.229-4.888 12.899-10.944 15.858-16.518 8.07-36.365 9.156-53.686 3.754-9.764-3.045-14.459-9.946-16.355-19.225-6.568-32.136-11.496-64.009-13.62-97.151-1.137-17.734-.945-34.425 2.598-51.431 1.254-5.572 3.088-10.845 6.22-15.516l3.409-34.916c-21.014-8.999-20.607-37.935-11.813-56.895 6.097-13.146 18.812-20.328 33.88-18.535 19.731 2.347 38.968 8.956 56.044 18.856 7.976 4.624 10.187 14.528 9.942 23.545l39.001 9.601c5.01 1.234 6.551 6.824 5.815 11.632-.551 3.593-3.847 9.27-9.119 8.395l-40.146-6.66c-4.464 11.17-14.092 18.409-27.316 17.425l3.224 25.695c6.182 9.288 9.99 19.469 12.706 30.527 10.787 43.917 13.852 89.288 10.16 135.041M93.233 96.985c1.028-.065 1.952-.483 2.887-.686 2.3-.5 5.215.244 7.909-1.382 5.091-3.072 8.554-8.112 10.193-13.68-5.348-2.403-8.882.408-11.759-1.983-1.652-1.374-2.444-3.159-2.62-6.432-.238-4.457 2.624-11.373 8.173-10.63 3.245.435 6.267 3.139 9.684 2.769-.076-8.962-1.526-16.39-8.437-20.186l-5.659-3.108C88.091 34.674 71.582 28.53 54.216 27.341c-10.357-.708-18.696 5.285-22.969 13.85-8.676 17.395-8.522 43.093 9.159 49.478 16.953 6.121 35.153 7.434 52.827 6.316m65.191-10.81c3.174.625 4.5-2.782 4.057-4.6-.372-1.527-1.737-2.667-3.874-3.171l-52.4-12.363c-3.019 1.568-4.21 9.018-1.565 9.54zm-69.002 49.143-4.728-34.706c-14.983.791-28.058-1.12-41.463-5.114-1.703 14.464-3.236 27.482-4.083 41.549 14.455 8.551 37.698 8.865 50.274-1.729M40.825 277.099c4.982 3.858 9.483 6.014 14.955 7.279 18.252 4.221 43.648 2.813 57.248-10.773.959-31.677-1.397-63.085-7.226-94.474-2.793-15.038-7.03-28.737-13.095-41.993-13.71 12.651-42.306 12.536-56.569 1.796-6.868 19.216-6.283 40.612-5.25 61.144 2.02 25.993 5.46 51.138 9.937 77.021M56.3 307.944c15.127 4.862 31.632 3.744 46.328-2.284 6.122-2.511 9.286-8.204 9.578-14.614l.556-12.233c-19.493 13.812-49.046 14.745-70.001 4.287l2.228 12.907c1.064 6.161 5.42 10.044 11.311 11.937"/><path fill="#65a1d6" d="M40.825 277.099c-4.478-25.883-7.917-51.028-9.936-77.021-1.034-20.532-1.62-41.928 5.25-61.144 14.262 10.74 42.859 10.855 56.568-1.796 6.064 13.256 10.302 26.955 13.095 41.993 5.829 31.389 8.185 62.797 7.226 94.474-13.6 13.586-38.996 14.994-57.248 10.773-5.472-1.265-9.973-3.421-14.955-7.279m53.692-89.108c-2.6-4.08-6.945-6.281-10.933-5.958-13.038 1.056-18.165 29.976-5.529 50.722 2.387 3.917 6.427 6.205 10.47 6.179 14.585-.096 17.529-32.841 5.992-50.943"/><path fill="#cbcaca" d="M103.604 41.667c-16.59 4.315-23.975 28.84-18.306 45.045 1.568 4.483 4.039 8.292 7.935 10.273-17.674 1.118-35.874-.195-52.827-6.316-17.68-6.385-17.835-32.083-9.159-49.478 4.273-8.565 12.612-14.558 22.97-13.85 17.365 1.189 33.874 7.333 49.387 14.326"/><path fill="#cacaca" d="M89.422 135.318c-12.576 10.594-35.82 10.28-50.273 1.729.846-14.067 2.379-27.085 4.082-41.549 13.405 3.993 26.48 5.905 41.463 5.114z"/><path fill="#898e94" d="M56.301 307.944c-5.891-1.893-10.247-5.776-11.31-11.937L42.762 283.1c20.955 10.458 50.508 9.525 70.001-4.287l-.556 12.233c-.292 6.41-3.456 12.103-9.578 14.614-14.696 6.028-31.201 7.146-46.328 2.284"/><path fill="#c9c9c9" d="M109.263 44.775c6.911 3.795 8.361 11.224 8.437 20.186-3.417.37-6.439-2.334-9.684-2.768-5.549-.744-8.41 6.172-8.172 10.629.175 3.273.967 5.058 2.619 6.432 2.877 2.391 6.411-.42 11.759 1.984-1.639 5.567-5.102 10.608-10.193 13.68-2.694 1.625-5.609.881-7.91 1.38l-6.24-7.333c-5.785-13.092-2.814-29.005 6.613-39.27 3.605-3.925 7.908-5.437 12.771-4.92"/><path fill="#c8c8c8" d="M158.424 86.175 104.642 75.58c-2.645-.52-1.454-7.971 1.565-9.539l52.4 12.363c2.137.504 3.502 1.644 3.874 3.171.443 1.817-.883 5.225-4.057 4.6m-34.615-8.152c.508-2.758-1.487-3.36-2.86-2.83.821 1.259 1.711 2.152 2.86 2.83m22.435 1.892 4.393-1.261c-1.29-3.006-7.558.945-7.588.99-.419.65.105 2.038.67 2.339.66.351 3.343.78 2.525-2.068m-10.302-.444c-1.739-1.368-3.044 0-2.878.23 1.103.967 2.654.348 2.878-.23m21.446 5.879c1.83-1.62 1.461-2.607 1.739-3.823.262-1.14-.968-2.08-1.761-1.322-.817 1.54-.495 3.83.022 5.145"/><path fill="#838383" d="m103.604 41.667 5.659 3.108c-4.863-.517-9.166.995-12.771 4.92-9.427 10.265-12.398 26.178-6.613 39.27l6.24 7.334c-.934.203-1.858.621-2.886.686-3.896-1.981-6.367-5.79-7.935-10.273-5.67-16.206 1.716-40.73 18.306-45.045"/><path fill="#030405" d="M94.517 187.991c11.537 18.102 8.593 50.847-5.993 50.943-4.042.026-8.082-2.262-10.469-6.179-12.636-20.746-7.51-49.666 5.53-50.722 3.987-.323 8.332 1.878 10.932 5.958m-10.587-2.569c-16.144 1.988-10.29 54.777 6.432 49.735 13.333-4.019 7.929-51.504-6.432-49.735"/><path fill="#a9a8a8" d="M146.244 79.915c.818 2.848-1.865 2.42-2.525 2.068-.565-.301-1.089-1.69-.67-2.338.03-.046 6.298-3.997 7.588-.991z"/><path fill="#8c8c8c" d="M157.388 85.35c-.517-1.316-.839-3.605-.022-5.145.793-.758 2.023.181 1.761 1.322-.278 1.216.091 2.203-1.739 3.823"/><path fill="#a9a8a8" d="M123.809 78.023c-1.149-.678-2.039-1.571-2.86-2.83 1.373-.53 3.368.072 2.86 2.83"/><path fill="#a7a7a8" d="M135.942 79.472c-.224.577-1.775 1.196-2.878.229-.166-.23 1.139-1.598 2.878-.23"/><path fill="#d0d0d0" d="M83.93 185.422c14.36-1.769 19.765 45.716 6.432 49.735-16.722 5.042-22.575-47.747-6.432-49.735"/></svg>