<svg xmlns="http://www.w3.org/2000/svg" viewBox="19.3 17.9 163.4 270.0" width="163" height="270"><path fill="#050605" d="M87.253 152.298c-4.913 24.935-12.994 48.286-25.317 70.623L48.08 248.038c-7.718 13.991 2.742 32.26-5.093 37.466-8.145 5.413-18.375-5.274-21.398-19.12-2.01-9.202-1.17-17.861-.53-27.487 4.832-72.676 37.173-112.993 37.59-125.895.344-10.656-1.36-20.424 1.26-31.104C66.536 54.87 84.31 11.608 114.934 20c6.539 1.792 11.197 6.185 11.724 13.028l35.101 12.11c5.327-3.722 13.341-3.352 17.14 1.93 5.807 8.074 2.14 19.403-6.3 23.365-5.893 16.686-11.162 32.511-15.761 49.217 5.576 7.819 3.443 18.953-3.71 24.228-5.022 3.704-10.762 1.765-16.141 1.114l-33.997-4.118a14.24 14.24 0 0 0-15.737 11.423m61.373-31.079 6.384-19.248 12.143-37.738c3.647.567 6.273-2.365 7.353-5.844 1.161-3.743.381-7.4-3.422-8.956-2.819-1.154-6.795.383-8.176 3.526l-36.894-13.186c-1.222-.434-3.132-1.628-4.298-.711-.78.614-1.617 2.24-1.445 4.1l40.859 13.842c-.97 2.209 1.399 4.395 1.997 6.37-6.921 18.426-13.178 37.648-18.092 56.758-2.195.564-4.37.405-7.061-.06l-28.093-4.857c-11.746-2.031-19.153-11.058-19.329-23.38-.208-14.617 5.12-28.828 13.918-40.23 4.879-6.324 12.982-4.993 14.952-16.559.932-5.47-3.85-8.183-8.571-8.844-23.77-3.331-38.224 34.155-43.784 55.923-2.581 10.108-1.33 19.551-1.159 29.968.12 7.22-3.776 14.286-7.16 20.851-20.164 39.118-32.121 81.455-31.057 125.845.188 7.864 4.128 18.313 9.899 21.054.79.376 1.744-.115 2.123-1.025-3.689-15.193-1.737-30.644 7.409-43.808 14.499-25.389 27.028-51.693 32.163-80.519 2.49-13.974 12.338-22.539 26.913-20.552l40.093 5.464c4.156.566 6.407-5.956 6.713-8.817.4-3.739-.646-7.356-4.378-9.367m-8.915-8.018c4.785-16.675 9.704-32.199 15.382-48.103.95-2.662-1.201-3.624-3.068-4.234l-30.873-10.09c-9.553-3.123-22.31 19.297-23.645 38.16-.675 9.549 5.059 17.393 14.211 19.505 9.314 2.149 18.579 3.393 27.993 4.762"/><path fill="#8ecda7" d="M145.035 120.132c.871-.224 2.617.562 3.591 1.087 3.732 2.011 4.778 5.628 4.378 9.367-.306 2.861-2.557 9.383-6.713 8.817l-40.093-5.464c-14.575-1.987-24.423 6.578-26.913 20.552-5.135 28.826-17.664 55.13-32.163 80.519-9.146 13.164-11.098 28.615-7.41 43.808-.378.91-1.332 1.401-2.122 1.025-5.77-2.741-9.71-13.19-9.9-21.054-1.064-44.39 10.894-86.727 31.059-125.845 3.383-6.565 7.279-13.631 7.16-20.851-.173-10.417-1.423-19.86 1.158-29.968 5.56-21.768 20.015-59.254 43.784-55.923 4.721.661 9.503 3.374 8.571 8.844-1.97 11.566-10.073 10.235-14.952 16.559-8.797 11.402-14.126 25.613-13.918 40.23.176 12.322 7.583 21.349 19.329 23.38l28.093 4.857c2.691.465 4.866.624 7.061.06"/><path fill="#fff" d="M139.711 113.201c-9.414-1.369-18.679-2.613-27.993-4.762-9.152-2.112-14.886-9.956-14.21-19.505 1.333-18.863 14.091-41.283 23.644-38.16l30.873 10.09c1.867.61 4.018 1.572 3.068 4.234-5.678 15.904-10.597 31.428-15.382 48.103"/><path fill="#fefefe" d="m167.153 64.233-12.143 37.738-6.384 19.248c-.974-.525-2.72-1.311-3.591-1.087 4.914-19.11 11.171-38.332 18.092-56.757 1.453-.039 2.787.666 4.026.858"/><path fill="#fff" d="m162.908 52.959-1.778 4.045-40.859-13.841c-.172-1.86.665-3.487 1.445-4.101 1.166-.917 3.076.277 4.298.71z"/><path fill="#86c8a3" d="M167.153 64.233c-1.239-.192-2.573-.897-4.026-.858-.598-1.976-2.967-4.162-1.997-6.371l1.778-4.045c1.381-3.143 5.357-4.68 8.176-3.526 3.803 1.557 4.583 5.213 3.422 8.956-1.08 3.48-3.706 6.41-7.353 5.844"/></svg>