<svg xmlns="http://www.w3.org/2000/svg" viewBox="0.0 0.0 156.0 321.0" width="156" height="321"><path fill="#fffeff" d="M92.848 280.224c-1.667 5.76-1.557 10.54.912 14.985 6.007 7.546 16.796 6.691 23.039-.571 5.751-6.691 9.047-14.788 11.665-23.197 15.444-49.617 5.498-106.663-11.479-154.396-.07-2.144.575-6.925 1.514-8.671 8.013-14.893 13.085-32.515 12.013-49.489-1.002-15.883-8.808-30.52-23.394-36.668-6.743-2.842-13.561-1.504-17.475 4.921-1.178-4.374-4.534-7.137-9.11-7.76-8.772-1.193-17.002 3.447-23.415 9.84-18.308 18.256-14.765 52.03-5.1 75.792l-.21 10.963c-22.129 44.768-39.73 98.809-30.232 150.307 1.654 8.967 4.266 17.868 10.328 24.736 4.124 4.673 11.014 5.309 16.333 2.723 4.46-2.169 7.246-7.897 6.533-13.812-2.378-19.733-3.063-39.116.697-58.595 4.817-24.954 13.636-48.189 27.228-69.635 19.107 40.336 22.668 85.265 10.153 128.527"/><path fill="#060606" d="M92.848 280.224c12.515-43.262 8.954-88.191-10.153-128.527-13.592 21.446-22.411 44.681-27.228 69.635-3.76 19.479-3.075 38.862-.697 58.595.713 5.915-2.072 11.643-6.533 13.812-5.32 2.586-12.209 1.95-16.333-2.723-6.062-6.868-8.674-15.769-10.328-24.736-9.499-51.498 8.103-105.539 30.231-150.307l.21-10.963c-9.664-23.763-13.207-57.536 5.101-75.791 6.413-6.394 14.643-11.034 23.415-9.84 4.576.622 7.932 3.385 9.11 7.76 3.914-6.426 10.732-7.764 17.475-4.922 14.586 6.149 22.392 20.785 23.394 36.668 1.072 16.974-4 34.596-12.013 49.489-.939 1.746-1.584 6.527-1.514 8.671 16.977 47.733 26.923 104.779 11.479 154.396-2.618 8.409-5.914 16.506-11.665 23.197-6.243 7.262-17.032 8.117-23.039.571-2.47-4.445-2.579-9.225-.912-14.985M78.207 80.918c-10.081-14.66-7.99-31.506 2.245-44.654 2.604-2.6 4.128-7.909.158-9.715-3.864-1.759-9.075.064-12.638 2.48-10.219 6.928-15.41 18.202-16.701 30.265-.995 13.764.826 27.283 6.373 40.095 3.79-9.825 10.737-15.611 20.563-18.471m34.144 23.562c15.071-25.386 17.859-65.42-9.219-76.448-2.259-.92-4.445-.509-6.008.542-4.784 3.213 3.511 11.815 5.489 21.498 2.422 11.86-.054 23.718-8.777 32.485 10.074 3.694 14.912 11.827 18.515 21.923M89.844 76.467c7.934-9.174 8.409-21.237 3.364-31.518l-4.154-8.466c-10.316 12.67-14.324 26.41-5.156 39.836 1.718-.054 4.548.86 5.946.148m7.347 60.201c12.584-8.79 15.065-25.525 8.678-38.371-4.098-8.243-11.401-13.355-19.568-14.17-8.85-.881-16.776 2.78-22.079 10.216-8.04 11.274-7.678 27.193 1.541 37.81 7.818 9.003 21.201 11.659 31.428 4.515M47.837 280.403c-2.85-20.4-2.927-39.522.412-59.367 5.244-27.674 15.115-53.482 31-77.35-11.11-2.249-19.447-10.038-22.955-20.986-11.252 23.336-19.831 46.366-25.602 71.163-4.947 23.697-6.72 47.228-2.373 70.798 2.365 12.825 8.74 27.92 16.684 22.946 1.805-1.13 3.338-3.593 2.834-7.204m74.783-13.756c6.637-23.297 7.731-47.181 5.435-71.672-2.62-24.783-8.15-48.152-16.677-71.615-4.701 11.599-12.618 19.353-24.549 20.643 14.909 29.629 21.769 61.851 20.292 94.9-1.103 16.074-4.029 30.742-8.186 46.064-1.008 3.715.531 7.388 3.952 8.573 8.581 2.973 16.471-15.444 19.733-26.893"/><path fill="#cbcaca" d="M122.62 266.647c-3.262 11.449-11.152 29.866-19.733 26.893-3.42-1.185-4.96-4.858-3.952-8.573 4.157-15.322 7.083-29.99 8.186-46.064 1.477-33.049-5.383-65.271-20.292-94.9 11.93-1.29 19.848-9.044 24.549-20.643 8.527 23.463 14.057 46.832 16.677 71.615 2.296 24.491 1.202 48.375-5.435 71.672"/><path fill="#cacaca" d="M47.837 280.403c.504 3.611-1.03 6.074-2.834 7.204-7.945 4.974-14.319-10.121-16.684-22.946-4.347-23.57-2.574-47.101 2.373-70.798 5.77-24.797 14.35-47.827 25.602-71.163 3.508 10.948 11.844 18.737 22.955 20.986-15.885 23.868-25.756 49.676-31 77.35-3.339 19.845-3.262 38.967-.412 59.367"/><path fill="#cccbcb" d="M97.19 136.668c-10.225 7.144-23.609 4.488-31.427-4.515-9.22-10.617-9.582-26.536-1.541-37.81 5.303-7.436 13.228-11.097 22.08-10.215 8.165.814 15.469 5.926 19.567 14.169 6.387 12.846 3.906 29.581-8.678 38.371M84.51 123.801c6.258-.464 9.798-5.648 10.14-10.337.385-5.26-2.342-10.612-7.756-12.193-7.297-2.132-13.799 3.012-14.457 10.368-.528 5.899 4.3 12.739 12.073 12.162"/><path fill="#cacaca" d="M112.351 104.48c-3.603-10.096-8.441-18.23-18.515-21.923 8.723-8.767 11.199-20.626 8.777-32.485-1.978-9.683-10.273-18.285-5.49-21.498 1.564-1.05 3.75-1.463 6.009-.542 27.078 11.027 24.29 51.062 9.219 76.448"/><path fill="#cbcbcb" d="M78.207 80.918c-9.826 2.86-16.773 8.646-20.563 18.471-5.547-12.812-7.368-26.33-6.373-40.095 1.292-12.063 6.482-23.337 16.701-30.266 3.563-2.415 8.774-4.238 12.638-2.479 3.97 1.806 2.446 7.115-.158 9.715-10.236 13.148-12.326 29.995-2.245 44.654"/><path fill="#040404" d="M84.509 123.801c-7.772.577-12.6-6.263-12.073-12.162.658-7.356 7.16-12.5 14.457-10.368 5.414 1.581 8.141 6.933 7.757 12.193-.343 4.689-3.883 9.873-10.141 10.337m-.461-3.601c4.573-.213 7.617-4.784 7.006-8.674-.592-3.769-3.544-7.396-8.09-7.051-4.633.35-7.292 4.717-6.798 8.976.39 3.362 3.461 6.956 7.882 6.749"/><path fill="#9f9f9f" d="M84.048 120.2c-4.42.207-7.493-3.387-7.882-6.749-.494-4.259 2.165-8.626 6.798-8.976 4.546-.345 7.498 3.282 8.09 7.051.61 3.89-2.433 8.461-7.006 8.674"/></svg>