<svg xmlns="http://www.w3.org/2000/svg" viewBox="18.7 18.3 111.5 281.9" width="111" height="282"><path fill="#060506" d="M61.262 297.278c-16.372 5.87-37.378-1.578-40.864-18.632-1.512-7.394-.418-14.875.55-22.713l9.339-75.663c1.432-11.601 3.857-22.381 9.274-32.642 2.824-5.348 6.233-6.055 6.074-14.925-11.89-7.109-19.085-18.706-21.206-32.145l-.764-22.249-1.698-31.278c-.48-8.854 2.972-16.148 10.892-20.305 17.851-9.368 40.791-8.595 60.875-4.5 6.331 1.29 11.466 3.944 17.323 6.602 14.155 6.423 20.859 13.925 17.003 29.181l-9.533 37.71c-3.008 18.905-13.67 35.129-32.455 41.6.34 2.323-.545 5.375-.638 7.348 3.745 6.901 6.361 22.372 5.646 29.5a1735 1735 0 0 1-13.62 104.071c-1.457 9.019-7.907 16.067-16.198 19.04M82.098 65.685c5.183-1.757 14.153 3.301 24.628-3.878 6.691.476 13.318-3.582 15.38-9.833 1.393-4.224-1.632-8.76-4.902-11.22C85.68 17.03 26.692 25.092 29.326 44.223c.902 6.547 11.843 10.86 11.593 10.64 5.098 4.493 10.397 6.002 17.245 6.849 1.208.15 15.906 6.695 23.934 3.973m26.208.32-2.258.663c-4.129 1.211-8.524 2.798-12.773 2.51l-5.35-.361c-8.896 1.01-17.991.454-26.61-2.293-2.916-.929-5.02-1.824-8.461-1.912-3.173-.081-7.298-2.069-10.546-3.968-1.084-.633-1.266-2.506-3.328-2.823-3.774-.58-6.172-3.778-9.88-6.842l2.521 35.055c.9 12.514 37.176 26.635 66.623 17.291 5.599-1.777 12.423-5.316 13.906-10.918l8.367-31.615c-4.749 2.346-8.137 4.019-12.211 5.214m1.6 35.763c-4.122 1.911-6.371 3.511-9.667 4.536-22.703 7.308-51.092 3.57-69.341-12.67.448 12.208 5.262 23.565 14.84 30.709 12.721 9.488 30.805 10.762 44.892 3.303 10.207-5.404 16.38-15.59 19.276-25.878m-28.623 50.545c-.462-1.765-1.164-3.33-3.146-4.242l1.342-12.83c-8.984 1.063-17.56.735-26.816-2.793l-1.639 11.726-4.314 4.604c-3.983 7.772-7.186 15.758-8.301 24.616L26.64 266.892c-.75 5.962-.235 11.59 3.169 16.264 4.988 6.848 12.772 9.611 21.262 9.301 9.206-.337 18.323-5.685 19.66-15.73l13.254-99.591c1.173-8.816-.655-17.007-2.702-24.823"/><path fill="#a986bb" d="M78.137 148.071c-7.735 5.3-19.045 4.667-26.6-1.734-.89-.754-2.267 1.25-2.317 2.14-.19 3.324 18.621 10.667 32.063 3.836 2.047 7.816 3.875 16.007 2.702 24.823l-13.254 99.591c-1.337 10.045-10.454 15.393-19.66 15.73-8.49.31-16.274-2.453-21.262-9.301-3.404-4.674-3.92-10.302-3.169-16.264l11.769-93.498c1.115-8.858 4.318-16.844 8.301-24.616l4.314-4.604 1.639-11.726c9.257 3.528 17.832 3.856 26.816 2.793z"/><path fill="#fcfcfc" d="M82.098 65.685c-8.028 2.722-22.726-3.824-23.934-3.973-6.848-.847-12.147-2.356-17.245-6.85.25.22-10.691-4.092-11.593-10.64-2.634-19.13 56.354-27.192 87.878-3.468 3.27 2.46 6.295 6.996 4.902 11.22-2.062 6.252-8.689 10.31-15.38 9.833-10.475 7.179-19.445 2.12-24.628 3.878"/><path fill="#fbfbfb" d="M38.98 57.82c-.275 7.825-.282 15.637.553 23.55.09.85 1.781.877 1.898-.001.916-6.89.449-13.698.877-20.725 3.248 1.9 7.373 3.887 10.546 3.968.135 1.401 1.08 1.526 2.406 1.325l-.14 30.144c2.246-.854 1.864-2.888 1.964-4.97l1.204-25.142c.811 1.026 1.785 1.346 3.027.555 8.619 2.747 17.714 3.303 26.61 2.293l-3.75 27.23c-.218 1.544 1.64 1.977 2.329 1.401 1.237-1.033 3.614-18.88 3.814-27.61 1.928.684 2.686-.135 2.957-.66 4.25.288 8.644-1.299 12.773-2.51-.95 5.635-1.966 11.174-2.303 16.79.121.51.731.891 1.044.842 2.212-6.048 5.316-14.717 3.517-18.294 4.074-1.195 7.462-2.868 12.211-5.214l-8.367 31.615c-1.483 5.602-8.307 9.141-13.906 10.918-29.447 9.344-65.723-4.777-66.623-17.29l-2.52-35.056c3.707 3.064 6.105 6.262 9.88 6.842m33.776 11.4L70.492 85.79c-.163 1.193 1.225 1.697 1.74.853.759-1.242 2.892-13.673.524-17.421"/><path fill="#ab89bc" d="M109.906 101.768c-2.896 10.288-9.069 20.474-19.276 25.878-14.087 7.459-32.17 6.185-44.892-3.303-9.578-7.144-14.392-18.501-14.84-30.71 18.249 16.241 46.638 19.979 69.341 12.671 3.296-1.025 5.545-2.625 9.667-4.536"/><path fill="#66536f" d="M78.137 148.071c1.982.912 2.684 2.477 3.146 4.242-13.442 6.831-32.252-.512-32.063-3.836.05-.89 1.428-2.894 2.318-2.14 7.554 6.401 18.864 7.034 26.599 1.734"/><path fill="#d6d5d5" d="M93.275 69.179c-.27.524-1.03 1.343-2.957.66-.2 8.728-2.577 26.576-3.814 27.609-.69.576-2.547.143-2.33-1.401l3.751-27.23z"/><path fill="#cecece" d="M42.308 60.644c-.428 7.027.039 13.834-.877 20.725-.117.878-1.808.852-1.898 0-.835-7.912-.828-15.724-.553-23.548 2.062.317 2.244 2.19 3.328 2.823"/><path fill="#c3c3c2" d="M108.306 66.006c1.799 3.577-1.305 12.246-3.517 18.294-.313.049-.923-.331-1.044-.842.337-5.616 1.353-11.155 2.303-16.79z"/><path fill="#d5d5d5" d="M61.315 66.524c-1.242.791-2.216.47-3.027-.555l-1.204 25.142c-.1 2.082.282 4.116-1.965 4.97l.14-30.144c-1.325.2-2.27.076-2.405-1.325 3.441.088 5.545.983 8.46 1.912"/><path fill="#b2b2b2" d="M72.756 69.22c2.368 3.75.235 16.18-.524 17.422-.515.844-1.903.34-1.74-.853z"/></svg>