<svg xmlns="http://www.w3.org/2000/svg" viewBox="17.8 18.3 145.9 295.9" width="146" height="296"><path fill="#050606" d="M151.569 305.64c-32.363 9.803-85.788 10.082-118.943.902-5.856-1.621-12.643-4.852-13.307-11.558-1.192-12.045-.712-24.44 4.607-35.628 4.65-42.345 6.243-84.9 8.503-127.973.844-16.088 1.325-31.332 3.55-47.413.968-6.989 10.426-12.139 18.725-14.624l5.55-33.066c1.182-7.043 5.083-11.777 12.093-14.062 12.237-3.99 25.687-3.963 37.824.39 7.498 2.69 10.258 8.804 11.433 15.993l5.042 30.834c6.306 2.615 15.161 5.227 17.375 12.433 3.019 9.824 2.67 20.562 3.267 30.848l4.22 72.644c1.468 25.29 2.788 50.007 5.976 74.468 5.211 10.566 5.515 22.333 4.961 33.509-.303 6.103-5.07 10.544-10.876 12.303M67.147 77.247 71.202 79c3.158 1.365 6.415 2.329 9.907 2.117.345-.02.987-.235 1.639-.044 5.12 1.503 10.565 1.463 15.341.143.884-.245 1.914-.021 2.783-.114 3.014-.32 6.225-.673 8.967-2.08 2.382-1.221 5.155-1.765 7.245-3.65 1.235-1.114 3.185-2.25 2.877-4.298-1.8-11.972-3.724-23.384-6.246-34.906-.855-3.91-2.442-6.117-6.504-7.586-14.586-5.273-37.168-2.532-39.065 5.364-3.055 12.722-5.476 25.085-6.48 38.088-.214 2.78 3.815 4.494 5.481 5.214m-24.541 10.39-1.157 11.32-4.139 73.146c-1.695 29.958-3.322 58.85-6.557 89.248 7.402 3.189 14.89 4.862 22.963 6.073 29.674 4.452 67.473 4.138 96.654-5.873l-7.648-108.474-3.301-54.111c-.225-3.684-.19-7.459-1.137-11.128-.327-1.266.395-3.24-1.295-5.001-3.821-3.98-9.002-5.694-14.609-7.574-11.73 11.165-30.867 11.829-47.735 8.309-6.381-1.332-11.563-4.642-16.02-8.063-8.486 2.55-15.257 4.666-16.02 12.127m106.652 211.732c11.122-2.541 6.466-21.077 3.271-34.989-27.06 9.439-60.758 10.88-88.486 7.818-12.327-1.361-23.743-3.119-35.126-8.031-2.964 9.288-3.947 18.795-3.035 28.929.323 3.598 4.246 5.711 7.374 6.623 23.035 6.503 50.23 7.402 74.756 6.013 14.25-.807 27.826-2.153 41.246-6.363"/><path fill="#86cba3" d="m139.421 98.966 3.301 54.111 7.648 108.474c-29.181 10.011-66.98 10.325-96.655 5.873-8.073-1.211-15.56-2.884-22.962-6.073 3.235-30.398 4.862-59.29 6.557-89.248l4.139-73.146c2.673-.23 4.347 1.936 6.583 2.964 25.207 11.591 66.811 10.394 91.389-2.955m-41.39 140.009c25.374-18.111 26.641-83.648-.978-101.898-9.561-6.318-20.784-4.748-29.186 3.073-21.225 19.758-21.447 73.627.13 95.869 8.057 8.304 20.533 9.737 30.033 2.956"/><path fill="#fff" d="M149.258 299.369c-13.42 4.21-26.996 5.556-41.246 6.363-24.526 1.389-51.72.49-74.756-6.013-3.128-.912-7.05-3.025-7.374-6.623-.912-10.134.07-19.641 3.035-28.929 11.383 4.912 22.799 6.67 35.126 8.031 27.728 3.062 61.426 1.621 88.486-7.818 3.195 13.912 7.851 32.448-3.271 34.989"/><path fill="#fcfcfc" d="M117.084 75.37c-.554-.713-1.211 1.043-1.563.744s-1.721-1.496-1.81-1.978l-3.778-20.507c.464-2.132-2.527-2.032-1.733.076l2.789 23.385c.065.543-1.293 1.413-1.15 1.932-2.742 1.406-5.953 1.76-8.967 2.08-.3-8.806-.93-17.787-2.128-27.028-.663-1.493-2.413-.88-1.849.774l1.194 26.367c-4.776 1.32-10.22 1.36-15.341-.143 2.215-1.66 1.568-3.544 1.485-6.008-.242-7.163 1.453-13.528-.125-20.89-3.509 8.699-1.01 18.71-2.999 26.942-3.492.212-6.749-.752-9.907-2.117-.09-.584-.602-1.013-.814-1.483l2.834-25.171c1.217-1.909 1.563-4.914-.323-6.731l-5.752 31.633c-1.666-.72-5.695-2.435-5.48-5.214 1.003-13.003 3.424-25.366 6.48-38.088 1.895-7.896 24.478-10.637 39.064-5.364 4.062 1.47 5.649 3.677 6.504 7.586 2.522 11.522 4.446 22.934 6.246 34.906.308 2.048-1.642 3.184-2.877 4.298m-34.54-32.924c16.186 2.25 32.84-2.64 29.748-6.784-.263-.354-.463-.497-1.05-.209-.407.2-.88.624-1.385 1.712-13.401 5.387-28.104 5.136-41.56-1.371 2.44 6.69 9.112 5.938 14.246 6.652"/><path fill="#fdfdfd" d="M138.284 87.838c-.593.001-1.452-.206-2.006.224-17.982 13.934-71.328 15.479-91.746.196-.02-.188-.985 1.206-1.926-.622.762-7.461 7.533-9.576 16.02-12.127 4.456 3.421 9.638 6.731 16.02 8.063 16.867 3.52 36.004 2.856 47.734-8.31 5.607 1.88 10.788 3.595 14.609 7.575 1.69 1.76.968 3.735 1.295 5.001"/><path fill="#cfcfcf" d="M138.284 87.838c.947 3.669.912 7.444 1.137 11.128-24.578 13.349-66.182 14.546-91.39 2.955-2.235-1.028-3.91-3.193-6.582-2.964l1.157-11.32c.941 1.827 1.907.433 1.926.62 20.418 15.284 73.764 13.739 91.746-.195.554-.43 1.413-.223 2.006-.224"/><path fill="#d4d4d4" d="M100.872 81.101c-.869.093-1.899-.13-2.783.114l-1.194-26.367c-.564-1.653 1.186-2.267 1.849-.774 1.198 9.24 1.828 18.222 2.128 27.027"/><path fill="#dedddd" d="M82.748 81.072c-.652-.191-1.294.023-1.639.044 1.99-8.232-.51-18.243 3-26.942 1.577 7.362-.118 13.727.124 20.89.083 2.464.73 4.348-1.485 6.008"/><path fill="#d0cfcf" d="m71.202 78.999-4.055-1.752L72.9 45.614c1.886 1.817 1.54 4.822.323 6.73l-2.834 25.172c.212.47.724.9.814 1.483"/><path fill="#d7d6d7" d="M117.084 75.37c-2.09 1.886-4.863 2.43-7.245 3.652-.143-.52 1.215-1.389 1.15-1.932L108.2 53.705c-.794-2.108 2.197-2.208 1.733-.076l3.778 20.507c.089.482 1.458 1.68 1.81 1.978.352.3 1.009-1.457 1.563-.743"/><path fill="#fff" d="M98.03 238.975c-9.5 6.781-21.976 5.348-30.032-2.956-21.578-22.242-21.356-76.111-.131-95.869 8.402-7.821 19.625-9.391 29.186-3.073 27.619 18.25 26.352 83.787.977 101.898"/><path fill="#d0d0d0" d="M82.543 42.446c-5.134-.714-11.806.038-14.246-6.652 13.456 6.507 28.159 6.758 41.56 1.37.505-1.087.978-1.51 1.385-1.71.587-.289.787-.146 1.05.208 3.092 4.144-13.562 9.034-29.749 6.784"/></svg>