<svg xmlns="http://www.w3.org/2000/svg" viewBox="0 0 64 64">
  <rect x="2" y="2" width="60" height="60" rx="14" fill="#37b5e8"/>
  <!-- smiling tooth -->
  <path d="M20 16 C20 10 27 8 32 8 C37 8 44 10 44 16 C44 22 42 26 41 32 C40.4 36 40 44 37 44 C34 44 35 34 32 34 C29 34 30 44 27 44 C24 44 23.6 36 23 32 C22 26 20 22 20 16 Z"
        fill="#ffffff" stroke="#1d3557" stroke-width="2.5" stroke-linejoin="round"/>
  <circle cx="27.5" cy="19" r="1.8" fill="#1d3557"/>
  <circle cx="36.5" cy="19" r="1.8" fill="#1d3557"/>
  <path d="M27 24 Q32 28 37 24" fill="none" stroke="#1d3557" stroke-width="2" stroke-linecap="round"/>
  <!-- sparkle -->
  <path d="M50 12 l1.5 3.5 L55 17 l-3.5 1.5 L50 22 l-1.5-3.5 L45 17 l3.5-1.5 Z" fill="#ffe066"/>
  <!-- paw print -->
  <g fill="#1d3557" opacity="0.85">
    <ellipse cx="14" cy="52" rx="3.4" ry="2.8"/>
    <circle cx="10" cy="47" r="1.5"/>
    <circle cx="14" cy="45.6" r="1.5"/>
    <circle cx="18" cy="47" r="1.5"/>
  </g>
</svg>
