<svg xmlns="http://www.w3.org/2000/svg" width="326" height="435"><path fill="#fff" d="M0 434.5V0h326v435H0zm197.727-20.972c15.652 1.359 31.477 1.609 46.851-.878 21.884-3.541 19.462-34.536 20.494-56.972 16.175 1.083 34.391-3.079 39.038-18.663 1.709-7.435 1.086-14.606-.996-22.126-6.812-24.611-19.927-46.519-38.617-65.078 22.652-18.723 31.594-48.039 22.345-75.675-3.786-11.312-10.265-20.278-19.563-27.126-.404-20.599-3.938-40.142-11.626-58.696l-6.148-12.675c15.868-7.968 22.678-26.601 13.785-41.93-8.203-14.14-26.877-15.834-38.955-5.257-5.777 5.058-9.023 12-11.262 19.755-5.488.914-9.442-2.574-14.385-3.957-28.189-7.889-57.983-5.505-85.499 4.204-2.352-10.298-7.478-18.625-16.062-23.453-13.72-7.716-30.13-2.306-35.828 12.296-6.197 15.88.935 29.917 15.776 38.933-12.674 20.286-17.993 46.126-18.823 71.13-31.953 26.308-29.557 76.209 3.363 102.528-20.18 20.86-37.071 49.292-40.608 77.065-.435 8.381 1.857 16.585 8.568 21.467 9.032 6.571 20.074 8.438 31.77 7.2-.428 14.056-.31 27.149 2.822 40.245 2.266 9.476 9.094 15.949 18.898 17.037 15.158 1.988 30.196 1.981 45.253.619 16.823-1.521 23.071-11.939 25.772-28.937 6.02.473 11.776.476 18 .033 2.305 17.053 8.678 27.439 25.637 28.911"/><path fill="#060506" d="M197.727 413.528c-16.959-1.472-23.332-11.858-25.637-28.911-6.224.443-11.98.44-18-.033-2.701 16.998-8.949 27.416-25.772 28.937-15.057 1.362-30.095 1.369-45.253-.619-9.804-1.088-16.632-7.561-18.898-17.037-3.132-13.096-3.25-26.189-2.822-40.245-11.696 1.238-22.738-.629-31.77-7.2-6.71-4.882-9.003-13.086-8.568-21.467 3.537-27.773 20.428-56.205 40.608-77.065-32.92-26.319-35.316-76.22-3.363-102.528.83-25.004 6.149-50.844 18.823-71.13-14.841-9.016-21.973-23.052-15.776-38.933 5.699-14.602 22.108-20.012 35.827-12.296 8.585 4.828 13.711 13.155 16.063 23.453 27.516-9.71 57.31-12.093 85.499-4.204 4.943 1.383 8.897 4.871 14.385 3.957 2.239-7.754 5.485-14.697 11.262-19.755 12.078-10.577 30.752-8.882 38.955 5.256 8.893 15.33 2.083 33.963-13.785 41.93l6.148 12.676c7.688 18.554 11.222 38.097 11.626 58.696 9.298 6.848 15.777 15.814 19.563 27.126 9.249 27.636.307 56.952-22.345 75.675 18.69 18.559 31.805 40.467 38.617 65.078 2.082 7.52 2.705 14.691.996 22.126-4.647 15.584-22.863 19.746-39.038 18.663-1.032 22.436 1.39 53.431-20.494 56.972-15.374 2.487-31.199 2.237-46.851.878M66.573 150.237c-12.358 8.677-20.337 21.578-22.684 36.843-3.386 22.02 5.628 43.493 22.66 57.439 37.016 30.311 101.251 32.651 147.47 21.768 34.422-8.106 67.009-30.57 68.983-67.251 1.049-19.487-7.22-37.69-23.155-48.725-.016-25.177-4.661-50.742-17.79-72.305-4.438-7.289 5.757-6.64 13.141-15.989 7.202-9.118 6.556-22.868-3.164-30.119-8.495-6.336-20.792-2.803-26.478 5.554-7.266 10.677-5.624 21.028-10.341 19.218-32.012-12.283-66.625-12.964-99.151-1.727-2.045.706-7.371 1.32-8.025-.749-2.666-8.425-5.407-16.418-12.469-21.736-5.373-4.048-12.748-5.162-19.22-1.98-4.923 2.419-8.91 7.759-9.794 14.233-1.444 10.586 4.05 20.021 13.874 25.027 2.464 1.255 6.273 3.686 4.284 7.006-13.26 22.132-19.054 47.707-18.14 73.493M210.776 49.042 206.9 48.9c.294 1.482 1.327 1.185 1.997 1.578.437.256 1.615.682 1.879-1.436M28.855 329.695c-.904 12.176 11.822 18.55 23.841 18.641 2.794.021 5.85.854 8.884-.956.61-23.978 6.261-46.913 15.97-68.675.722-1.619 3.44-1.593 4.398-1.099 1.083.56 2.375 2.306 1.647 4.174-13.67 35.069-18.503 73.392-12.344 110.732.664 4.027 2.618 7.37 5.38 9.817 4.929 4.366 12.12 4.124 18.346 3.842.215-.125.5-.175.611.283 11.646.952 23.343.797 35.063-.707l4.481-1.544c7.873-2.712 9.752-11.094 11.762-20.821l-10.649-3.639c-2.379-.813-3.864-2.631-2.974-5.02.769-2.067 2.471-2.994 4.997-1.944 15.314 6.367 32.681 6.906 47.982.593 2.596-1.071 4.065-1.287 5.451.67 1.612 2.276.437 4.722-2.003 5.585l-10.115 3.578c1.408 8.996 3.124 17.265 10.471 20.879 9.137 4.496 38.108 3.051 52.534 1.581 2.994-.305 4.709-1.578 6.601-3.156 8.375-6.985 8.04-27.882 8.276-42.57.429-26.759-4.233-52.349-14.249-76.932-.911-2.236-.417-4.514 1.583-5.566 1.828-.962 4.088.049 5.129 2.687 8.475 21.467 14.182 43.228 14.76 66.941.476 2.362 5.988 1.088 8.218 1.248 10.543.755 25.496-5.993 24.669-18.385-.27-4.047-.199-8.25-1.568-13.099-6.654-23.563-19.515-44.576-36.812-62.31-17.649 12.526-35.788 18.095-55.172 22.213-26.988 4.358-54.49 4.888-81.759-.065-19.95-3.623-38.408-10.184-55.109-21.981-19.207 19.999-36.994 48.303-38.3 75.005"/><path fill="#d3c4db" d="M259.847 150.311c15.935 11.035 24.204 29.238 23.155 48.725-1.974 36.681-34.561 59.145-68.983 67.251-46.219 10.883-110.454 8.543-147.47-21.768-17.032-13.946-26.046-35.419-22.66-57.439 2.347-15.265 10.326-28.166 22.684-36.843 9.49-6.664 21.26-9.016 32.712-10.855 4.463-2.916 9.484-3.663 14.78-1.892 32.214-4.894 64.163-5.28 96.487.014 5.368-.171 10.765-.783 16.486 1.451 11.593 2.388 23.357 4.812 32.809 11.356m-143.095 11.831c2.954-4.868-1.943-11.933-6.555-13.149-3.722-.981-6.664 1.532-7.655 3.964-1.143 2.805-.455 5.385 1.7 7.999 2.55 3.091 9.629 5.933 12.51 1.186m107.083-3.571c1.684-4.02.308-6.969-2.24-8.684-2.026-1.363-4.872-1.445-7.509.387-3.622 2.517-7.25 9.469-3.444 13.061 3.887 3.668 11.254-.135 13.193-4.764m2.028 43.288c.266-2.863-.619-6.719-3.016-6.721l-118.753-.08c-2.262-.001-3.772 2.999-3.69 4.681 1.477 30.255 23.963 55.37 54.753 59.366 35.057 4.549 67.418-21.915 70.706-57.246"/><path fill="#9d7fb3" d="M122.264 276.671c-.202 1.867-1.289 2.731-2.269 4.334-9.054 14.799-14.318 31.504-12.805 48.928 3.236 37.285 50.633 43.918 82.722 34.339 18.636-5.563 29.873-21.03 29.451-40.373-.336-15.427-5.413-29.629-13.525-42.843-.923-1.503-1.947-2.68-1.815-4.32 19.384-4.118 37.523-9.687 55.172-22.213 17.297 17.734 30.158 38.747 36.812 62.31 1.369 4.849 1.298 9.052 1.568 13.099-2.477-.958-4.945-1.163-6.643.487-5.226 5.078-1.061 9.666-2.887 13.179-1.92-2.993-3.64-6.458-7.044-7.029-3.167-.53-6.909 2.347-7.172 5.233l-.923 6.515c-2.23-.16-7.742 1.114-8.218-1.248-.578-23.713-6.285-45.474-14.76-66.941-1.041-2.638-3.301-3.649-5.129-2.687-2 1.052-2.494 3.33-1.583 5.566 10.016 24.583 14.678 50.173 14.249 76.932-.236 14.688.099 35.585-8.276 42.57-1.557-4.318-4.181-8.673-9.276-8.749-6.182-.093-8.751 5.764-9.544 11.702-1.881-6.538-4.689-12.162-11.415-12.286-6.633-.121-9.91 5.95-10.803 12.202-1.137-5.217-2.669-10.407-8.232-11.245-5.83-.878-9.561 4.999-9.865 9.951-7.347-3.614-9.063-11.883-10.471-20.879l10.115-3.578c2.44-.863 3.615-3.309 2.003-5.585-1.386-1.957-2.855-1.741-5.451-.67-15.301 6.313-32.668 5.774-47.982-.593-2.526-1.05-4.228-.123-4.997 1.944-.89 2.389.595 4.207 2.974 5.02l10.649 3.639c-2.01 9.727-3.889 18.109-11.762 20.821-.436-4.103-1.888-7.967-5.863-9.512-2.935-1.142-6.107.206-7.994 1.939-2.463 2.263-2.68 4.802-3.656 8.714-1.376-8.111-6.732-13.657-13.334-11.923-5.803 1.524-8.224 7.244-8.696 13.033-.113-.458-.397-.408-.612-.283l-1.338-6.797c-.765-3.705-4.593-5.886-8.113-5.68-3.046.179-5.802 2.433-7.27 5.53l-1.625 3.105c-2.762-2.447-4.716-5.79-5.38-9.817-6.159-37.34-1.325-75.663 12.344-110.732.728-1.868-.564-3.614-1.647-4.174-.958-.494-3.676-.52-4.398 1.099-9.708 21.762-15.36 44.697-15.97 68.675-3.035 1.81-6.09.977-8.884.956.295-5.947-.807-11.03-5.654-11.557-4.404-.479-6.45 3.545-8.685 6.41.834-4.903.761-10.331-3.61-12.867-1.642-.952-4.357-.265-5.892-.627 1.306-26.702 19.093-55.006 38.3-75.005 16.7 11.797 35.159 18.358 55.109 21.981"/><path fill="#9d7eb2" d="M259.847 150.311c-9.452-6.544-21.216-8.968-32.809-11.356-5.721-2.234-11.118-1.622-16.486-1.451-32.324-5.294-64.273-4.908-96.487-.014-5.296-1.771-10.317-1.024-14.78 1.892-11.453 1.839-23.221 4.191-32.712 10.855-.913-25.786 4.881-51.361 18.141-73.493 1.989-3.32-1.82-5.751-4.284-7.006-9.825-5.006-15.318-14.44-13.874-25.027.883-6.474 4.871-11.814 9.794-14.234 6.472-3.181 13.847-2.067 19.22 1.98 7.062 5.32 9.803 13.312 12.469 21.737.654 2.068 5.98 1.455 8.025.749 32.526-11.237 67.139-10.556 99.151 1.727 4.717 1.81 3.075-8.54 10.341-19.218 5.686-8.357 17.983-11.89 26.478-5.554 9.72 7.25 10.366 21 3.164 30.12-7.384 9.349-17.579 8.7-13.141 15.988 13.129 21.563 17.774 47.128 17.79 72.305M90.091 62.051c3.488-.285 6.246-6.274 5.79-9.329-.555-3.723-2.53-7.328-6.116-9.49-3.043-1.834-6.37-2.113-9.175-.079-2.01 1.457-3.552 4.54-2.505 8.112 1.378 4.704 6.403 10.504 12.006 10.787m146.294.699c5.127-2.428 9.592-5.615 11.651-10.723 1.194-2.961.269-6.07-1.444-8.083-1.645-1.934-4.351-2.996-7.709-1.803-5.608 1.992-10.112 8.576-8.562 14.695.69 2.72 3.951 4.363 6.064 5.914m-107.522 67.582c1.879-1.047 2.372-2.974 2.165-5.337-.887-10.125-9.422-18.315-19.693-15.414-7.607 2.148-12.7 10.527-11.583 18.202.361 2.484 3.308 3.213 4.558 2.82 1.766-.554 2.871-2.295 2.769-4.62-.233-5.344 4.43-9.445 9.287-8.838 9.93 1.242 5.468 17.103 12.497 13.187m94.434.362c1.828-.579 2.899-2.302 2.828-4.746-.282-9.681-7.971-18.222-18.169-16.696-8.832 1.321-14.795 10.638-13.292 18.788.383 2.076 3.384 2.958 4.713 2.081 4.247-2.799.793-13.268 11.062-13.052 10.776.226 6.075 15.773 12.858 13.625"/><path fill="#d1c0d9" d="M204.023 276.736c-.132 1.64.892 2.817 1.815 4.32 8.112 13.214 13.189 27.416 13.525 42.843.422 19.343-10.815 34.81-29.451 40.373-32.089 9.579-79.486 2.946-82.722-34.339-1.513-17.424 3.751-34.129 12.805-48.928.98-1.603 2.067-2.467 2.269-4.334 27.269 4.953 54.771 4.423 81.759.065"/><path fill="#fbfafb" d="M249.189 402.509c-1.892 1.578-3.607 2.851-6.601 3.156-14.426 1.47-43.397 2.915-52.534-1.581.304-4.952 4.035-10.829 9.865-9.951 5.563.838 7.095 6.028 8.232 11.245.893-6.252 4.17-12.323 10.803-12.202 6.726.124 9.534 5.748 11.415 12.286.793-5.938 3.362-11.795 9.544-11.702 5.095.076 7.719 4.431 9.276 8.749"/><path fill="#fafafb" d="m135.132 404.203-4.481 1.544c-11.72 1.504-23.417 1.659-35.063.707.473-5.789 2.894-11.509 8.697-13.033 6.602-1.734 11.958 3.812 13.334 11.923.976-3.912 1.193-6.451 3.656-8.714 1.887-1.733 5.059-3.081 7.994-1.939 3.975 1.545 5.427 5.409 5.863 9.512"/><path fill="#faf9fa" d="M297.575 329.932c.827 12.392-14.126 19.14-24.669 18.385l.923-6.515c.263-2.886 4.005-5.763 7.172-5.233 3.404.571 5.124 4.036 7.044 7.029 1.826-3.513-2.339-8.101 2.887-13.179 1.698-1.65 4.166-1.445 6.643-.487"/><path fill="#f9f8fa" d="M52.696 348.336c-12.019-.091-24.745-6.465-23.841-18.641 1.535.362 4.25-.325 5.892.627 4.371 2.536 4.444 7.964 3.61 12.867 2.236-2.865 4.28-6.889 8.685-6.41 4.847.527 5.949 5.61 5.654 11.557"/><path fill="#fbfbfb" d="M94.977 406.171c-6.225.282-13.417.524-18.346-3.842l1.625-3.105c1.468-3.097 4.224-5.351 7.27-5.53 3.52-.206 7.348 1.975 8.113 5.68z"/><path fill="#32322f" d="M210.776 49.042c-.264 2.118-1.442 1.692-1.879 1.436-.67-.393-1.703-.096-1.997-1.578z"/><path fill="#040404" d="M225.863 201.859c-3.288 35.331-35.649 61.795-70.706 57.246-30.79-3.996-53.276-29.111-54.753-59.366-.082-1.682 1.428-4.682 3.69-4.681l118.753.08c2.397.002 3.282 3.858 3.016 6.721m-37.99 1.054-21.342.368c-.274 1.68-.708 3.686-1.527 4.277-1.072.772-3.053.602-3.942-.143-.983-.823-1.286-2.565-1.144-4.403l-21.783-.148c-.727 6.79.99 12.971 5.925 16.662 4.655 3.482 11.787 4.904 17.13 1.829 1.137-.654 2.015-2.308 2.666-1.901.581.364 1.57 2.329 2.149 2.57 5.657 2.348 12.227.681 16.514-2.93 4.394-3.701 5.979-9.954 5.354-16.181m2.075 41.787c-16.18-13.132-38.915-12.481-54.141.264 16.729 9.988 37.53 10.39 54.141-.264"/><path fill="#070707" d="M116.752 162.142c-2.881 4.747-9.96 1.905-12.51-1.186-2.155-2.614-2.843-5.194-1.7-7.999.991-2.432 3.933-4.945 7.655-3.964 4.612 1.216 9.509 8.281 6.555 13.149"/><path fill="#050505" d="M223.835 158.571c-1.939 4.629-9.306 8.432-13.193 4.764-3.806-3.592-.178-10.544 3.444-13.061 2.637-1.832 5.483-1.75 7.509-.387 2.548 1.715 3.924 4.664 2.24 8.684"/><path fill="#060506" d="M128.863 130.332c-7.029 3.916-2.567-11.945-12.497-13.187-4.857-.607-9.52 3.494-9.287 8.838.102 2.325-1.003 4.066-2.769 4.62-1.25.393-4.197-.336-4.558-2.82-1.116-7.675 3.976-16.054 11.583-18.202 10.271-2.901 18.806 5.289 19.693 15.414.207 2.363-.286 4.29-2.165 5.337"/><path fill="#050505" d="M223.297 130.694c-6.783 2.148-2.082-13.399-12.858-13.625-10.269-.216-6.815 10.253-11.062 13.052-1.329.877-4.33-.005-4.713-2.081-1.503-8.15 4.46-17.467 13.292-18.788 10.198-1.526 17.887 7.015 18.169 16.696.071 2.444-1 4.167-2.828 4.746M236.385 62.75c-2.113-1.55-5.374-3.193-6.064-5.914-1.55-6.12 2.954-12.703 8.562-14.695 3.358-1.193 6.064-.13 7.709 1.803 1.713 2.014 2.638 5.122 1.444 8.083-2.059 5.108-6.524 8.295-11.651 10.723"/><path fill="#050506" d="M90.091 62.052c-5.603-.283-10.628-6.083-12.006-10.787-1.047-3.572.495-6.655 2.505-8.112 2.806-2.034 6.132-1.755 9.175.08 3.585 2.161 5.561 5.766 6.117 9.49.455 3.054-2.303 9.043-5.79 9.329"/><path fill="#fbfafa" d="M187.873 202.913c.625 6.227-.96 12.48-5.354 16.181-4.287 3.611-10.857 5.278-16.514 2.93-.579-.241-1.568-2.206-2.149-2.57-.651-.407-1.529 1.247-2.666 1.901-5.343 3.075-12.475 1.653-17.13-1.829-4.935-3.691-6.652-9.872-5.925-16.662l21.783.148c-.142 1.838.161 3.58 1.144 4.403.889.745 2.87.915 3.942.143.819-.591 1.253-2.597 1.527-4.277z"/><path fill="#eeaeb1" d="M189.948 244.7c-16.611 10.654-37.412 10.252-54.141.264 15.226-12.745 37.961-13.396 54.141-.264"/></svg>