<svg xmlns="http://www.w3.org/2000/svg" viewBox="21.8 19.9 247.7 442.0" width="248" height="442"><path fill="#050605" d="m213.899 460.547-35.881.326c-6.324.057-12.919-3.229-16.887-7.9-4.864-5.726-5.766-12.741-7.129-20.299l-16.795-.127-1.779 8.83c-2.079 10.309-9.891 18.204-20.885 19.226l-35.416.261c-21.637.16-25.62-26.694-24.455-47.528l-11.313-2.616c-12.859-2.974-20.97-14.213-20.49-27.789.927-26.192 22.63-55.517 42.506-73.503-15.645-8.687-28.291-20.108-36.242-35.385-10.983-21.455-7.14-47.003 11.069-63.485.806-21.325 7.712-41.348 21.265-58.18-19.591-20.571-31.122-45.965-34.677-73.234-1.08-12.836-.62-24.847 3.784-36.31 6.477-16.862 22.879-25.47 40.457-20.485 35.243 9.996 60.326 56.012 65.177 91.801 6.602-.217 12.974-.193 19.712.015 4.608-36.248 31.773-83.634 66.913-92.192 16.033-3.905 31.049 2.79 37.802 17.397 4.75 10.273 6.307 20.951 5.896 32.742-2.157 30.133-14.282 58.053-35.907 80.263 12.948 16.474 20.427 36.166 21.035 58.049 18.594 17.628 22.27 45.019 8.895 67.355-7.842 13.916-20.242 23.48-34.318 31.922 25.483 21.192 59.763 75.307 31.422 96.064-5.89 4.313-13.149 6.301-20.836 7.425-.44 11.083-.406 22.001-4.22 32.424-2.915 7.965-9.553 14.85-18.703 14.933m-165.39-247.14c-18.59 14.492-22.922 40.067-10.358 60.629 9.254 15.146 23.18 25.199 39.155 32.804 40.384 19.226 96.911 19.056 137.397-.081 15.854-7.493 30.045-17.589 38.999-32.737 11.998-20.296 8.047-45.745-9.961-60.011.117-20.581-6.035-41.045-19.69-56.95-1.574-1.832-4.382-4.663-1.927-7.084 21.425-21.134 35.015-48.732 36.554-78.851.47-9.212-.73-17.686-3.889-25.79-5.013-12.862-17.328-19.37-30.929-15.565-10.715 2.998-19.736 9.452-27.591 17.693-31.681 33.236-31.961 71.846-33.78 73.638-2.87 2.828-13.41-.944-28.481 1.259-2.023.296-3.438-.12-4.538-1.322-2.031-2.218-1.153-40.824-35.518-75.83-7.372-7.512-16-12.807-25.841-15.451-12.39-3.33-23.677 2.026-29.028 13.52-4.72 10.132-5.774 21.226-4.643 32.749 2.63 26.802 14.625 51.828 33.059 71.323 1.645 1.74 3.213 2.763 3.121 4.976-.079 1.889-1.609 2.837-2.95 4.483-12.978 15.921-19.532 35.986-19.162 56.598m140.398 110.914c-27.47 6.359-56.488 6.63-84.469.327-11.096-2.5-21.056-5.925-31.689-11.11-19.206 16.22-39.29 43.025-42.077 67.403-1.643 14.384 8.706 23.013 23.904 24.31 1.859-23.033 6.73-45.429 15.557-66.987.923-2.254 3.941-2.579 5.08-1.732 2.12 1.578 2.777 3.651 1.693 6.455-9.852 25.49-15.23 52.152-14.419 79.542.384 12.938 3.303 30.088 14.936 30.175l35.51.267c10.946.082 15.392-10.526 16.168-21.611-10.757-2.325-23.531-5.435-19.996-11.719 1.341-2.383 3.64-2.364 6.341-1.156 19.043 8.518 41.079 8.725 60.19.173 2.627-1.175 4.926-1.463 6.329.959 3.632 6.273-9.288 9.442-19.943 11.78 1.086 12.586 4.949 21.752 17.99 21.725l31.91-.067c12.126-.025 15.477-13.469 16.34-26.186 1.986-29.263-3.319-57.887-13.928-84.91-1.009-2.571.257-4.81 2.499-5.446 2.509-.711 4.378.634 5.373 3.438 7.579 21.365 13.284 42.657 14.304 65.652 7.284-1.232 14.403-2.975 19.469-8.676 13.343-15.015-5.158-47.466-18.078-63.852-5.702-7.231-12.181-13.038-18.896-19.504-10.065 4.675-19.919 8.394-30.098 10.75"/><path fill="#2ebf4a" d="M243.741 214.011c-20.521-16.256-55.822-10.744-80.665-2.181-2.259-8.586-31.715-8.602-34.341-.083-24.629-8.508-60.25-13.914-80.227 1.66-.37-20.612 6.184-40.677 19.162-56.598 1.341-1.646 2.871-2.594 2.95-4.483.092-2.213-1.476-3.236-3.121-4.976-18.434-19.495-30.429-44.521-33.06-71.323-1.13-11.523-.075-22.617 4.644-32.75C44.435 31.784 55.72 26.43 68.11 29.757c9.841 2.645 18.469 7.94 25.841 15.451 34.365 35.007 33.487 73.613 35.518 75.831 1.1 1.202 2.515 1.618 4.538 1.322 15.071-2.203 25.611 1.569 28.481-1.259 1.819-1.792 2.099-40.402 33.78-73.638 7.855-8.24 16.876-14.695 27.591-17.693 13.601-3.806 25.916 2.703 30.929 15.564 3.159 8.105 4.359 16.579 3.889 25.79-1.539 30.12-15.129 57.718-36.554 78.852-2.455 2.421.353 5.252 1.927 7.084 13.655 15.905 19.807 36.369 19.69 56.95m-132.548-87.23c2.874-.945 4.464-1.883 4.437-4.506-.227-22.765-15.734-52.373-35.87-62.764-9.42-4.862-19.996-1.556-23.97 8.307-9.607 23.838 5.903 58.194 25.888 75.132 9.358-7.258 18.583-12.575 29.515-16.169m99.104 16.063c20.819-17.153 35.136-50.034 27.249-73.397-2.316-6.862-9.089-12.91-16.507-12.055-9.02 1.04-16.904 6.273-22.704 12.956-12.141 13.99-23.089 36.335-21.861 55.094 12.521 3.383 23.139 9.195 33.823 17.402m-97.839 57.461c2.088-.881 2.935-2.674 2.706-5.341-.822-9.558-8.381-16.351-17.617-16.043-8.483.284-15.617 6.942-16.704 16.1-.312 2.634 1.256 4.936 3.658 5.375 1.447.265 4.287-1.203 4.266-3.41-.057-5.861 4.177-10.377 9.677-10.054 11.246.659 6.69 16.468 14.014 13.373m94.981.196c1.028-.217 3.13-.973 3.345-2.828 1.216-10.488-7.556-19.376-18.124-18.709-9.364.591-17.571 9.204-15.897 19.136.371 2.201 3.945 3.028 5.288 2.313 1.271-.677 2.732-2.136 2.715-4.451-.042-5.728 5.368-9.854 10.579-8.893 9.989 1.841 5.847 14.752 12.094 13.432"/><path fill="#2fbe48" d="M104.438 324.648c-13.634 28.242-20.887 70.043 13.376 80.833 17.69 5.571 36.928 5.54 54.784.278 33.304-9.814 28.881-47.349 17.371-76.755-.628-1.604-1.387-2.763-1.062-4.683 10.179-2.356 20.033-6.075 30.098-10.75 6.715 6.466 13.194 12.273 18.896 19.504 12.92 16.386 31.421 48.837 18.078 63.852-5.066 5.701-12.185 7.444-19.469 8.676-1.02-22.995-6.725-44.287-14.304-65.652-.995-2.804-2.864-4.149-5.373-3.438-2.242.636-3.508 2.875-2.499 5.446 10.609 27.023 15.914 55.647 13.928 84.91-.863 12.717-4.214 26.161-16.34 26.186l-31.91.067c-13.041.027-16.904-9.139-17.99-21.725 10.655-2.338 23.575-5.507 19.943-11.78-1.403-2.422-3.702-2.134-6.329-.959-19.111 8.552-41.147 8.345-60.19-.173-2.701-1.208-5-1.227-6.341 1.156-3.535 6.284 9.239 9.394 19.996 11.719-.776 11.085-5.222 21.693-16.168 21.611l-35.51-.267c-11.633-.087-14.552-17.237-14.936-30.175-.811-27.39 4.567-54.052 14.42-79.542 1.083-2.804.425-4.877-1.694-6.455-1.139-.847-4.157-.522-5.08 1.732-8.827 21.558-13.698 43.954-15.557 66.987-15.198-1.297-25.547-9.926-23.904-24.31 2.786-24.378 22.87-51.183 42.077-67.403 10.633 5.185 20.593 8.61 31.689 11.11"/><path fill="#fdfdfd" d="M128.735 211.747c-1.678 5.441 6.128 11.815 12.498 16.144 1.064 1.332.583 5.326-.168 7.064l-55.969.206c-2.953.011-4.386 3.133-4.174 5.926 2.12 27.981 20.782 52.246 48.131 59.641 39.869 10.782 79.494-18.637 81.723-59.662.113-2.081-.334-5.853-2.865-5.862l-57.844-.214-.031-6.984c6.63-4.113 14.384-11.066 13.04-16.176 24.843-8.563 60.144-14.075 80.665 2.181 18.008 14.266 21.959 39.715 9.961 60.011-8.954 15.148-23.145 25.244-38.999 32.737-40.486 19.137-97.013 19.307-137.397.081-15.974-7.605-29.901-17.658-39.155-32.804-12.564-20.562-8.232-46.137 10.357-60.629 19.976-15.574 55.598-10.168 80.227-1.66"/><path fill="#fdfdfd" d="M188.907 324.321c-.325 1.92.434 3.079 1.062 4.683 11.51 29.406 15.933 66.941-17.371 76.755-17.856 5.262-37.094 5.293-54.784-.278-34.263-10.79-27.01-52.591-13.376-80.833 27.981 6.303 56.999 6.032 84.469-.327"/><path fill="#040404" d="M163.076 211.83c1.344 5.11-6.41 12.063-13.04 16.176l.031 6.984 57.844.214c2.531.009 2.978 3.781 2.865 5.862-2.229 41.025-41.854 70.444-81.723 59.662-27.349-7.395-46.011-31.66-48.13-59.641-.213-2.793 1.22-5.915 4.173-5.926l55.969-.206c.751-1.738 1.232-5.732.168-7.064-6.37-4.329-14.176-10.703-12.498-16.144 2.626-8.519 32.082-8.503 34.341.083m-21.456 50.958-.014-19.308-18.657.023c.444 4.371 1.407 8.852 3.419 13.128 3.385 4.769 8.529 7.053 15.252 6.157m8.465.208c5.727.318 9.534-.959 13.08-3.856 3.294-4.504 4.986-9.408 5.332-15.697l-18.544.125zm23.765 23.878c-8.467-7.999-18.718-9.742-28.854-9.766-10.197-.156-20.15 2.608-27.418 9.699 17.366 10.513 38.988 10.644 56.272.067"/><path fill="#cb1212" d="M210.297 142.844c-10.684-8.207-21.302-14.019-33.823-17.402-1.228-18.759 9.72-41.103 21.861-55.094 5.8-6.683 13.684-11.916 22.704-12.956 7.418-.856 14.191 5.193 16.507 12.055 7.887 23.363-6.43 56.244-27.249 73.397"/><path fill="#cc1411" d="M111.193 126.781c-10.932 3.594-20.157 8.911-29.515 16.169-19.985-16.938-35.495-51.294-25.888-75.132 3.974-9.863 14.55-13.17 23.97-8.307 20.136 10.391 35.643 40 35.87 62.764.027 2.623-1.563 3.561-4.437 4.506"/><path fill="#050605" d="M207.439 200.501c-6.247 1.32-2.105-11.591-12.094-13.432-5.211-.961-10.621 3.165-10.579 8.893.017 2.315-1.444 3.774-2.715 4.451-1.343.715-4.917-.112-5.288-2.313-1.674-9.932 6.533-18.545 15.897-19.136 10.568-.667 19.34 8.221 18.124 18.709-.215 1.855-2.317 2.611-3.345 2.828"/><path fill="#050606" d="M112.458 200.305c-7.324 3.095-2.768-12.714-14.014-13.373-5.5-.323-9.734 4.193-9.677 10.054.02 2.207-2.82 3.675-4.266 3.41-2.402-.439-3.97-2.741-3.658-5.375 1.087-9.158 8.221-15.816 16.704-16.1 9.236-.308 16.795 6.485 17.617 16.043.229 2.667-.618 4.46-2.706 5.341"/><path fill="#d21818" d="M173.85 286.874c-17.284 10.577-38.906 10.446-56.272-.067 7.268-7.091 17.221-9.855 27.418-9.699 10.136.024 20.387 1.767 28.854 9.766"/><path fill="#faf9fa" d="M141.62 262.788c-6.723.896-11.867-1.388-15.252-6.157-2.012-4.276-2.975-8.757-3.419-13.128l18.657-.023z"/><path fill="#f9f9f9" d="m150.085 262.996-.132-19.428 18.544-.125c-.346 6.289-2.038 11.193-5.332 15.697-3.546 2.897-7.353 4.174-13.08 3.856"/></svg>