<svg xmlns="http://www.w3.org/2000/svg" viewBox="19.6 20.6 286.3 388.6" width="286" height="389"><path fill="#060705" d="M298.34 374.985c-1.422-1.758-3.884-1.755-5.952-2.455l-11.138-3.773c-8.946-3.03-16.527-9.415-22.926-17.041l-7.846-.238-.626 14.017c-.261 5.849-2.51 16.808-2.767 17.036-.352.312-1.385-.394-1.831-.151-1.615.882-2.262 4.495-1.482 5.507 4.257 2.628 8.892-.71 12.281-1.167 4.708-.635 9.687 1.547 14.184 2.152 8.624 1.161 23.732-3.624 27.014-8.776l7.686-2.877c-1.58 5.154-5.791 8.606-10.815 11.102-15.117 7.51-32.766 7.691-49.065 1.619-3.402 11.867-13.158 17.645-25.117 17.565-9.973-.067-19.786 1.337-29.582.152-16.403-1.689-22.698-11.643-25.551-27.697-7.039.484-13.607.751-20.667-.142l-2.809 10.396c-5.947 22.009-32.048 18.032-53.63 17.34-27.191-.873-28.332-30.879-28.9-56.227-20.617 1.931-39.242-9.363-38.155-29.383 1.043-19.221 16.08-44.081 28.502-58.989 3.266-1.551.282 8.286 2.584 5.735l8.108-8.988C46.98 276.666 18.83 316.185 30.92 334c4.489 6.612 12.019 9.648 19.106 9.861l6.929.208c.388.012 1.426.068 1.965-.277l.156-8.029c.153-7.876 1.671-16.452 3.111-25.052-2.486-1.64-5.686-3.026-4.959-6.333 1.472-6.699 1.562-13.109 4.893-19.292.57-1.059 2.736-3.217 3.312-1.851 1.124 2.67.917 6.336.188 8.564-.339 1.036-.423 2.301-.848 4.405-.37 1.838-3.144 4.082-1.215 7.047 2.005-3.053 2.948-6.817 3.513-10.306.97-5.994 4.087-11.553 6.158-17.702.823-2.441 1.846-4.351 3.839-5.352l3.923.978c-.35.529-.127 1.821.88 2.541-14.118 32.635-19.042 68.682-13.75 104.382 1.67 11.269 6.402 20.887 17.259 21.83 12.09 1.049 24.314 1.694 36.226.081 5.771-.781 10.514-4.768 12.063-9.93l3.358-11.183c-4.888-1.627-10.42-2.795-14.558-5.968-2.277-1.746-.08-5.267 1.647-7.171 18.831 9.974 42.283 10.488 61.132-.156 1.85 2.217 3.653 5.746 1.533 7.403-4.159 3.25-9.223 4.204-14.437 5.925 1.533 11.417 5.951 20.87 17.65 21.518 11.536.638 22.543.792 33.924-.328 6.294-.62 11.412-4.451 13.423-10.67 5.61-17.356 6.037-35.553 4.743-54.177-1.412-20.31-6.499-39.261-14.276-57.852-.846-2.023-1.197-3.957.19-5.543.966-1.105 4.254-2.225 5.309.262l6.471 15.248c1.797 4.236 1.476 8.519 4.158 12.147-1.131-7.097-1.703-13.351 2.338-19.469 3.194 2.47 2.425 6.428 3.366 9.921.831 3.087 2.755 5.585 1.671 9.414-.576 2.037.259 4.559.144 6.552l-4.897 5.276c1.478 8.12 3.03 15.644 3.219 23.25l.226 9.128c2.006.896 3.977.682 5.925.7 8.957.081 18.469-3.32 22.901-12.1 8.674-17.181-17.055-58.073-32.094-71.661.151-1.883-.132-2.777-1.636-3.624-1.489-.838-2.479-3.176-4.181-3.637l-6.23-6.576c-1.357-1.395-2.379-.972-3.591-.443l-11.105 4.845c-9.451 4.123-19.696 6.24-29.827 8.062-23.884 4.296-48.194 3.996-72.1-.187-9.167-1.605-18.234-4.192-27.172-6.943a36 36 0 0 1-4.745-1.842l-9.941-4.743c-6.608 4.448-10.481 11.368-16.235 13.733.289-.344.54-2.295-.094-2.674-1.597-.326-2.912-.235-4.079-1.238 3.882-4.659 8.148-8.623 13.698-13.611-30.11-16.148-45.178-48.25-38.91-81.732 2.685-14.339 7.315-27.596 17.233-38.323 2.227-16.23 10.054-29.546 19.045-42.532-2.95-21.502 4.845-42.779 24.076-52.683 17.367-8.945 37.087-4.045 48.594 11.22 10.666-2.129 20.264-1.624 30.138-.208 10.224-13.815 27.263-18.888 43.446-13.076 21.641 7.773 31.812 31.533 28.13 54.874 8.834 11.8 17.799 27.052 18.942 42.142 7.798 7.992 12.348 17.804 15.317 28.592 10.176 36.982-2.227 71.788-35.703 91.346 1.273 7.881 14.301-.206 19.419 7.845 3.259 5.127-2.57 12.493 1.249 16.231 2.207 2.161 13.658-.265 16.154 8.304 1.21 4.154-1.619 8.232-1.547 12.739.04 2.464 3.288 7.379 5.683 7.528 3.507.217 6.624.416 8.504 2.765 1.826 2.281 3.038 5.48 1.532 8.62l-4.298 8.964c5.219 16.172-3.556 31.344-19.889 35.944-1.236.45.818 3.825 2.081 4.182 2.99.847 6.892-5.318 12.176-2.617 4.298 2.197 1.641 10.863 5.395 11.699 2.467-2.717 7.789-6.743 11.06-4.765 6.403 3.872 4.405 12.321 1.016 16.565M60.74 102.036c-1.197-.842-.573-2.352-.929-4.338-5.318 7.734-10.965 19.712-5.294 25.556-.99 2.537-2.77 3.952-4.702 6.674-9.308 13.112-13.005 29.468-13.154 45.052-.364 38.092 29.301 61.896 64.689 71.731 32.685 9.084 66.981 9.923 99.891 1.729 38.077-9.48 70.033-32.321 70.256-73.371.098-17.872-4.745-37.489-17.812-50.936-1.648-16.784-9.782-29.797-19.733-43.192 2.361-14.292.375-28.722-9.031-39.787-6.555-7.71-15.805-12.128-25.38-11.991-9.563.136-18.712 4.62-24.687 12.658-1.697 2.283-4.048 3.791-6.579 2.855-.895-.33-1.847-1.005-3.296-.794-3.106.45-6.405-.084-9.492.006-3.058-1.565-6.472-.825-9.491-.212-2.094.425-4.908.315-6.834 1.243-.771.372-2.704.351-3.43-.726-5.283-7.835-13.419-13.563-23.105-14.797-15.388-1.96-29.343 7.662-35.391 21.875-3.902 9.168-4.345 18.67-2.388 29.083z"/><path fill="#7bb955" d="m281.25 368.757 11.138 3.773c2.068.7 4.53.697 5.952 2.455.295 1.662.095 3.254-1.089 5.111-3.282 5.152-18.39 9.937-27.014 8.776-4.497-.605-9.476-2.787-14.184-2.152-3.389.457-8.024 3.795-12.281 1.167-.78-1.012-.133-4.625 1.482-5.507.446-.243 1.479.463 1.831.151.257-.228 2.506-11.187 2.767-17.036 7.443 5.452 16.592 6.832 25.751 7.957 1.984.244 3.047.897 4.362-1.034.686-1.007 1.599-1.941 1.285-3.661"/><path fill="#878384" d="M59.972 258.884c.087.263.026.679-.132.818l-8.108 8.988c-2.302 2.551.682-7.286-2.584-5.735l6.651-7.983c1.167 1.003 2.482.912 4.08 1.238.633.379.382 2.33.093 2.674"/><path fill="#7bbd54" d="M139.162 44.92c-.365 1.556.475 5.743 2.819 5.955 3.378.304 6.875-.636 9.745 1.533.379.287 1.414 1.733 1.736 1.538l1.504-.907c2.459.372 5.188-.762 8.095-.758 1.406.002 4.408 1.986 5.542-.71.616-1.462.469-4.49-.354-5.7-2.843 1.648-2.799-2.704.026-1.195 2.531.936 4.882-.572 6.579-2.855 5.975-8.039 15.124-12.521 24.687-12.658 9.575-.137 18.825 4.282 25.38 11.991 9.406 11.065 11.392 25.495 9.031 39.787 9.951 13.395 18.085 26.408 19.733 43.192 13.067 13.447 17.91 33.064 17.812 50.936l-9.511 4.102c-.795-1.813-1.701-2.819-2.845-3.385-1.635-.809-4.06.254-5.42.868-24.784 11.195-58.474 9.061-85.653 3.206-9.471-2.041-17.701-2.06-27.127.035-28.175 6.261-61.984 7.464-88.166-3.658-1.724-.732-2.93-1.239-4.476-.599-1.396.579-2.307 1.758-2.34 3.324l-9.298-3.982c.149-15.584 3.846-31.94 13.154-45.052 1.933-2.722 3.711-4.137 4.703-6.674 1.633-4.179 3.57-8.466 4.037-13.631.262-2.892.757-5.391 2.186-7.587l14.107-21.682c-1.957-10.412-1.514-19.915 2.388-29.083 6.048-14.213 20.003-23.835 35.391-21.875 9.686 1.233 17.822 6.962 23.105 14.797.726 1.077 2.659 1.098 3.43.726m-37.443 12.234c3.301-2.19 7.791-2.99 10.285-5.93.607.007 1.123.381 1.595.413.865.059 2.01-1.725 1.148-2.275-3.153-2.013-7.078-2.247-10.48-1.127-6.346 2.09-11.044 6.974-10.294 13.738 3.843-.036 5.322-3.21 7.746-4.818m112.482 3.925c.259-9.878-9.85-14.395-17.317-12.523-1.33.25-2.235 2.845-1.514 3.083 6.643 2.196 12.092 6.003 18.831 9.44m-94.945 42.322c1.17.509 2.869.065 3.759-.934 2.56-2.874.091-13.845-6.409-17.912-4.818-3.014-10.872-3.753-15.719-.695-5.495 3.467-8.815 9.616-8.699 16.005.042 2.297 2.712 3.932 4.126 3.729 2.15-.309 3.607-2.067 3.484-4.58-.255-5.245 3.535-9.313 8.612-9.122 9.535.36 6.543 11.637 10.846 13.509m89.272-4.908c-.231 3.549 2.331 5.638 4.78 5.071 5.65-1.306 2.762-13.67-3.932-18.638-4.211-3.126-9.347-4.134-14.548-1.97-6.984 2.903-11.369 11.024-10.156 18.101.357 2.086 3.279 2.974 4.389 2.439 5.056-2.44.738-12.687 10.43-13.703 4.41-.462 9.428 2.697 9.037 8.7m-98.526 34.099c.872-.395 2.383-1.751 1.562-3.361-1.233-2.423-4.013-3.898-5.713-5.951 11.026-5.116 22.073-6.677 33.524-8.828 1.162-1.692-.069-6.566-2.232-6.433-13.954.861-26.42 5.171-38.748 10.244-14.72-5.583-29.997 1.913-33.335 16.67-.556 2.457.416 4.614 2.447 5.164 1.26.342 3.7-.548 4.082-2.386 2.045-9.85 11.336-16.194 21.396-13.794 10.118 2.414 12.17 10.87 17.017 8.675m68.171-16.395c7.238 2.096 15.593 3.645 23.244 7.937-1.26 1.648-3.395 3.453-3.365 5.874.021 1.609 2.148 2.618 3.408 2.277 3.775-1.022 9.895-11.499 21.704-8.946 5.965 1.29 11.909 5.934 13.519 12.989.532 2.332 1.427 3.843 3.832 3.843 2.183-.001 3.684-1.593 3.31-4.098-1.661-11.146-9.851-18.869-20.925-19.892-5.243-.484-10.083.708-14.765 2.457-11.585-5.086-23.385-9.604-36.023-10.131-4.32-.181-9.372-.713-9.189 2.979.195 3.935 7.468 2.458 15.25 4.711m-80.74 31.593c2.562-2.945.537-7.346-1.34-9.278-2.231-2.296-5.053-3.681-8.448-2.906-1.967.449-3.59 2.176-4.192 3.433-.921 1.924-.82 3.956.525 6.154 2.532 4.139 10.11 6.439 13.454 2.597m126.565-1.757c2.968-3.952 1.673-7.662-.988-9.546-2.695-1.908-6.071-1.483-8.914.758-3.211 2.532-6.076 8.724-2.011 11.671 3.237 2.346 9.777-.038 11.913-2.883"/><path fill="#7fbe57" d="M219.992 250.804c.002 3.802 2.338 6.891 3.919 10.028l3.833 7.605c4.789-2.218-.496-7.355 3.253-8.592.22 1.403.993 1.895 2.263 2.064 4.534.603 7.821 7.207 10.676 6 3.008-1.272 2.624-5.499 2.799-7.67 15.039 13.588 40.768 54.48 32.094 71.661-4.432 8.78-13.944 12.181-22.901 12.1-1.486-10.214 5.755-13.275-.167-14.81l-5.984 4.982c-.189-7.606-1.741-15.13-3.219-23.25l4.897-5.276c.115-1.993-.72-4.515-.144-6.552 1.084-3.829-.84-6.327-1.671-9.414-.941-3.493-.172-7.451-3.366-9.921-4.041 6.118-3.469 12.372-2.338 19.469-2.682-3.628-2.361-7.911-4.158-12.147l-6.471-15.248c-1.055-2.487-4.343-1.367-5.309-.262-1.387 1.586-1.036 3.52-.19 5.543 7.777 18.591 12.864 37.542 14.276 57.852 1.294 18.624.867 36.821-4.743 54.177-2.011 6.219-7.129 10.05-13.423 10.67-11.381 1.12-22.388.966-33.924.328-11.699-.648-16.117-10.101-17.65-21.518 5.214-1.721 10.278-2.675 14.437-5.925 2.12-1.657.317-5.186-1.533-7.403 11.118-6.28 17.818-17.822 21.149-30.965-34.166 6.673-68.623 6.599-103.9-.549 2.03 13.369 9.91 25.468 21.619 31.67-1.727 1.904-3.924 5.425-1.647 7.171 4.138 3.173 9.67 4.341 14.558 5.968l-3.358 11.183c-1.549 5.162-6.292 9.149-12.063 9.93-11.912 1.613-24.135.968-36.226-.081-10.857-.943-15.588-10.561-17.259-21.83-5.292-35.7-.368-71.747 13.75-104.382-1.007-.72-1.23-2.012-.88-2.541 3.916-5.914 7.561-12.274 9.902-19.133 8.938 2.751 18.005 5.338 27.172 6.943l-.009 1.404c-4.395 7.958-8.16 15.93-10.485 24.765 31.572 7.531 63.429 8.019 93.928-.063-3.144-10.08-7.079-17.953-11.334-25.919 10.131-1.822 20.376-3.939 29.827-8.062m33.529 23.4c.754-2.546.798-4.192-1.095-5.101-1.039-.499-2.751.269-3.657 1.863-.914 1.606-1.581 6.197-.261 7.52 2.379 1.533 4.362-2.087 5.013-4.282m-46.2 54.215c.986-13.157-.208-25.502-4.107-38.183-31.9 8.731-64.907 8.418-97.329-.415-3.59 12.789-5.635 25.612-4.484 37.985 35.858 7.031 71.088 7.318 105.92.613"/><path fill="#fcf7e4" d="M45.96 178.962c-.024 2.07 1.648 3.474 3.805 4.373 13.697 5.711 28.17 7.879 43.103 8.551 3.226 14.994 10.654 27.352 22.277 36.898 29.624 24.33 73.389 16.002 92.751-17.066 3.63-6.201 5.972-12.535 8.261-19.741 14.675-.616 28.727-2.855 42.087-8.642 2.264-.981 3.056-2.773 3.742-4.164l9.511-4.102c-.223 41.05-32.179 63.891-70.256 73.371-32.91 8.194-67.206 7.355-99.891-1.729-35.388-9.835-65.053-33.639-64.689-71.731z"/><path fill="#f1e682" d="M185.248 365.295c-18.849 10.644-42.301 10.13-61.132.156-11.709-6.202-19.589-18.301-21.619-31.67 35.277 7.148 69.734 7.222 103.9.549-3.331 13.143-10.031 24.685-21.149 30.965"/><path fill="#f2e683" d="M190.165 258.866c4.255 7.966 8.19 15.839 11.334 25.919-30.499 8.082-62.356 7.594-93.928.063 2.325-8.835 6.09-16.807 10.485-24.765l.009-1.404c23.906 4.183 48.216 4.483 72.1.187"/><path fill="#78ba53" d="M86.148 249.894c-3.22 5.001-7.19 9.663-8.326 16.156-.19 1.086.51 3.207-.754 3.841-1.993 1.001-3.016 2.911-3.839 5.352-2.07 6.149-5.188 11.708-6.158 17.702-.717.218-1.237-.326-1.45-1.146.729-2.228.936-5.894-.188-8.564-.576-1.366-2.742.792-3.312 1.851-3.331 6.183-3.42 12.593-4.893 19.292-.727 3.307 2.473 4.693 4.96 6.333-1.44 8.6-2.959 17.176-3.112 25.052l-2.222-.01c-.033-2.159-2.135-4.908-4.092-6.418-1.4-1.081-2.775.015-3.35.731-2.12 2.642 2.633 7.002.614 13.795-7.087-.213-14.617-3.249-19.105-9.861-12.092-17.815 16.06-57.334 28.92-74.298.157-.139.218-.555.131-.818 5.754-2.365 9.627-9.285 16.235-13.733z"/><path fill="#4ea145" d="M281.25 368.757c.314 1.72-.599 2.654-1.285 3.661-1.315 1.931-2.378 1.278-4.362 1.034-9.159-1.125-18.308-2.505-25.751-7.957l.626-14.017 7.846.238c6.399 7.626 13.98 14.011 22.926 17.041"/><path fill="#266f30" d="M240.918 252.978c1.702.461 2.692 2.799 4.181 3.637-.167.721.122 1.354.184 1.867.118.985-1.419.758-1.201.037.688-2.285-2.262.836-6.236-3.744-1.129-1.303-3.903.262-4.775 1.751-1.181 2.017-.939 3.235.189 5.383-1.27-.169-2.043-.661-2.263-2.064-.132-.458-.299-.759-.641-.875-.642-.218-1.216-.059-1.503 1.227-.309 1.388-3.927 1.82-4.942.635-1.581-3.137-3.917-6.226-3.919-10.028l11.105-4.845c.095.676-.632 1.357-1.04 1.687 3.872 1.937 7.183 4.334 10.861 5.332"/><path fill="#499543" d="M90.893 251.736c-2.341 6.859-5.986 13.219-9.902 19.133l-3.923-.978c1.264-.634.564-2.755.754-3.841 1.136-6.493 5.105-11.155 8.326-16.156a36 36 0 0 0 4.745 1.842"/><path fill="#10481b" d="M245.099 256.615c1.504.847 1.787 1.741 1.636 3.624-.175 2.171.209 6.398-2.799 7.67-2.855 1.207-6.142-5.397-10.676-6-1.128-2.148-1.37-3.366-.189-5.383.872-1.489 3.646-3.054 4.775-1.751 3.974 4.58 6.924 1.459 6.236 3.744-.218.721 1.319.948 1.201-.037-.062-.513-.351-1.146-.184-1.867"/><path fill="#4b993f" d="M155.487 43.888c-2.607.076-5.429-.317-8.576.695l17.892.384c.255-.276.292-.851.176-1.085 1.449-.21 2.401.463 3.296.794-2.825-1.51-2.869 2.843-.026 1.194.823 1.21.97 4.239.354 5.702-1.134 2.695-4.136.71-5.542.709-2.907-.004-5.636 1.13-8.095.758l-.956-7.221c-1.863 1.571-3.199 1.122-5.451 1.194-1.33.042-2.114-1.433-2.563-3.336 3.019-.613 6.433-1.353 9.491.212"/><path fill="#d9d8d3" d="M60.74 102.036c-1.428 2.196-1.923 4.695-2.185 7.587-.467 5.165-2.404 9.452-4.038 13.631-5.671-5.844-.024-17.822 5.294-25.556.356 1.986-.268 3.496.93 4.338"/><path fill="#081c0d" d="m56.854 335.753.1 8.316-6.928-.208c2.02-6.793-2.734-11.153-.613-13.795.574-.716 1.948-1.812 3.35-.731 1.956 1.51 4.058 4.259 4.091 6.418"/><path fill="#2d762f" d="M145.996 43.676c.449 1.903 1.233 3.378 2.563 3.335 2.252-.07 3.588.378 5.451-1.193l.956 7.221-1.504.907c-.322.195-1.357-1.25-1.736-1.538-2.87-2.169-6.367-1.229-9.745-1.533-2.344-.212-3.184-4.4-2.819-5.956 1.926-.928 4.74-.818 6.834-1.243"/><path fill="#398639" d="M255.928 344c-1.948-.018-3.919.196-5.925-.7l-.226-9.128 5.984-4.982c5.922 1.535-1.319 4.596.167 14.81"/><path fill="#57ab49" d="M240.918 252.978c-3.678-.998-6.989-3.395-10.861-5.332.408-.33 1.135-1.011 1.04-1.687 1.212-.529 2.234-.952 3.591.443z"/><path fill="#162815" d="M67.07 292.945c-.564 3.489-1.507 7.253-3.512 10.306-1.93-2.965.845-5.209 1.215-7.047.425-2.104.51-3.369.848-4.405.213.82.733 1.364 1.45 1.146"/><path fill="#5fb24d" d="M155.487 43.888c3.087-.09 6.386.445 9.492-.006.116.234.079.809-.176 1.085l-17.892-.384c3.147-1.012 5.969-.619 8.576-.695"/><path fill="#133217" d="m59.076 335.763-.156 8.029c-.539.345-1.577.289-1.965.277l-.1-8.316z"/><path fill="#040404" d="M261.986 179.171c-.686 1.391-1.478 3.183-3.742 4.164-13.36 5.787-27.412 8.026-42.087 8.642-2.289 7.206-4.631 13.54-8.261 19.741-19.362 33.068-63.127 41.396-92.751 17.066-11.623-9.546-19.05-21.904-22.277-36.898-14.932-.672-29.406-2.84-43.103-8.551-2.157-.899-3.829-2.303-3.805-4.373.032-1.566.943-2.745 2.34-3.324 1.544-.64 2.75-.133 4.475.599 26.182 11.122 59.991 9.919 88.166 3.658 9.426-2.095 17.656-2.076 27.127-.035 27.179 5.855 60.869 7.989 85.653-3.206 1.36-.614 3.785-1.677 5.42-.868 1.144.566 2.05 1.572 2.845 3.385m-104.144 6.762-.256 9.742c-.057 2.183-1.937 2.635-3.454 2.941-.877.178-3.087.014-3.186-1.637l-.667-11.044-17.467 3.203c.856 5.448 2.222 12.646 8.241 14.894 8.137 3.039 18.804 3.363 26.786-.165 5.572-2.463 6.667-9.655 7.664-14.754-6.55-1.778-11.422-2.408-17.661-3.18m22.685 42.571c-13.233-12.863-39.613-12.66-52.791-.145 16.064 9.528 35.788 10.512 52.791.145"/><path fill="#040603" d="M110.002 132.592c-4.847 2.195-6.899-6.261-17.017-8.675-10.06-2.4-19.35 3.944-21.396 13.794-.381 1.838-2.822 2.728-4.082 2.386-2.031-.55-3.003-2.707-2.447-5.164 3.338-14.757 18.615-22.253 33.335-16.67 12.328-5.073 24.794-9.383 38.748-10.244 2.163-.133 3.394 4.741 2.232 6.433-11.451 2.151-22.498 3.712-33.524 8.828 1.7 2.053 4.48 3.528 5.713 5.951.821 1.61-.69 2.966-1.562 3.361"/><path fill="#040703" d="M178.173 116.197c-1.897-1.586-2.882-3.711-4.282-6.062-1.147.388-2.354-.126-1.779-1.628 12.638.527 24.438 5.045 36.023 10.131 4.682-1.749 9.522-2.941 14.765-2.457 11.074 1.023 19.264 8.746 20.925 19.892.374 2.505-1.127 4.097-3.31 4.098-2.405 0-3.3-1.511-3.832-3.843-1.61-7.055-7.554-11.699-13.519-12.989-11.809-2.553-17.929 7.924-21.704 8.946-1.26.341-3.387-.668-3.408-2.277-.03-2.421 2.105-4.226 3.365-5.874-7.651-4.292-16.006-5.841-23.244-7.937"/><path fill="#050604" d="M119.256 103.401c-4.303-1.872-1.311-13.149-10.846-13.509-5.077-.191-8.867 3.877-8.612 9.122.123 2.513-1.335 4.271-3.484 4.58-1.414.203-4.084-1.432-4.126-3.728-.116-6.39 3.204-12.54 8.699-16.006 4.847-3.058 10.901-2.32 15.719.695 6.5 4.067 8.969 15.037 6.409 17.912-.89.999-2.589 1.443-3.759.934"/><path fill="#050705" d="M208.528 98.493c.391-6.003-4.627-9.161-9.037-8.7-9.692 1.016-5.374 11.263-10.43 13.703-1.11.535-4.032-.353-4.389-2.439-1.213-7.077 3.172-15.198 10.156-18.102 5.201-2.163 10.337-1.155 14.548 1.971 6.694 4.968 9.582 17.332 3.932 18.638-2.449.567-5.011-1.522-4.78-5.07"/><path fill="#030402" d="M223.998 146.033c-2.136 2.845-8.676 5.229-11.913 2.883-4.065-2.947-1.2-9.139 2.011-11.671 2.843-2.241 6.219-2.666 8.914-.758 2.661 1.884 3.956 5.594.988 9.546"/><path fill="#030403" d="M97.432 147.79c-3.344 3.842-10.922 1.542-13.454-2.597-1.346-2.198-1.446-4.23-.525-6.154.602-1.257 2.225-2.984 4.192-3.433 3.395-.775 6.217.61 8.448 2.906 1.877 1.932 3.902 6.333 1.34 9.278"/><path fill="#050703" d="M214.201 61.079c-6.739-3.437-12.188-7.244-18.831-9.44-.721-.238.184-2.834 1.514-3.083 7.467-1.872 17.576 2.645 17.317 12.523"/><path fill="#94b57a" d="M102.939 51.004c-1.44 1.773-1.972 3.756-1.22 6.15-2.424 1.61-3.903 4.782-7.746 4.82-.75-6.764 3.948-11.65 10.294-13.739-.099 1.033-.614 1.89-1.328 2.77"/><path fill="#0a0c09" d="M112.004 51.224c-2.494 2.94-6.984 3.74-10.285 5.93-.752-2.394-.22-4.377 1.22-6.15 2.617-1.711 6.408-1.54 9.065.22"/><path fill="#7b9f68" d="M172.112 108.507c-.575 1.502.632 2.016 1.779 1.628 1.4 2.351 2.385 4.476 4.282 6.062-7.782-2.253-15.055-.776-15.25-4.711-.183-3.692 4.869-3.16 9.189-2.979"/><path fill="#f1e782" d="M207.321 328.419c-34.832 6.705-70.062 6.418-105.92-.613-1.151-12.373.894-25.196 4.484-37.985 32.422 8.833 65.429 9.146 97.329.415 3.899 12.681 5.093 25.026 4.107 38.183"/><path fill="#0b2611" d="M253.521 274.204c-.651 2.195-2.634 5.815-5.013 4.282-1.32-1.323-.653-5.914.261-7.52.906-1.594 2.618-2.362 3.657-1.863 1.893.909 1.849 2.555 1.095 5.101"/><path fill="#499440" d="M230.997 259.845c-3.749 1.237 1.536 6.374-3.253 8.592l-3.833-7.605c1.015 1.185 4.633.753 4.942-.635.287-1.286.861-1.445 1.503-1.227.342.116.509.417.641.875"/><path fill="#f3b7b6" d="M180.527 228.504c-17.003 10.367-36.727 9.383-52.791-.145 13.178-12.515 39.558-12.718 52.791.145"/><path fill="#f9f9f9" d="M157.842 185.933c6.239.772 11.111 1.402 17.661 3.18-.997 5.099-2.092 12.291-7.664 14.754-7.982 3.528-18.649 3.204-26.786.165-6.019-2.248-7.385-9.446-8.241-14.894l17.467-3.203.667 11.044c.099 1.651 2.309 1.815 3.186 1.637 1.517-.306 3.397-.758 3.454-2.941z"/><path fill="#b1d299" d="M112.004 51.224c-2.657-1.76-6.448-1.931-9.065-.22.714-.878 1.229-1.736 1.328-2.769 3.402-1.12 7.327-.886 10.48 1.127.862.55-.283 2.334-1.148 2.275-.472-.032-.988-.406-1.595-.413"/></svg>