<svg xmlns="http://www.w3.org/2000/svg" viewBox="20.7 21.4 373.4 386.0" width="373" height="386"><path fill="#050606" d="M237.523 405.221c-12.279-1.287-20.4-8.431-22.002-19.955l-1.643-11.813c-2.036-.238-3.54-.253-5.246.249-.554 15.015-5.474 28.833-20.028 30.976-15.908 2.342-32.269 2.307-48.194-.075-22.829-3.414-24.344-35.917-24.511-58.788-18.323 3.137-41.902-3.762-42.981-21.905-1.906-32.032 29.414-74.418 55.246-94.498-9.597-7.036-16.591-15.541-22.021-26.014-24.533 4.228-47.53-5.516-63.57-24.193-23.494-29.199-27.483-70.573-10.19-103.514 18.843-35.896 63.202-47.285 96.591-24.558 39.474-37.566 118.135-38.836 158.344-.648 33.443-21.533 76.047-10.45 94.836 24.508 17.481 32.523 13.735 73.288-8.453 102.565-14.194 18.73-35.582 27.796-58.635 26.983 3.223 7.925 6.729 14.259 11.916 20.435 3.348 3.986 3.714 9.651.632 13.671-3.231 4.216-7.376 6.951-12.181 10.525 17.074 19.67 35.435 46.994 35.118 72.427-.254 20.384-23.539 26.814-43.521 24.276l-1.439 20.767c-1.173 16.937-7.164 36.322-24.648 38.415-14.301 1.711-28.507 1.728-43.42.164m75.353-189.118c.757-2.414 1.698-4.509.935-7.348-.566-2.106-2.012-4.219-4.72-4.796-2.217-.473-4.636-1.339-6.906-.569 3.576-7.339 6.353-14.963 7.825-23.378l2.797-15.978c1.639-22.461.583-44.29-5.116-65.574-8.071-30.142-29.192-52.902-58.989-62.386-29.653-9.44-61.701-8.332-90.369 4.202-22.026 9.63-38.09 27.287-46.038 49.811-10.724 30.392-11.815 63.237-4.978 94.963 7.733 35.884 42.727 53.988 76.997 59.513 13.27 2.14 26.138 3.483 40.105 1.451-5.538-3.612-10.585-6.601-15.352-10.995-48.918.086-60.52-53.369-51.592-53.642l18.394-.564c-1.672-8.346-3.095-17.147-.221-25.424 2.148-6.186 8.472-9.224 14.898-10.984 1.101-.302 1.721 2.795 1.228 3.931-1.192 2.754-11.352 4.106-10.515 17.836 3.405 55.792 56.903 94.533 110.023 85.278 15.66-2.728 34.153-15.007 31.451-20.367-2.734-5.426-7.859-9.591-9.857-14.98M98.268 177.274c-5.285-34.689-3.078-72.837 13.181-103.703 3.177-6.03 6.967-11.082 11.915-17.276C96.013 38.19 59.08 46.16 41.494 74.79c-19.377 31.544-15.766 73.794 8.725 101.776 13.387 15.294 32.516 22.58 52.555 19.966-2.105-6.651-3.51-12.728-4.506-19.257M304.85 72.052c13.07 23.28 17.468 53.679 15.326 80.283-7.759 4.938-6.664 22.595-5.731 23.713.547.655 1.865 1.153 3.004 1.252.283 6.23-1.755 12.183-4.051 19.231 19.817 2.716 38.706-5.232 51.912-20.359 25.645-29.375 27.854-78.073 3.473-107.775-18.78-22.877-50.465-28.394-75.569-12.791 4.168 5.222 8.332 10.56 11.636 16.446M182.222 200.923c-2.09-5.612-3.832-9.21-5.004-14.199l-14.056.062c.736 3.862 3.647 5.102 5.974 7.094 3.939 3.373 7.146 7.62 13.086 7.043m18.107 26.726-8.419-10.758c-3.38 1.019-5.985 2.279-8.14 4.91 5.493 3.052 10.305 4.661 16.559 5.848M80.154 321.011c-.066 12.384 12.682 17.943 24.649 18.052 3.437.031 6.899.527 10.772-.663.949-24.387 6.422-47.932 16.393-70.33 1.029-2.31 4.368-2.041 5.656-.511 1.025 1.217 1.461 3.141.447 5.508-9.065 21.152-13.59 42.822-15.084 65.95-1.016 15.732 1.436 43.919 9.741 53.336 4.503 5.106 11.515 6.141 18.267 5.824.306-.015.806.103 1.053.249 11.438.766 32.157 1.178 39.884-2.495 7.767-3.691 8.671-13.206 9.794-22.948-9.286-1.84-18.136-4.137-14.518-9.157 3.631-5.039 16.82 8.886 44.86-1.61 1.745-.653 3.36 1.444 3.622 2.534.411 1.707-.325 4.045-2.357 4.641l-12.097 3.542c.8 9.921 2.182 19.762 9.808 23.051 4.736 2.041 10.263 2.697 15.959 2.687l23.528-.044c2.361.57 1.317 3.767 3.399 4.772.618.298 2.222.234 3.151-.218l9.963-4.849c1.022-.617 1.945-1.638 2.615-2.32 1.006-1.021.235-3.143.459-3.975 8.291-10.346 9.118-30.444 9.346-46.108.371-25.473-4.447-49.652-14.469-72.88-1.091-2.527-.645-4.563.973-5.717 2.552-1.82 4.971-.043 6.035 2.703 6.617 17.092 12.292 34.179 13.921 52.015.174 1.897.863 3.422.928 5.181l.392 10.431c.056 1.499 1.652.957 2.157 1.089 2.433.64 6.829.675 9.66.425 4.811-.424 10.311-.965 14.001-3.894.067-.3.598-.491.921-.199 6.09-2.244 9.567-7.92 9.466-14.143-.377-23.141-18.369-49.635-34.214-68.095-23.507 11.292-50.234 8.915-72.692-.922l-15.539 3.08c-5.354-1.338-13.759-1.159-19.303-.144-23.717-2.003-47.174-7.884-67.915-21.09-24.475 19.494-53.474 57.646-53.632 87.242"/><path fill="#0077c3" d="M302.185 203.39c-3.375 1.145-6.649 2.157-7.334 5.899-11.966 3.706-25.363 1.588-35.494-7.138 3.567-9.967 6.436-21.208-.285-21.308l-13.897-.207c-4.765-14.137-.1-26.304-13.041-33.885-4.457-2.612-9.567-3.958-14.772-4.516-10.754 7.063 17.194 5.392 17.724 19.812.405 11.031 2.339 21.514 7.72 31.165 8.572 15.372 24.445 24.94 42.13 25.017 6.338.027 13.028-2.159 10.969-5.101l8.141-3.026c.553.13 1.783.631 2.177.931l6.653 5.07c1.998 5.389 7.123 9.554 9.857 14.98 2.702 5.36-15.791 17.639-31.451 20.367-53.12 9.255-106.618-29.486-110.023-85.278-.837-13.73 9.323-15.082 10.515-17.836.493-1.136-.127-4.233-1.228-3.931-6.426 1.76-12.75 4.798-14.898 10.984-2.874 8.277-1.451 17.078.221 25.424l-18.394.564c-8.928.273 2.674 53.728 51.592 53.642 4.767 4.394 9.814 7.383 15.352 10.995-13.967 2.032-26.835.689-40.105-1.451-34.27-5.525-69.264-23.629-76.997-59.513-6.837-31.726-5.746-64.571 4.978-94.963 7.948-22.524 24.012-40.18 46.038-49.81 28.668-12.535 60.716-13.642 90.369-4.203 29.797 9.484 50.918 32.243 58.989 62.386 5.699 21.284 6.755 43.113 5.116 65.574l-2.797 15.978c-1.472 8.415-4.249 16.039-7.825 23.378m-129.713-63.953c2.334-.42 3.622-2.771 3.401-5.396-.773-9.206-7.597-16.501-16.363-16.519-8.915-.017-15.519 7.213-16.373 16.539-.244 2.656.974 4.896 3.386 5.405 1.669.353 4.49-.96 4.262-3.399-.555-5.942 3.021-10.404 8.699-10.443 11.436-.077 6.053 15.06 12.988 13.813m94.076-4.391c-.14 2.441 1.78 4.593 3.942 4.558 2.192-.034 3.981-1.98 3.888-4.616-.285-8.101-5.125-15.671-13.388-17.196-10.233-1.889-18.346 6.139-19.491 15.808-.31 2.61.572 4.599 2.203 5.448 2.331 1.215 5.698-.415 5.53-2.969-.368-5.629 3.034-10.179 8.279-10.49 4.927-.292 9.364 3.779 9.037 9.457"/><path fill="#0076c3" d="M201.701 254.859c-13.56 2.485-25.265 12.15-32.848 23.865-6.721 10.383-9.258 21.889-9.486 34.316-.338 18.392 10.891 34.453 28.499 40.181 16.028 5.214 33.654 5.171 49.252-.973 16.315-6.426 26.05-21.847 25.485-39.197-.288-8.829-1.514-16.807-4.94-24.857-6.811-16.005-19.691-28.951-36.659-33.191l15.539-3.08c22.458 9.837 49.185 12.214 72.692.922 15.845 18.46 33.837 44.954 34.214 68.095-2.437-1.408-4.9-2.01-7.344-.418-1.829 1.191-3.605 3.617-3.21 6.505l1.088 8.056c-.323-.292-.854-.101-.921.199-.883-3.765-3.378-9.01-8.01-8.584-6.203.571-7.722 7.682-5.991 12.478-2.831.25-7.227.215-9.66-.425-1.453-3.513 5.732-.11 5.811-2.228l.129-3.43c1.116-2.41.906-4.085-.368-6.096-.875-1.38-.653-3.839-1.311-5.756-.489-1.428-3.3-1.928-4.871-.915-.789.508-1.149 2.341-2.867 1.724-1.629-17.836-7.304-34.923-13.921-52.015-1.064-2.746-3.483-4.523-6.035-2.703-1.618 1.154-2.064 3.19-.973 5.717 10.022 23.228 14.84 47.407 14.469 72.88-.228 15.664-1.055 35.762-9.346 46.108-3.375-2.782-4.647-7.975-10.588-7.244-7.527.928-6.269 8.29-9.191 12.765-.078-6.289-3.017-12.478-9.197-13.612-4.098-.753-7.11 1.593-8.816 3.893-2.245 3.026-2.481 6.2-2.532 10.385-2.946-3.323-1.621-11.996-9.363-13.047-5.594-.759-9.262 4.19-9.387 10.807-7.626-3.289-9.008-13.13-9.808-23.051l12.097-3.542c2.032-.596 2.768-2.934 2.357-4.641-.262-1.09-1.877-3.187-3.622-2.534-28.04 10.496-41.229-3.429-44.86 1.61-3.618 5.02 5.232 7.317 14.518 9.157-1.123 9.742-2.027 19.257-9.794 22.948-.263-4.248-2.541-10.104-7.988-10.645-6.435-.639-9.848 6.218-9.478 12.266-2.705-2.155-1.735-5.527-2.983-7.79-2.192-3.977-5.579-6.194-9.944-5.708-3.181.354-7.14 2.968-7.946 6.739l-1.545 7.633c-.247-.146-.747-.264-1.053-.249-.064-7.2-2.949-13.584-8.52-13.722-3.434-.086-5.943 2.263-7.944 5.225l-1.803 2.673c-8.305-9.417-10.757-37.604-9.741-53.336 1.494-23.128 6.019-44.798 15.084-65.95 1.014-2.367.578-4.291-.447-5.508-1.288-1.53-4.627-1.799-5.656.511-9.971 22.398-15.444 45.943-16.393 70.33-3.873 1.19-7.335.694-10.772.663 1.082-4.211.244-10.803-5.01-11.548-3.853-.547-6.9 3.859-8.464 6.75l-.57-8.016c-.18-2.525-1.964-4.583-3.883-5.641-2.1-1.157-4.551-.266-6.722.403.158-29.596 29.157-67.748 53.632-87.242 20.741 13.206 44.198 19.087 67.915 21.09"/><path fill="#2a90d0" d="M221.004 255.003c16.968 4.24 29.848 17.186 36.659 33.191 3.426 8.05 4.652 16.028 4.94 24.857.565 17.35-9.17 32.771-25.485 39.197-15.598 6.144-33.224 6.187-49.252.973-17.608-5.728-28.837-21.789-28.499-40.181.228-12.427 2.765-23.933 9.486-34.316 7.583-11.715 19.288-21.38 32.848-23.865 5.544-1.015 13.949-1.194 19.303.144"/><path fill="#d61919" d="M111.449 73.57c-16.259 30.867-18.466 69.015-13.18 103.704-11.769.839-23.344-3.364-32.518-12.436-22.529-22.279-24.038-60.794-2.922-84.746 12.677-14.38 33.454-16.299 48.62-6.521"/><path fill="#d61717" d="M317.448 177.3c-1.139-.099-2.457-.597-3.004-1.252-.933-1.118-2.028-18.775 5.731-23.713 2.142-26.604-2.256-57.004-15.326-80.283 19.411-10.288 41.98-3.398 53.649 15.862 14.053 23.196 11.298 54.074-6.665 74.748-8.976 10.331-21.578 15.751-34.385 14.638"/><path fill="#0076c4" d="M111.449 73.57c-15.166-9.777-35.943-7.857-48.62 6.522-21.116 23.952-19.607 62.467 2.922 84.746 9.174 9.072 20.75 13.275 32.517 12.436.995 6.529 2.401 12.606 4.506 19.257-20.039 2.614-39.168-4.672-52.555-19.966-24.49-27.982-28.102-70.232-8.726-101.776 17.587-28.63 54.52-36.599 81.871-18.494-4.948 6.194-8.738 11.246-11.915 17.276"/><path fill="#0078c3" d="M317.448 177.3c12.807 1.113 25.409-4.307 34.385-14.638 17.963-20.674 20.718-51.552 6.665-74.748-11.669-19.26-34.238-26.15-53.649-15.862-3.304-5.885-7.468-11.224-11.636-16.446 25.104-15.603 56.789-10.086 75.569 12.79 24.381 29.703 22.172 78.401-3.473 107.776-13.206 15.127-32.095 23.075-51.912 20.359 2.296-7.048 4.334-13.001 4.051-19.231"/><path fill="#f9fafb" d="M191.932 395.931c-7.727 3.673-28.446 3.261-39.884 2.495l1.545-7.633c.806-3.771 4.765-6.385 7.946-6.739 4.365-.486 7.752 1.731 9.944 5.708 1.248 2.263.278 5.635 2.983 7.79-.37-6.048 3.043-12.905 9.478-12.266 5.447.541 7.725 6.397 7.988 10.645"/><path fill="#f8f9f9" d="M104.803 339.063c-11.967-.109-24.715-5.668-24.649-18.052 2.17-.669 4.623-1.56 6.722-.403 1.92 1.058 3.703 3.116 3.882 5.641l.571 8.016c1.565-2.891 4.61-7.297 8.464-6.75 5.254.745 6.092 7.337 5.01 11.548"/><path fill="#fafafb" d="M150.995 398.177c-6.752.317-13.764-.718-18.267-5.824l1.803-2.673c2.001-2.962 4.51-5.311 7.944-5.225 5.571.138 8.456 6.522 8.52 13.722"/><path fill="#f6f6f7" d="M182.222 200.923c-5.94.577-9.147-3.67-13.086-7.043-2.327-1.992-5.238-3.232-5.974-7.094l14.056-.062c1.172 4.989 2.914 8.587 5.004 14.199"/><path fill="#fafbfc" d="M333.062 335.282c-3.69 2.929-9.19 3.47-14.001 3.894-1.731-4.796-.212-11.907 5.991-12.478 4.632-.426 7.127 4.819 8.01 8.584"/><path fill="#f8fafb" d="M343.449 320.94c.101 6.223-3.376 11.899-9.466 14.143l-1.088-8.056c-.395-2.888 1.381-5.314 3.21-6.505 2.444-1.592 4.907-.99 7.344.418"/><path fill="#5c93ca" d="M309.091 203.959c.825 2.396-3.107 2.968-2.868 7.074-.394-.3-1.624-.801-2.177-.931l-8.141 3.026c-.47-1.144-1.262-2.706-1.054-3.839.685-3.742 3.959-4.754 7.334-5.899 2.27-.77 4.689.096 6.906.569"/><path fill="#cf0208" d="M200.329 227.649c-6.254-1.187-11.066-2.796-16.559-5.848 2.155-2.631 4.76-3.891 8.14-4.91z"/><path fill="#0062a7" d="M314.973 326.997c1.274 2.011 1.484 3.686.368 6.096l-.129 3.43c-.079 2.118-7.264-1.285-5.811 2.228-.505-.132-2.101.41-2.157-1.089l-.392-10.431c2.853.487 5.653 1.303 8.121-.234m-1.418 2.403c-2.015-.555-3.1-.796-4.942-.413 1.398 1.384 2.842 1.226 4.608 1.989 1.87.768 2.115-1.48.334-1.576"/><path fill="#f8f8f9" d="m312.876 216.103-6.653-5.07c-.239-4.106 3.693-4.678 2.868-7.074 2.708.577 4.154 2.69 4.72 4.796.763 2.839-.178 4.934-.935 7.348"/><path fill="#00335f" d="M314.973 326.997c-2.468 1.537-5.268.721-8.121.234-.065-1.759-.754-3.284-.928-5.181 1.718.617 2.078-1.216 2.867-1.724 1.571-1.013 4.382-.513 4.871.915.658 1.917.436 4.376 1.311 5.756"/><path fill="#f9fafb" d="M290.118 392.037c-.224.832.547 2.954-.459 3.975-.67.682-1.593 1.703-2.615 2.32-1.117-.607-.68-.941-.441-1.284.57-.82 1.477-.982 2.212-1.157 1.192-1.107-.51-2.196-.904-.92-5.523 3.252-11.855 3.645-17.38 3.656l-23.528.044c-5.696.01-11.223-.646-15.959-2.687.125-6.617 3.793-11.566 9.387-10.807 7.742 1.051 6.417 9.724 9.363 13.047.051-4.185.287-7.359 2.532-10.385 1.706-2.3 4.718-4.646 8.816-3.893 6.18 1.134 9.119 7.323 9.197 13.612 2.922-4.475 1.664-11.837 9.191-12.765 5.941-.731 7.213 4.462 10.588 7.244"/><path fill="#37455a" d="m287.044 398.332-9.963 4.849c-.929.452-2.533.516-3.151.218-2.082-1.005-1.038-4.202-3.399-4.772 5.525-.011 11.857-.404 17.38-3.656.394-1.276 2.096-.187.904.92-.735.175-1.642.337-2.212 1.157-.239.343-.676.677.441 1.284"/><path fill="#050606" d="M294.851 209.289c-.208 1.133.584 2.695 1.054 3.839 2.059 2.942-4.631 5.128-10.969 5.101-17.685-.077-33.558-9.645-42.13-25.017-5.381-9.651-7.315-20.134-7.72-31.165-.53-14.42-28.478-12.749-17.724-19.812 5.205.558 10.315 1.904 14.772 4.516 12.941 7.581 8.276 19.748 13.041 33.885l13.897.207c6.721.1 3.852 11.341.285 21.308 10.131 8.726 23.528 10.844 35.494 7.138m-38.748-22.813-8.766.117c1.675 3.766 2.989 6.182 5.387 8.668zM172.472 139.437c-6.935 1.247-1.552-13.89-12.988-13.813-5.678.039-9.254 4.501-8.699 10.443.228 2.439-2.593 3.752-4.262 3.399-2.412-.509-3.63-2.749-3.386-5.405.854-9.326 7.458-16.556 16.373-16.539 8.766.018 15.59 7.313 16.363 16.519.221 2.625-1.067 4.976-3.401 5.396"/><path fill="#040506" d="M266.548 135.046c.327-5.678-4.11-9.749-9.037-9.457-5.245.311-8.647 4.861-8.279 10.49.168 2.554-3.199 4.184-5.53 2.969-1.631-.849-2.513-2.838-2.203-5.448 1.145-9.669 9.258-17.697 19.491-15.808 8.263 1.525 13.103 9.095 13.388 17.196.093 2.636-1.696 4.582-3.888 4.616-2.162.035-4.082-2.117-3.942-4.558"/><path fill="#005592" d="M313.555 329.4c1.781.096 1.536 2.344-.334 1.576-1.766-.763-3.21-.605-4.608-1.989 1.842-.383 2.927-.142 4.942.413"/><path fill="#faf9fa" d="m256.103 186.476-3.379 8.785c-2.398-2.486-3.712-4.902-5.387-8.668z"/></svg>