<svg xmlns="http://www.w3.org/2000/svg" viewBox="20.0 20.2 273.3 445.7" width="273" height="446"><path fill="#dba400" d="M234.061 314.035c-2.159.537-3.138 1.592-3.104 3.474.04 2.265.978 3.773 2.041 5.454-.949-.716-1.728-2.151-3.118-1.21-6.028 2.017-12.283 3.742-16.017 9.115-4.846 6.972-2.979 15.539 2.816 21.585 4.218 4.402 12.469 6.301 17.306 1.559 6.72-6.587 5.315-16.123 3.044-24.081l4.261 5.045c1.238-1.357 2.918-1.048 4.385-.724 1.562.75 1.219 2.744-1.235 1.903l.531 2.77c-4.501 3.536-5.627 15.148-2.243 21.353 3.821 7.006 11.248 10.244 18.453 6.698 3.116 6.892 5.925 14.06 7.32 21.958 2.125 12.028-4.308 22.25-16.35 24.39l-8.887 1.58c-.637-3.853-.183-7.812-1.691-11.635-.474-1.202.826-2.797.4-4.344l-1.057-9.762c1.186-.004 2.481.844 3.437.501 3.201-1.147 6.747-8.987 2.769-13.179-2.153-2.269-6.175-2.938-9.282-1.371-.839-3.827-2.028-8.113-4.139-11.566-.588-.927-4.884.403-4.665 1.5l3.162 15.889c-7.07-.883-13.19 3.22-16.342 8.771-3.581 6.305-3.285 14.374 1.885 19.525 4.872 4.854 12.08 5.218 18.053 4.589.276 9.494-.917 19.404-2.969 28.811-1.962 8.989-7.561 14.64-16.868 14.539-16.756-.182-37.108 3.519-40.199-9.082l-2.53-10.311c7.014-1.657 14.041-4.153 12.3-7.961-1.172-2.565-3.035-2.47-5.306-1.519-14.446 6.052-30.582 5.589-45.179-.348-2.202-.896-4.095.915-4.448 2.522-.389 1.771.673 3.506 2.717 4.18l9.787 3.23-1.889 8.215c-1.323 5.752-5.355 9.935-11.342 10.66-9.952 1.205-19.727.579-29.863.297-13.265-.37-16.234-8.723-18.04-20.992 5.066.273 10.408-7.841 7.88-13.308-1.263-2.728-5.322-5.413-9.28-4.718l-.31-4.951c.782-.88 1.459-.792 2.752-.577 8.705 1.447 15.637-3.864 16.794-12.545 1.347-10.112-5.944-19.214-15.87-18.956l3.15-13.021c.337-1.393.381-3.129-.436-3.876-.804-.736-2.427-1.467-4.018-1.057-1.017.262-1.584 2.249-1.977 3.617l-4.376 15.259c-1.184-.085-1.394-1.097-.704-1.902-.523-2.197-2.339-3.92-4.01-3.831-2.42.129-3.442 2.293-3.735 4.757-.621 5.229 1.786 9.004 6.834 10.066-1.309 7.369-1.563 14.872-1.674 23.085-4.931.453-9.353-.565-13.779-2.334-18.763-7.501-10.935-29.675-3.303-46.829.598.237 1.471.348 1.649.045.267-.453.31-1.766 1.703-2.288.982 2.219 2.851 2.439 4.808 2.794 4.714.857 8.773-3.91 10.652-8.878 1.503-3.977 1.146-9.143-.2-13.281-.686-2.11-2.281-4.219-1.458-6.191-.068-.319-.215-.909-.057-1.338 1.8-.076 2.75-2.062 3.021-3.828h.991c.164.023.626.037 1.45-.128l1.13 9.279c5.774 5.011 12.251 6.571 19.288 3.612 10.951-4.604 14.338-19.271 8.108-27.153-2.231-2.823-6.338-4.5-11.034-4.815.295-1.143.19-2.117-.383-3.745 41.57 13.588 92.107 13.484 133.685-4.484zm-122.143 64.786c-.102-9.483 3.927-16.328 7.286-23.792-1.179-3.28-6.106-4.504-9.081-3.514-8.599 2.862-11.145 14.457-7.843 20.396 1.764 3.173 4.728 7.13 9.638 6.91m102.726-4.932c1.417-6.592-2.859-13.067-8.521-15.95-2.07-1.053-6.349-.268-5.94 1.912 1.469 7.833 4.201 14.629 4.483 22.991 4.268-1.323 8.955-4.188 9.978-8.953"/><path fill="#070605" d="M216.84 58.937c.18-.854-.342-2.02-.496-2.728-.305-1.397-2.104-1.916-3.575-1.462 5.335-2.597 9.938-5.45 10.814-10.922 1.005-6.284-1.665-12.186-7.612-14.694-6.099-2.573-13.201-.88-16.594 4.486-3.257 5.154-2.351 12.178 2.276 16.774.991.983-.077 3.298-.473 4.4l-7.585 21.1 11.807 4.807 2.683-8.47c.434-.032.963-.215 1.312-1.194 1.336 1.196 3.026 1.482 4.686.984l-2.102 12.654 8.19 5.973c14.714-20.943 41.299-28.646 64.076-18.122 5.107 2.36 8.288 5.626 8.082 11.545-.942 26.99-19.757 47.569-47.442 47.932.119 2.699.947 4.925 1.505 7.014-.302.796-.871.969-1.227 1.243-.125-1.445-.923-1.477-1.696-1.384-1.048.127-1.994.56-1.732 2.273.251.856.372 1.832-.862 1.956l-5.051-15.856c-8.29-26.024-28.536-42.775-56.292-47.754-1.093 10.859-11.155 20.673-20.859 24.024-5.131 1.772-6.234-5.855-8.324-7.63-1.246-1.057-6.528 3.255-10.238.685-1.754-1.216-.83-4.052-1.323-5.546 3.768-1.658 7.445-.282 13.858-4.927 3.174 3.167 3.508 6.395 4.143 11.682l9.458-6.675c5.838-4.12 7.048-12.592 6.372-20.383-.737-8.49-10.4-13.871-18.088-12.569-9.001 1.525-14.951 9.437-13.921 18.848.231 2.105-5.465 2.36-4.387 4.511.169.34-.897.927-1.245.64l-.14-1.606c-.044-.508-.854-1.338-1.838-1.107l-12.798 3c.443-2.544.224-4.733-.546-6.864l-6.976-19.292c-1.451-4.014-1.651-5.639 1.307-9.306 2.698-3.344 2.216-8.97.334-12.5-2.036-3.818-6.309-6.346-11.361-6.5-7.188-.217-12.76 5.128-13.564 11.714-.857 7.028 4.025 13.257 11.455 14.298.798 1.597 1.596 2.88 1.877 4.1l5.251 22.846c.515 2.242 1.041 4.55 1.038 6.818-9.84 5.423-17.084 13.625-23.94 22.64-2.622-.888-3.122-3.582-4.258-5.243l6.966-9.573C75.321 75.42 48.53 68.572 28.201 81.051c-1.242 25.747 17.714 45.511 43.239 43.721l3.532-8.161c.69-.768 1.503-2.134 2.688-2.297 1.382-.19 2.205 1.237 3.46 1.566-.035.255-.097.703.398 1.321-3.648 10.024-7.529 19.641-9.155 29.725-3.298 7.778-3.957 16.574-5.512 24.969-2.245 11.253-3.153 22.733-3.573 34.396-3.975 5.05-7.76 10.175-10.033 16.778-7.659 22.97-.947 47.473 17.623 63.132 31.16 26.277 89.154 28.576 129.1 19.99 13.631-2.93 25.45-7.868 36.809-15.401 21.695-14.388 31.932-40.657 24.007-65.529-2.138-6.711-5.065-13.68-10.879-18.001l-.141-15.128c1.741-5.426 4.112-11.272 2.911-17.024l1.479-.148c1.412 9.407 2.785 18.881 2.971 29.141 5.089 5.543 8.348 11.929 10.589 19.188 9.265 30.012-3.447 60.179-31.428 76.834 5.386 6.189 6.634 13.072 3.383 20.116l-5.608-6.204-4.805-9.492c-41.578 17.968-92.115 18.072-133.685 4.484-.372 3.255-1.061 5.585-3.167 7.359-5.761 4.854-10.613 10.271-15.392 15.591h-.99c-1.437-1.096-2.083-3.12-3.198-4.978 3.21-6.14 8.47-9.62 13.986-13.258 1.702-1.487 1.644-5.313 2.116-7.836-7.834-3.812-14.849-7.738-21.68-13.174-18.22-14.5-27.232-37.012-23.741-60.076 1.573-10.395 5.096-20.054 12.372-28.248 1.608-24.403 5.284-48.41 12.886-72.434-21.017.233-37.54-11.697-44.514-30.219-2.693-7.153-4.174-14.474-2.641-21.996.92-2.729 2.507-4.784 5.072-6.097 23.24-11.896 51.429-5.34 66.24 16.86l8.826-6.382-5.231-24.596c-9.534-3.092-14.84-11.46-13.71-20.98 1.07-9.012 8.286-16.02 17.806-17.127 7.911-.921 15.244 2.68 18.889 8.867 4.225 7.172 3.705 15.326-1.458 22.06l7.488 21.313c2.974-.221 5.405-.692 8.319-1.896 1.621-13.041 14.416-22.762 27.408-20.07 10.209 2.116 17.785 10.993 18.751 20.81l7.817 1.421 7.777-21.245c-6.03-6.646-6.127-15.583-1.387-22.916 4.428-6.852 13.041-10.15 21.886-7.757 8.539 2.31 14.247 10.104 14.423 18.625.176 8.516-5.325 16.186-13.684 18.289m15.994 46.991 6.007 10.17 3.486 8.684c25.923 1.283 43.295-17.959 42.648-43.65-20.775-12.67-46.823-5.408-59.871 14.688 3.097 3.337 5.63 6.551 7.73 10.108"/><path fill="#070605" d="M73 335.805c-.158.429-.01 1.019.057 1.338l-9.236 12.925c-3.245 4.738-5.61 9.683-7.918 14.874-7.632 17.154-15.46 39.328 3.303 46.829 4.426 1.769 8.848 2.787 13.779 2.334.11-8.213.365-15.716 1.674-23.085l1.615-9.09 4.376-15.259c.393-1.368.96-3.355 1.977-3.617 1.59-.41 3.214.321 4.018 1.057.817.747.773 2.483.436 3.876l-3.15 13.021c-2.551 10.544-4.344 21.424-3.676 32.078l.31 4.951c.373 5.944.515 12.02 1.4 18.026 1.806 12.269 4.775 20.622 18.04 20.992 10.136.282 19.911.908 29.863-.297 5.987-.725 10.019-4.908 11.342-10.66l1.889-8.215-9.787-3.23c-2.044-.674-3.106-2.409-2.717-4.18.353-1.607 2.246-3.418 4.448-2.522 14.597 5.937 30.733 6.4 45.179.348 2.271-.951 4.134-1.046 5.306 1.519 1.741 3.808-5.286 6.304-12.3 7.961l2.53 10.311c3.091 12.601 23.443 8.9 40.199 9.082 9.307.101 14.906-5.55 16.868-14.539 2.052-9.407 3.245-19.317 2.969-28.811-.323-11.095-1.439-22.051-3.596-32.885l-3.162-15.889c-.219-1.097 4.077-2.427 4.665-1.5 2.111 3.453 3.3 7.739 4.139 11.566l3.076 14.049 1.057 9.762c-2.992 5.052-5.319 16.317-3.145 18.327 1.593 1.472 3.815-1.419 4.436-2.348l8.887-1.58c12.042-2.14 18.475-12.362 16.35-24.39-1.395-7.898-4.204-15.066-7.32-21.958-4.402-9.742-9.736-19.299-16.21-28.051l-.531-2.77c2.454.841 2.797-1.153 1.235-1.903.893.003 1.877-.09 2.201-.792.157-.339.076-1.008.425-1.663 13.785 17.425 35.483 55.391 24.456 75.06-6.069 10.825-18.262 14.757-30.267 14.541-1 18.801-3.052 39.511-21.855 42.229-10.707 1.547-21.562 1.516-32.58.638-9.865-.787-17.619-7.114-19.703-16.508l-1.876-8.459c-5.642.229-10.659.304-16.386-.311l-2.39 9.777c-1.903 7.784-7.882 13.62-16.115 14.897-12.196 1.892-24.893 1.654-37.17-.065-17.956-2.515-20.157-24.132-20.936-42.195-5.178-.217-10.003-.532-14.68-2.046-14.102-4.562-20.955-17.771-17.788-32.597 4.337-20.31 14.313-38.811 27.764-55.695z"/><path fill="#ebe5e0" d="M239.669 320.239c2.329 4.312 5.583 7.705 8.632 11.558-.349.655-.268 1.324-.425 1.663-.324.702-1.308.795-2.201.792-1.467-.324-3.147-.633-4.385.724l-4.261-5.045c-.761-2.667-2.523-4.582-4.031-6.968-1.063-1.681-2.001-3.189-2.041-5.454-.034-1.882.945-2.937 3.104-3.474z"/><path fill="#583c35" d="m250.122 152.977 2.869 13.031c-.46-.016-.989-.328-2.101.348 1.309.956 1.405 2.402 1.071 3.661-1.697-.343-4.101 1.141-3.975 2.942-1.592-.925-1.041-3.317-.97-4.923.194-4.399-.051-8.672-.932-12.937 1.113-.653.872-1.934 1.518-2.391.716-.506 1.928.043 2.52.269"/><path fill="#3e2721" d="M250.122 152.977c-.592-.226-1.804-.775-2.52-.269-.646.457-.405 1.738-1.518 2.391-1.822-8.812-5.904-11.831-.919-14.842.356-.274.925-.447 1.227-1.243z"/><path fill="#3a3119" d="M252.991 166.008c.671 3.049.72 6.005 1.163 8.952l-1.479.148c-.309-1.481-1.177-3.345-.714-5.091.334-1.259.238-2.705-1.071-3.661 1.112-.676 1.641-.364 2.101-.348"/><path fill="#914300" d="M77.012 331.977c4.779-5.32 9.63-10.737 15.392-15.591 2.106-1.774 2.795-4.104 3.166-7.359.573 1.628.679 2.602.384 3.745 4.696.315 8.803 1.992 11.034 4.815 6.23 7.882 2.843 22.549-8.108 27.153-7.037 2.959-13.514 1.399-19.288-3.612l-1.13-9.279c-.824.165-1.286.151-1.45.128"/><path fill="#8b4000" d="M232.998 322.963c1.508 2.386 3.27 4.301 4.031 6.968 2.271 7.958 3.676 17.494-3.044 24.081-4.837 4.742-13.088 2.843-17.306-1.559-5.795-6.046-7.662-14.613-2.816-21.585 3.734-5.373 9.989-7.098 16.017-9.115 1.39-.941 2.169.494 3.118 1.21"/><path fill="#873b00" d="M232.198 380.937c2.157 10.834 3.273 21.79 3.596 32.885-5.973.629-13.181.265-18.053-4.589-5.17-5.151-5.466-13.22-1.885-19.525 3.152-5.551 9.272-9.654 16.342-8.771"/><path fill="#914400" d="M261.181 366.976c-7.205 3.546-14.632.308-18.453-6.698-3.384-6.205-2.258-17.817 2.243-21.353 6.474 8.752 11.808 18.309 16.21 28.051"/><path fill="#8c3f00" d="M111.918 378.821c-4.91.22-7.874-3.737-9.638-6.91-3.302-5.939-.756-17.534 7.843-20.396 2.975-.99 7.902.234 9.081 3.514-3.359 7.464-7.388 14.309-7.286 23.792"/><path fill="#843a00" d="M214.644 373.889c-1.023 4.765-5.71 7.63-9.978 8.953-.282-8.362-3.014-15.158-4.483-22.991-.409-2.18 3.87-2.965 5.94-1.912 5.662 2.883 9.938 9.358 8.521 15.95"/><path fill="#964700" d="M64.063 365.493c3.28-2.965 1.49-9.565-.242-15.425l9.236-12.925c-.823 1.972.772 4.081 1.458 6.191 1.346 4.138 1.703 9.304.2 13.281-1.879 4.968-5.938 9.735-10.652 8.878"/><path fill="#843d00" d="M81.965 436.063c-.885-6.006-1.027-12.082-1.4-18.026 3.958-.695 8.017 1.99 9.28 4.718 2.528 5.467-2.814 13.581-7.88 13.308"/><path fill="#8a4200" d="m240.916 389.163-3.076-14.049c3.107-1.567 7.129-.898 9.282 1.371 3.978 4.192.432 12.032-2.769 13.179-.956.343-2.251-.505-3.437-.501"/><path fill="#793800" d="m76.274 381.93-1.615 9.09c-5.048-1.062-7.455-4.837-6.834-10.066.293-2.464 1.316-4.628 3.734-4.757 1.672-.089 3.488 1.634 4.01 3.831-.69.805-.479 1.817.705 1.902"/><path fill="#d28e00" d="M64.063 365.493c-1.957-.355-3.826-.575-4.808-2.794-1.393.522-1.436 1.835-1.703 2.288-.178.303-1.051.192-1.65-.045 2.31-5.191 4.674-10.136 7.919-14.874 1.732 5.86 3.522 12.46.242 15.425"/><path fill="#6c3915" d="M243.264 414.904c-.621.929-2.843 3.82-4.436 2.348-2.174-2.01.153-13.275 3.145-18.327.426 1.547-.874 3.142-.4 4.344 1.508 3.823 1.054 7.782 1.691 11.635"/><path fill="#8b3e00" d="M80.255 413.086c-.668-10.654 1.125-21.534 3.675-32.078 9.927-.258 17.218 8.844 15.87 18.956-1.156 8.681-8.088 13.992-16.793 12.545-1.293-.215-1.97-.303-2.752.577"/><path fill="#deac4d" d="M249.905 207.26c5.814 4.321 8.741 11.29 10.879 18.001 7.925 24.872-2.312 51.141-24.007 65.529-11.359 7.533-23.178 12.471-36.809 15.401-39.946 8.586-97.94 6.287-129.1-19.99-18.57-15.659-25.282-40.162-17.623-63.132 2.274-6.603 6.058-11.728 10.033-16.778 9.334-4.493 18.599-8.858 29.583-10.674 41.788-6.907 84.547-7.186 126.318.081 11.196 1.949 22.087 5.143 30.726 11.562m-127.886 11.136c1.872.525 4.593-.373 5.098-2.436 1.429-5.828-5.988-13.227-10.099-11.358-1.888.858-3.486 2.878-2.993 5.394.831 4.233 3.827 7.232 7.994 8.4m77.236-9.397c-.038-2.159-1.053-3.462-2.636-4.183-1.159-.527-2.13-.979-4.043-.026-4.052 2.018-8.201 8.585-5.121 12.602 2.026 2.642 6.251.711 7.785-.716 2.216-2.062 4.076-4.226 4.015-7.677m-14.842 79.911c15.193-9.748 24.055-25.304 26.036-42.898.198-1.76-.45-4.623-2.308-5.508l-101.406-.015c-7.185-.001-1.916 38.352 30.252 52.396 15.84 6.916 32.636 5.513 47.426-3.975"/><path fill="#dba500" d="M134.978 82.153c.291 3.33 2.859 5.992 3.81 8.872.493 1.494-.431 4.33 1.323 5.546 3.71 2.57 8.992-1.742 10.238-.685 2.09 1.775 3.193 9.402 8.324 7.63 9.704-3.351 19.766-13.165 20.859-24.024 27.756 4.978 48.002 21.73 56.292 47.754l5.051 15.856.264 1.861c-5.488 3.484-9.87 10.974-7.043 17.994 2.446 6.076 12.863 8.932 13.192 11.302l2.476 17.873.141 15.128c-8.639-6.419-19.53-9.613-30.726-11.562-41.771-7.267-84.53-6.988-126.318-.081-10.984 1.816-20.249 6.181-29.583 10.674.42-11.663 1.328-23.143 3.573-34.396 5.404-.426 10.292-5.216 11.588-10.036 1.577-5.86-.703-12.167-6.076-14.933 1.626-10.084 5.507-19.701 9.156-29.725-.496-.618-.434-1.066-.4-1.321 2.866-.544 2.657-3.776 3.959-5.487 6.855-9.015 14.098-17.217 23.939-22.64 3.493-1.925 7.167-4.371 11.185-5.313L133 79.439c.984-.231 1.794.599 1.838 1.107zM120.5 178.772c-.557 2.941 1.695 5.344 4.814 4.334 1.028-.587 2.381-2.093 2.269-4.495-.415-8.875-7.19-16.815-16.552-15.852-7.917.814-12.268 7.825-13.302 15.218-.414 2.962.862 5.447 3.749 5.513 5.54.126 1.344-13.091 11.138-13.091 4.021 0 7.745 3.277 7.884 8.373m92 4.7c1.933.044 3.554-2.065 3.496-4.432-.236-9.569-7.104-17.7-17.062-16.246-8.112 1.184-13.337 9.187-13.104 17.183.076 2.629 2.702 3.792 4.626 3.209 4.382-1.328.892-12.312 10.08-12.979 10.41-.756 6.331 13.135 11.964 13.265"/><path fill="#dba400" d="M80.819 105.15c-2.413-3.528-5.3-6.415-8.95-8.996l-7.161-5.064c1.39-.04 3.029.01 3.763-1.157.976-1.551.673-3.348-.4-4.523-.843-.924-3.297-2.215-4.7-.699-1.22 1.32-.573 4.841.462 6.278-7.081-2.207-14.81-3.287-22.705-.39 1.575 17.062 17.347 27.853 33.844 26.012l-3.532 8.161c-25.525 1.79-44.481-17.974-43.24-43.721 20.33-12.48 47.121-5.632 59.585 14.526z"/><path fill="#dba600" d="M238.841 116.098c16.112 3.081 30.865-8.42 32.906-25.463-5.816-1.823-11.355-2.222-16.798-1.344.002-1.851-.925-4.136-2.215-4.738-1.671-.781-4.678-.922-6.449.028-2.687 1.441-1.968 5.19-.123 7.672-5.433 3.626-10.995 7.532-13.328 13.675-2.1-3.557-4.633-6.771-7.73-10.108 13.048-20.096 39.096-27.358 59.871-14.689.647 25.692-16.725 44.934-42.648 43.651z"/><path fill="#833700" d="M138.788 91.025c-.951-2.88-3.519-5.543-3.81-8.872.348.286 1.414-.301 1.245-.64-1.078-2.152 4.618-2.407 4.387-4.512-1.03-9.411 4.92-17.323 13.921-18.848 7.688-1.302 17.351 4.078 18.088 12.57.676 7.79-.534 16.262-6.372 20.382l-9.458 6.675c-.635-5.287-.969-8.515-4.143-11.682-6.413 4.645-10.09 3.269-13.858 4.927"/><path fill="#d9861a" d="M63.833 90.989c.287-.089.675-.04.875.101l7.161 5.064c3.65 2.581 6.537 5.468 8.95 8.996 1.136 1.661 1.636 4.355 4.259 5.243-1.302 1.711-1.093 4.943-3.959 5.487-1.254-.329-2.077-1.756-3.46-1.566-1.184.163-1.997 1.529-2.687 2.297-16.497 1.841-32.269-8.95-33.844-26.013 7.894-2.896 15.624-1.816 22.705.39"/><path fill="#db8a1d" d="m238.841 116.098-6.007-10.17c2.333-6.143 7.895-10.049 13.328-13.675 2.273-1.516 5.993-2.51 8.787-2.962 5.443-.878 10.982-.48 16.798 1.344-2.041 17.043-16.794 28.544-32.906 25.463"/><path fill="#873900" d="M212.769 54.748c-1.066.518-1.504 2.683-1.68 3.5-3.645-.026-6.726-1.86-9.909-3.457.396-1.102 1.464-3.417.473-4.4-4.627-4.596-5.533-11.62-2.276-16.774 3.393-5.367 10.495-7.059 16.594-4.486 5.947 2.508 8.617 8.41 7.612 14.694-.876 5.472-5.479 8.325-10.814 10.923"/><path fill="#da9d00" d="m211.089 58.248-3.004 13.98-2.683 8.47-11.807-4.807 7.585-21.1c3.183 1.596 6.264 3.43 9.909 3.457"/><path fill="#da9800" d="m112.68 56.283 6.976 19.292c-3.984 1.632-7.962 3.176-11.677 5.36l-5.251-22.846c3.17-.149 6.265-1.047 8.893-2.953.336.813.765 1.065 1.059 1.147"/><path fill="#8c4100" d="M66.851 171.895c1.555-8.395 2.214-17.191 5.512-24.969 5.373 2.766 7.653 9.073 6.076 14.933-1.296 4.82-6.184 9.61-11.588 10.036"/><path fill="#60391e" d="M119.656 75.575c.77 2.13.989 4.32.546 6.865-4.018.942-7.692 3.388-11.185 5.313.003-2.269-.523-4.576-1.038-6.818 3.715-2.184 7.693-3.728 11.677-5.36"/><path fill="#8b6f47" d="M251.961 170.017c-.463 1.746.405 3.61.714 5.091 1.201 5.752-1.17 11.598-2.911 17.024l-2.476-17.873c.488-.279.743-.66.698-1.3-.126-1.801 2.278-3.285 3.975-2.942"/><path fill="#301804" d="M245.165 140.257c-4.985 3.011-.903 6.03.919 14.842.881 4.265 1.126 8.538.932 12.937l-5.877-23.073-.264-1.861c1.234-.124 1.113-1.1.862-1.956-.262-1.713.684-2.146 1.732-2.273.773-.093 1.571-.061 1.696 1.384"/><path fill="#8b3a00" d="M112.68 56.283c-.294-.082-.723-.334-1.059-1.147-2.628 1.906-5.723 2.804-8.893 2.953-.281-1.22-1.079-2.503-1.877-4.1-7.43-1.041-12.312-7.27-11.455-14.298.803-6.586 6.376-11.931 13.564-11.713 5.052.153 9.325 2.68 11.361 6.5 1.882 3.529 2.364 9.155-.334 12.5-2.958 3.666-2.758 5.29-1.307 9.305"/><path fill="#4a312b" d="m216.84 58.937-2.757 13.08c-1.66.499-3.35.213-4.686-.983-.349.98-.878 1.162-1.312 1.194l3.004-13.98c.176-.817.614-2.982 1.68-3.5 1.471-.455 3.27.064 3.575 1.46.154.709.676 1.875.496 2.729"/><path fill="#843e00" d="m241.139 144.963 5.877 23.073c-.071 1.606-.622 3.998.97 4.923.045.64-.21 1.021-.698 1.3-.329-2.37-10.746-5.226-13.192-11.302-2.827-7.02 1.555-14.51 7.043-17.994"/><path fill="#040404" d="M184.413 288.91c-14.79 9.488-31.586 10.891-47.426 3.975-32.168-14.044-37.437-52.397-30.252-52.396l101.406.015c1.858.885 2.506 3.748 2.308 5.508-1.981 17.594-10.843 33.15-26.036 42.898m-30.758-41.245-14.761.555c.874 5.325 1.446 9.319 4.388 12.119 2.634 2.508 6.428 3.437 10.534 3.376zm17.473 12.5c2.947-3.376 3.782-7.704 4.257-12.429l-15.217.03c.336 5.882.354 10.612.003 16.068 3.953-.045 8.269-.587 10.957-3.669m8.622 23.195c-14.262-10.845-33.253-10.261-45.634.42 14.61 8.727 32.371 9.181 45.634-.42"/><path fill="#050505" d="M122.019 218.396c-4.167-1.168-7.163-4.167-7.994-8.4-.493-2.516 1.105-4.536 2.993-5.394 4.111-1.869 11.528 5.53 10.099 11.358-.505 2.063-3.226 2.961-5.098 2.436"/><path fill="#070605" d="M199.255 208.999c.061 3.451-1.799 5.615-4.015 7.677-1.534 1.427-5.759 3.358-7.785.716-3.08-4.017 1.069-10.584 5.121-12.602 1.913-.953 2.884-.501 4.043.026 1.583.721 2.598 2.024 2.636 4.183"/><path fill="#070602" d="M212.5 183.472c-5.633-.13-1.554-14.021-11.964-13.265-9.188.667-5.698 11.651-10.08 12.979-1.924.583-4.55-.58-4.626-3.209-.233-7.996 4.992-15.999 13.104-17.183 9.958-1.454 16.826 6.677 17.062 16.246.058 2.367-1.563 4.476-3.496 4.432M120.5 178.772c-.139-5.096-3.863-8.373-7.884-8.373-9.794 0-5.598 13.217-11.138 13.091-2.887-.066-4.163-2.551-3.75-5.513 1.035-7.393 5.386-14.404 13.303-15.218 9.362-.963 16.137 6.977 16.552 15.852.112 2.402-1.241 3.908-2.269 4.495-3.119 1.01-5.371-1.393-4.814-4.334"/><path fill="#6f4300" d="M64.708 91.09c-.2-.14-.588-.19-.875-.102-1.035-1.436-1.682-4.957-.461-6.277 1.402-1.516 3.856-.225 4.7.699 1.072 1.175 1.375 2.972.399 4.523-.734 1.166-2.374 1.117-3.763 1.157"/><path fill="#844700" d="M254.949 89.291c-2.794.451-6.514 1.446-8.787 2.962-1.845-2.482-2.564-6.23.123-7.672 1.771-.95 4.778-.81 6.449-.028 1.29.602 2.217 2.887 2.215 4.738"/><path fill="#d21b15" d="M179.75 283.36c-13.263 9.601-31.024 9.147-45.634.42 12.381-10.681 31.372-11.265 45.634-.42"/><path fill="#fafaf9" d="M171.128 260.165c-2.688 3.082-7.004 3.624-10.957 3.669.351-5.456.333-10.186-.003-16.068l15.217-.03c-.475 4.725-1.31 9.053-4.257 12.429"/><path fill="#f7f7f6" d="m153.655 247.665.161 16.05c-4.106.061-7.9-.868-10.534-3.376-2.942-2.8-3.514-6.794-4.388-12.119z"/></svg>