<svg xmlns="http://www.w3.org/2000/svg" viewBox="19.9 20.1 317.9 410.3" width="318" height="410"><path fill="#d45800" d="M314.827 120.213c1.291-.526 1.107.698 1.248.994-1.424-.126-.822.573-.54.93 1.636 2.076 1.449 5.574 3.489 7.086-.037.351-.24.858-.207 1.042 3.8 21.193-10.266 35.53-8.041 38.724 5.796 8.319 11.201 16.698 12.452 27.061 1.681 13.927-5.041 26.924-15.974 35.151-3.159 2.377-6.075 4.523-8.51 7.745.553 20.235-6.361 38.405-25.55 45.346-16.206 5.863-26.918-1.671-31.562 5.467-4.348 6.684-9.561 13.008-16.628 17.16-11.053 6.495-23.982 6.862-34.95.861l-14.157-7.746-14.828 7.872c-16.416 7.659-34.399 3.582-45.379-10.624l-8.38-10.842-19.3-.171c-25.448-3.101-34.397-22.451-33.658-47.416-2.94-3.619-6.916-5.906-10.516-8.592-21.591-16.104-19.144-41.277-2.167-62.298l-6.097-13.492c-7.325-16.209-2.893-33.937 10.608-45.392l10.22-8.671 2.28-15.615c2.535-17.369 16.472-30.04 34.387-30.256l15.206-.183 10.467-13.527c11.482-13.127 28.941-15.68 44.362-7.83 4.067 2.07 8.418 5.38 12.791 6.489l11.975-6.51c15.902-8.642 34.673-5.688 45.457 8.808l9.449 12.701 19.098.45c23.752 3.393 32.618 23.334 32.472 46.401 8.14 5.571 15.087 11.456 20.483 18.877m-29.66 98.739c4.501-28.904-1.094-58.024-15.311-83.658 10.279-7.587 15.567-18.606 15.124-30.694-.417-11.378-6.213-21.594-16.277-28.402-16.697-10.465-38.026-4.664-47.954 13.121-28.668-12.618-60.909-12.811-89.493-.157-4.881-7.57-11.117-13.165-19.272-16.13-13.57-4.992-27.967-1.258-37.233 9.714-13.112 16.49-10.278 40.169 7.195 52.972-12.365 21.575-18.31 45.969-17.16 71.186 1.023 22.401 10.23 41.749 27.028 56.354 36.343 30.978 94.785 34.527 138.723 17.434 27.692-10.772 49.985-31.903 54.63-61.74"/><path fill="#070605" d="M314.827 120.213c-5.396-7.421-12.343-13.306-20.483-18.877.146-23.067-8.72-43.008-32.472-46.401l-19.098-.45-9.449-12.701c-10.784-14.496-29.555-17.45-45.457-8.807l-11.975 6.509c-4.373-1.11-8.724-4.419-12.791-6.49-15.421-7.85-32.88-5.296-44.362 7.831l-10.467 13.527-15.206.183c-17.915.215-31.851 12.887-34.387 30.256l-2.28 15.615-10.22 8.671c-13.501 11.455-17.933 29.183-10.608 45.392l6.097 13.492c-16.977 21.021-19.424 46.194 2.167 62.298 3.6 2.686 7.576 4.973 10.516 8.592-.739 24.965 8.21 44.315 33.657 47.416l19.301.171 8.38 10.842c10.98 14.206 28.963 18.283 45.379 10.624l14.828-7.872 14.157 7.746c10.968 6.001 23.897 5.634 34.95-.861 7.067-4.152 12.28-10.476 16.628-17.16 4.644-7.138 15.356.396 31.562-5.467 19.189-6.941 26.103-25.111 25.55-45.346 2.435-3.222 5.351-5.368 8.51-7.745 10.933-8.227 17.655-21.224 15.974-35.151-1.251-10.363-6.656-18.742-12.452-27.061-2.225-3.194 11.841-17.531 8.041-38.724.762-.474 1.248-.024 1.198.335-.081.581-.039 1.619.426 1.881.458 3.571 3.304 4.487 5.864 5.117.37 11.079-3.931 20.929-8.943 30.099 18.157 19.061 17.66 47.329-.784 64.964l-10.55 8.56c-.58 23.604-7.983 41.364-31.218 50.449 14.812 19.013 34.368 49.775 22.93 70.618-1.352-2.453-2.275-4.6-4.221-6.333 3.076-21.828-12.389-44.558-26.098-62.18-6.89 1.405-12.869.932-19.426.286-7.57 11.825-17.887 21.425-31.253 24.434-14.178 3.191-28.629-1.024-40.984-10.293-12.194 8.664-26.376 13.475-40.737 10.395-13.197-2.831-23.718-12.633-31.12-24.615-6.516.076-12.322.851-19.385-.326-13 14.502-33.244 48.869-24.339 64.284 4.928 8.528 15.024 11.158 25.018 10.572.6-9.012 1.288-17.823 3.646-26.498 1.948.204.758-3 2.064-3.616.665-.314 1.805-.181 3.227-.542-1.683-2.039-2.448-3.857-2.493-6.135l6.7-19.373c.654-1.891 2.797-2.606 4.188-2.428 1.341.17 3.26 2.063 2.445 4.143-9.268 23.666-13.427 48.359-12.442 73.844.558 14.47.695 31.826 14.579 33.248 11.244 1.151 22.444 1.051 33.753.479 13.143-.665 16.255-7.278 18.834-20.406l-10.844-3.991c-1.972-.725-2.765-3.064-2.394-4.296.724-2.402 2.61-3.363 5.104-3.087 14.5 7.22 34.657 7.376 48.834-.154 2.335-.034 4.004.838 4.597 1.944 1.151 2.147.481 4.821-1.774 5.6l-11.008 3.803c2.356 11.017 5.677 20.412 17.156 20.499l31.656.239c7.509.057 14.337-4.303 15.776-12.214 5.798-31.883 1.737-65.076-10.245-95.408-.66-1.67 1.338-2.675 1.777-3.336.548-.825 3.411-1.501 4.05-.105 8.352 18.251 12.931 37.466 14.093 57.747 2.766.091 5.782-.042 7.727 1.174l-.084 5.568c-1.665 1.298-4.198 1.465-7.265 1.046l-.885 6.715c-.306-.071-1.091.114-1.265.796l-2.839 11.129c-1.221 4.783-3.575 8.91-3.044 14.118 1.878.875 3.025 1.556 5.28 2.017l1.434-6.022 10.378 3.988c9.205 2.064 18.026 1.775 26.286-3.378-3.756-3.902-7.04-8.076-8.002-13.293-8.802.356-16.744-1.724-22.338-7.015-.435-2.704 2.598-3.634 4.724-6.452 3.555 3.501 10.811 8.189 17.331 6.635 2.563-11.367 14.542-18.986 25.857-14.314 6.353 2.623 12.087-1.692 14.48-.889 4.242 1.423 2.867 10.445-1.627 17.329-.872 1.335.383 2.682 1.46 3.772-2.335 10.999-13.172 19.842-25.103 17.616-13.12 10.086-30.004 10.086-45.192 2.531-2.567 9.841-9.393 16.219-19.195 17.012-12.569 1.017-25.316 1.224-37.793-.129-9.873-1.071-16.804-7.789-19.259-17.062l-2.512-9.492c-6.223.548-11.813.658-18.152.092l-2.957 11.037c-2.407 8.987-10.47 14.522-19.644 15.474-12.497 1.296-24.994 1.236-37.573-.016-23.037-2.293-21.515-30.147-21.387-52.868-10.823.091-21.714-2.238-28.87-9.981-16.002-17.318 4.6-54.994 20.405-74.043-22.084-8.739-29.87-27.446-29.916-50.279-5.488-3.441-10.243-7.127-14.556-11.624-17.018-17.749-13.829-43.059 1.222-62.569-13.012-21.232-11.247-47.409 7.047-62.453l9.368-7.703c.703-24.194 12.373-45.339 36.98-48.91l17.822-1.116 10.777-13.286c17.677-17.056 40.624-15.622 60.176-1.221 11.122-8.746 24.121-12.84 37.487-10.706 15.133 2.415 25.105 12.972 33.336 26.01 23.358-2.25 43.52 5.917 51.179 28.579 2.419 7.158 3.089 14.452 3.641 21.957 3.906 2.318 9.185 4.577 10.262 8.612zm-6.021 256.618c-3.575-.116-5.145 1.771-7.298 4.754-2.769 3.837-4.014 7.445-.852 11.599 1.858 2.441 4.275 6.741 7.717 8.395 7.653 3.677 16.61-2.817 18.559-10.201-4.768-2.349 2.03-5.055 2.701-13.654-4.742.379-9.45 1.33-12.739-.477-2.999-1.648-5.5-.332-8.088-.416"/><path fill="#dc9e00" d="m293.519 355.955-3.136 3.488c-3.52 5.69-10.334 8.988-16.182 10.2-1.945-1.216-4.961-1.083-7.727-1.174-1.162-20.281-5.741-39.496-14.093-57.747-.639-1.396-3.502-.72-4.05.105-.439.661-2.437 1.666-1.777 3.336 11.982 30.332 16.043 63.525 10.245 95.408-1.439 7.911-8.267 12.271-15.776 12.214l-31.656-.239c-11.479-.087-14.8-9.482-17.156-20.499l11.008-3.803c2.255-.779 2.925-3.453 1.774-5.6-.593-1.106-2.262-1.978-4.597-1.944 15.072-8.006 23.844-21.56 23.284-38.666-.34-10.366-2.068-20.023-6.417-29.33-.493-1.054-.99-1.778-.521-3.209 13.366-3.009 23.683-12.609 31.253-24.434 6.557.646 12.536 1.119 19.426-.286 13.709 17.622 29.174 40.352 26.098 62.18"/><path fill="#c57a00" d="M276.581 378.86c-2.126 2.818-5.159 3.748-4.724 6.452-1.118-2.03-1.688-.68-2.493-.527-2.015.382-2.793.846-3.16 2.79l-.237-4.603.885-6.715c3.067.419 5.6.252 7.265-1.046 2.337-.06 1.727 2.71 2.464 3.649"/><path fill="#575757" d="M279.735 375.386c-1.192-3.007 3.311-2.906 4.713-3.721 2.595-1.511 4.752-3.805 8.308-2.892z"/><path fill="#702c00" d="M319.024 129.223c-2.04-1.512-1.853-5.01-3.489-7.086-.282-.357-.884-1.056.54-.93 1.199 2.514 3.258 5.076 2.949 8.016"/><path fill="#94b3b3" d="M295.001 366.682c-.961 2.033-3.199.666-1.293-.901.68-1.81 3.268-.573 1.293.901"/><path fill="#070503" d="M285.167 218.952c-4.645 29.837-26.938 50.968-54.63 61.74-43.938 17.093-102.38 13.544-138.723-17.434-16.798-14.605-26.005-33.953-27.027-56.354-1.15-25.217 4.794-49.611 17.159-71.186-17.473-12.803-20.307-36.482-7.195-52.972 9.266-10.972 23.663-14.706 37.233-9.715 8.155 2.966 14.391 8.562 19.272 16.13 28.584-12.653 60.825-12.46 89.493.158 9.928-17.785 31.257-23.586 47.954-13.12 10.064 6.807 15.86 17.023 16.277 28.401.443 12.088-4.845 23.107-15.124 30.694 14.217 25.634 19.812 54.754 15.311 83.658M95.101 121.781c.462.373 1.12 1.305 1.909 1.209.427 1.222.323 2.174-.575 3.444-14.898 21.093-23.955 45.843-24.196 71.487-.118 12.51 1.332 25.285 6.98 36.784 13.608 27.709 43.055 42.183 72.805 46.461 43.109 6.198 96.73-3.731 118.706-43.261 6.962-12.523 8.359-26.291 8.296-39.953-.245-26.728-9.07-52.249-25.75-73.789.955-1.143 1.295-1.411 1.87-1.995.535-.543-1.493-.719-2.157-1.278l-17.308-14.533c-.939-.788-1.398-1.732-1.15-2.317.386-.913.569-1.892 1.406-2.082 7.102 5.457 13.734 11.04 19.144 19.2.63.582 2.002.139 2.11.119 2.974 1.972 4.806 5.263 7.797 8.353 14.681-10.277 16.637-30.477 4.513-43.31-6.117-6.476-15.052-9.028-24.489-7.04-15.971 3.363-18.706 17.067-19.406 17.937-1.266 1.574-2.545 1.409-4.529.483-33.826-15.789-73.664-13.386-104.242 8.129-5.192 3.653-8.57 8.729-13.876 11.275-2.762-3.417 6.858-11.825 13.08-16.97l8.669-7.17c-4.427-7.251-11.705-12.652-18.579-13.925-9.074-1.681-17.512.39-23.644 6.465-12.62 12.503-10.721 34.328 4.52 44.304 2.671-3.456 4.305-7.03 8.096-8.027"/><path fill="#dc9d00" d="M135.021 318.597c-11.422 27.282-11.094 57.496 16.541 71.257-2.494-.276-4.38.685-5.104 3.087-.371 1.232.422 3.571 2.394 4.296l10.844 3.991c-2.579 13.128-5.691 19.741-18.834 20.406-11.309.572-22.509.672-33.753-.479-13.884-1.422-14.02-18.778-14.58-33.248-.984-25.485 3.175-50.178 12.443-73.844.815-2.08-1.104-3.973-2.445-4.143-1.391-.178-3.534.537-4.188 2.428l-6.7 19.373-2.798 10.293c-2.358 8.675-3.045 17.486-3.646 26.498-9.993.586-20.09-2.044-25.018-10.572-8.905-15.415 11.339-49.782 24.34-64.284 7.062 1.177 12.868.402 19.384.326 7.402 11.982 17.923 21.784 31.12 24.615"/><path fill="#deab45" d="M216.742 318.495c-.469 1.431.028 2.155.521 3.209 4.349 9.307 6.077 18.964 6.417 29.33.56 17.106-8.212 30.66-23.284 38.666-14.177 7.53-34.334 7.374-48.834.154-27.635-13.761-27.963-43.975-16.541-71.257 14.361 3.08 28.543-1.731 40.737-10.395 12.355 9.269 26.806 13.484 40.984 10.293"/><path fill="#db9b00" d="M271.857 385.312c5.594 5.291 13.536 7.371 22.338 7.015.962 5.217 4.246 9.391 8.002 13.293-8.26 5.153-17.081 5.442-26.286 3.378l-10.378-3.988.671-17.435c.367-1.944 1.145-2.408 3.16-2.79.805-.153 1.375-1.503 2.493.527"/><path fill="#d15800" d="M300.656 393.184c5.945-1.657 8.031-9.213 8.15-16.353 2.588.084 5.089-1.232 8.088.416 3.289 1.807 7.997.856 12.739.477-.671 8.599-7.469 11.305-2.701 13.654-1.949 7.384-10.906 13.878-18.559 10.201-3.442-1.654-5.859-5.954-7.717-8.395"/><path fill="#f7f6f4" d="m266.204 387.575-.671 17.435-1.434 6.022c-2.255-.461-3.402-1.142-5.28-2.017-.531-5.208 1.823-9.335 3.044-14.118l2.839-11.129c.174-.682.959-.867 1.265-.796z"/><path fill="#db914b" d="M308.806 376.831c-.119 7.14-2.205 14.696-8.15 16.353-3.162-4.154-1.917-7.762.852-11.599 2.153-2.983 3.723-4.87 7.298-4.754"/><path fill="#2e1e07" d="m88.84 342.014 2.799-10.293c.045 2.278.81 4.096 2.493 6.135-1.422.361-2.562.228-3.227.542-1.306.616-.116 3.82-2.064 3.616"/><path fill="#dc9d00" d="M257.191 121.277c8.321-6.229 9.838-18.753 1.918-26.387-8.433-5.695-20.264-2.028-23.172 7.068-.837.19-1.02 1.169-1.406 2.082-.248.585.211 1.529 1.15 2.317l17.308 14.533c.664.559 2.692.735 2.157 1.278-.575.584-.915.852-1.87 1.995 16.68 21.54 25.505 47.061 25.75 73.789-20.385-28.123-53.068-24.958-84.561-14.721-3.268-8.647-35.717-8.695-37.574.744-29.729-11.647-65.892-13.901-84.652 13.946.24-25.644 9.298-50.394 24.196-71.487.898-1.27 1.002-2.222.575-3.444 2.155.481 3.022-2.496 5.949-5.886 5.306-2.546 8.684-7.622 13.876-11.275 30.578-21.514 70.416-23.918 104.242-8.13 1.984.927 3.263 1.092 4.529-.482.7-.87 3.435-14.574 19.406-17.938 9.437-1.987 18.372.565 24.489 7.04 12.124 12.834 10.168 33.034-4.513 43.311-2.991-3.09-4.823-6.381-7.797-8.353m-114.785 50.909c1.837-.897 2.67-2.643 2.365-5.152-1.079-8.867-7.78-15.546-16.288-15.322-8.479.224-14.914 7.356-15.185 16.331-.081 2.672 1.615 4.658 4.179 4.292 1.71-.244 3.326-1.999 3.238-4.333-.19-5.049 4.324-8.843 8.556-8.567 10.817.705 5.843 16.312 13.135 12.751m94.019-.193c1.788-1.16 2.061-2.612 1.888-4.96-.67-9.046-7.111-15.304-15.826-15.368-8.039-.058-14.922 6.714-15.708 15.308-.272 2.975 1.045 5.19 3.73 5.267 2.161.062 3.9-1.575 3.865-4.243-.07-5.305 4.51-8.975 9.092-8.426 10.487 1.258 5.674 17.147 12.959 12.422"/><path fill="#fdfdfd" d="M156.891 183.975c-1.197 6.08 7.657 14.742 15.132 18.632l-.202 7.696-49.164.258c-8.261.043.868 50.507 43.757 57.904 32.421 5.591 62.602-19.004 65.184-51.522.135-1.706.218-6.2-2.508-6.22l-49.46-.366c-.761-2.372-.474-5.232-.153-7.855 8.392-3.975 16.905-14.201 14.988-19.271 31.493-10.237 64.176-13.402 84.561 14.721.063 13.662-1.334 27.43-8.296 39.953-21.976 39.53-75.597 49.459-118.706 43.261-29.75-4.278-59.197-18.752-72.805-46.461-5.648-11.499-7.097-24.274-6.98-36.784 18.76-27.847 54.923-25.593 84.652-13.946"/><path fill="#dc9f00" d="M116.039 100.134c-5.146-4.777-7.928-8.19-15.513-7.976-4.334.122-9.102 2.257-11.538 6.873-4.431 8.399-.582 17.347 6.113 22.75-3.791.997-5.425 4.571-8.096 8.027-15.241-9.976-17.14-31.801-4.52-44.304 6.132-6.074 14.57-8.146 23.644-6.465 6.874 1.273 14.152 6.674 18.579 13.925z"/><path fill="#dd9f30" d="M116.039 100.134c-6.222 5.145-15.842 13.553-13.08 16.97-2.927 3.39-3.794 6.367-5.95 5.886-.788.096-1.446-.836-1.908-1.209-6.695-5.403-10.544-14.351-6.113-22.75 2.436-4.616 7.204-6.75 11.538-6.873 7.585-.214 10.367 3.2 15.513 7.976"/><path fill="#dda136" d="M257.191 121.277c-.108.02-1.48.463-2.11-.119-5.41-8.16-12.042-13.743-19.144-19.2 2.908-9.096 14.739-12.763 23.172-7.068 7.92 7.634 6.403 20.158-1.918 26.387"/><path fill="#040404" d="M194.465 183.231c1.917 5.07-6.596 15.296-14.988 19.271-.321 2.623-.608 5.483.153 7.855l49.46.366c2.726.02 2.643 4.514 2.508 6.22-2.582 32.518-32.763 57.113-65.184 51.522-42.889-7.397-52.018-57.861-43.757-57.904l49.164-.258.202-7.696c-7.475-3.89-16.329-12.552-15.132-18.632 1.857-9.439 34.306-9.391 37.574-.744m-22.589 51.674.012-17.109-16.254-.117c.24 3.645.956 6.393 2.137 9.474 2.18 5.685 8.134 8.217 14.105 7.752m15.727-1.413c5.499-3.089 7.471-9.193 7.69-15.758l-16.075.085.043 17.127c2.707-.129 5.868-.064 8.342-1.454m12.409 21.832c-12.821-10.662-36.508-11.539-48.299.369 15.482 8.77 33.226 8.829 48.299-.369"/><path fill="#070603" d="M142.406 172.186c-7.292 3.561-2.318-12.046-13.135-12.751-4.232-.276-8.746 3.518-8.556 8.567.088 2.334-1.528 4.089-3.238 4.333-2.564.366-4.26-1.62-4.179-4.292.271-8.975 6.706-16.107 15.185-16.331 8.508-.224 15.209 6.455 16.288 15.322.305 2.509-.528 4.255-2.365 5.152"/><path fill="#070703" d="M236.425 171.993c-7.285 4.725-2.472-11.164-12.959-12.422-4.582-.549-9.162 3.121-9.092 8.426.035 2.668-1.704 4.305-3.865 4.243-2.685-.077-4.002-2.292-3.73-5.267.786-8.594 7.669-15.366 15.708-15.308 8.715.064 15.156 6.322 15.826 15.368.173 2.348-.1 3.8-1.888 4.96"/><path fill="#d41616" d="M200.012 255.324c-15.073 9.198-32.817 9.139-48.299.369 11.791-11.908 35.478-11.031 48.299-.369"/><path fill="#f9f9f9" d="M187.603 233.492c-2.474 1.39-5.635 1.325-8.342 1.454l-.043-17.127 16.075-.085c-.219 6.565-2.191 12.669-7.69 15.758"/><path fill="#fbfafa" d="M171.876 234.905c-5.971.465-11.925-2.067-14.105-7.752-1.181-3.081-1.897-5.829-2.137-9.474l16.254.117z"/></svg>