<svg xmlns="http://www.w3.org/2000/svg" viewBox="20.7 20.7 334.9 383.4" width="335" height="383"><path fill="#060605" d="M285.993 99.997c-2.502-.482-2.547 2.005-5.179 5.103-13.963-27.73-41.102-46.705-72.152-52.7-9.264-10.588-19.772-19.374-33.845-22.67 1.709 4.893 3.705 8.906 3.738 13.351-3.817 4.645-9.885-4.083-22.01-3.89 2.895 6.478 4.17 12.628.154 13.383-32.038 6.03-59.406 25.802-73.547 55.474-14.78 31.016-14.719 75.081 3.827 103.962.864 1.344 1.726 2.703 3.19 2.981 5.7 9.548 15.042 16.3 25.009 21.86 25.798 14.39 60.908 17.587 90.841 13.924 26.031-3.186 57.866-15.367 70.742-37.533 5.64-6.151 8.97-13.682 11.441-22.281 7.508-26.121 5.838-53.926-3.79-78.715 2.629.153 4.502-1.946 5.698-3.006 1.692-.109 3.948-.31 6.284-.881 14.241-3.484 28.959 2.39 37.877 14.531 13.597 18.511 11.585 44.464-3.983 61.278-10.043 9.195-22.609 12.679-35.964 10.925-5.3 18.307-16.596 33.048-33.152 44.207 19.65 18.693 34.311 40.987 42.131 66.479 2.956 9.636 2.967 19.268-1.344 28.184-3.013 6.232-8.431 9.088-14.356 13.765 18.772 2.228 35.024-11.775 37.961-30.078 1.861-11.599-2.929-22.059-10.616-30.561-3.436-3.802-3.61-9.656-1.975-14.305 1.232-3.504 4.55-7.287 9.032-8.524 8.446-2.329 14.529 2.539 19.199 8.48-1.74-.621-2.153.864-2.822 1.094-1.332.458-1.942 1.483-1.659 3.221-1.922-2.63-5.041-5.507-8.637-6.348-3.322-.777-6.505.864-8.034 2.965-1.512 2.076-2.661 7.044-.172 9.523 15.042 14.98 16.888 37.523 3.95 54.825-10.757 14.386-29.02 20.854-46.07 14.105-1.591-.63-4.916-3.074-6.728-.945-1.242 4.687.286 10.394-1.143 14.757-2.391 7.296-.18 16.833-7.793 27.142-4.648 6.294-12.231 8.899-19.758 9.388-9.926.644-19.792.665-29.553-.04-11.496-.83-20.065-7.864-22.102-19.184l-1.716-9.534c-4.251.16-7.688.094-12.146-.251l-2.462 11.833c-1.804 8.675-8.444 15.267-17.745 16.438-12.518 1.577-25.783 1.958-38.329-.024-21.972-3.471-22.897-30.404-22.328-51.667-15.282-.329-30.008-6.671-33.638-21.4-2.277-9.239-.453-18.445 2.51-27.81 8.34-23.255 21.862-43.743 40.536-61.018-16.849-10.548-28.473-26.07-34.272-44.769-17.37 2.57-33.192-4.316-42.39-18.872-10.3-16.976-9.146-38.651 2.965-54.355 10.374-12.882 26.49-17.791 42.795-12 13.857-32.989 42.407-56.037 77.114-63.525-1.251-5.938-5.345-12.49-.606-13.217 6.182-.948 11.902.073 18.039 1.065l-2.681-8.771c.331-2.494 2.079-4.046 4.705-3.58 16.485 2.926 30.566 11.219 41.216 23.859 24.549 5.102 46.38 18.035 62.609 37.315 4.697 5.58 7.981 11.241 11.134 17.037M61.22 173.367c1.467.248 3.063.502 4.814-.397-1.872-13.923-1.438-27.27 1.194-40.473-5.243-1.843-10.03-1.193-14.133.9-1.29-.421-1.28-1.215-1.231-1.932.325-4.823 8.783-6.301 16.175-4.397l3.418-10.516c-12.101-4.716-25.33-.882-33.72 9.325-9.395 11.427-11.302 27.164-5.652 41.07 5.917 14.566 20.283 23.007 36.264 21.295l-2.58-13.604c-1.157-.172-4.408 1.269-4.55-1.271m251.299-39.892c-3.892-2.477-9.464-2.896-14.386-.934 2.829 13.966 3.762 27.835 1.325 41.421l-2.56 14.267c11.815 1.577 22.818-2.657 30.484-12.021 13.449-16.428 11.504-41.761-5.241-55.137-8.234-6.577-18.452-8.094-28.07-4.747l2.983 10.524c4.011-.758 7.622-1.193 11.131-.121 3.133.957 4.668 3.617 4.334 6.748m-102.293 124.93c-17.951 2.678-35.794 2.976-53.59.047-15.502-2.552-30.375-6.853-45.14-14.654-20.186 18.15-40.131 48.013-42.96 75.182-.529 15.341 11.117 23.374 26.99 23.489 1.217-24.404 7.223-47.858 16.407-70.204 1.196-.76 2.838-1.462 3.597-1.209 1.077.358 2.377 2.381 1.827 4.138-5.947 18.994-11.434 37.687-13.269 57.746-1.482 16.202-1.876 31.75 1.589 47.247 1.678 7.503 7.273 13.518 14.986 14.226 11.032 1.012 22.076 1.211 33.192.345 11.331-.883 14.692-11.074 15.274-22.483-8.614-1.867-16.713-4.094-14.435-8.933 1.34-2.846 3.693-2.348 6.271-1.285 15.119 6.238 31.454 5.484 46.307-.652 1.788-.739 3.359 1.255 3.798 2.34 2.045 5.044-6.2 6.702-14.554 8.748.677 12.126 4.961 22.234 15.851 22.253l30.493.051c9.74.016 16.087-6.857 17.861-16.177 3.32-17.436 2.652-34.871.685-52.76-1.975-17.969-7.315-34.622-13.092-51.865-.605-1.805 2.812-2.75 4.099-2.345 1.47.462 2.7 1.337 3.451 3.599l7.92 23.853c4.685 14.109 5.955 28.515 6.754 43.393 13.966.693 27.248-7.801 27.303-21.516.099-24.563-23.26-59.703-42.94-77.482-14.183 7.624-29.112 12.587-44.675 14.908"/><path fill="#8e3b00" d="M336.723 277.055c9.937 13.595 13.402 30.4 10.29 47.021-6.188 33.049-39.979 54.903-73.078 43.952l-4.046-2.091c1.429-4.363-.099-10.07 1.143-14.757 1.812-2.129 5.137.315 6.728.945 17.05 6.749 35.313.281 46.07-14.105 12.938-17.302 11.092-39.845-3.95-54.825-2.489-2.479-1.34-7.447.172-9.523 1.529-2.101 4.712-3.742 8.034-2.965 3.596.841 6.715 3.718 8.637 6.348"/><path fill="#292623" d="M341.204 272.74c11.627 14.793 15.707 34.631 12.118 53.235-1.448-1.12-2.707-1.081-4.362-.371l-1.947-1.528c3.112-16.621-.353-33.426-10.29-47.021-.283-1.738.327-2.763 1.659-3.221.669-.23 1.082-1.715 2.822-1.094"/><path fill="#301f12" d="m285.993 99.997 2.826 5.194c.761 1.4 1.532 2.529 1.291 4.049-1.196 1.06-3.069 3.159-5.698 3.006l-3.598-7.146c2.632-3.098 2.677-5.585 5.179-5.103"/><path fill="#100f0e" d="M353.322 325.975c-7.071 36.651-45.198 59.879-80.379 48.586 1.733-1.352 2.321-2.386 2.195-4.028-.065-.847-.707-1.537-1.203-2.505 33.099 10.951 66.89-10.903 73.078-43.952l1.947 1.528c1.655-.71 2.914-.749 4.362.371"/><path fill="#dc9c3e" d="M276.761 213.242c-12.876 22.166-44.711 34.347-70.742 37.533-29.933 3.663-65.043.466-90.841-13.924-9.967-5.56-19.308-12.312-25.009-21.86-4.738-7.936-6.303-18.237-5.432-27.703.898-9.764 5.869-17.898 13.936-24.382-5.361-15.078-5.156-31.142 1.511-45.643 9.129-19.859 29.668-29.985 50.751-25.598 12.397 2.58 22.725 9.619 31.93 19.228 9.232-10.019 19.816-16.939 32.187-19.277 21.948-4.149 42.463 6.653 51.139 27.268 5.927 14.086 5.486 29.374.483 43.768 15.7 11.69 17.473 30.214 10.851 47.189-.386.989-.359 2.705-.764 3.401m-127.22-62.153c1.302.205 3.708-.636 4.025-2.577 1.596-9.762-7.173-19.404-17.561-17.726-8.369 1.353-13.826 9.938-12.586 17.733.359 2.255 3.316 3.218 4.917 2.405 3.944-2.003.569-12.769 10.11-12.582 9.474.186 5.91 11.933 11.095 12.747m87.926-.085c1.173.33 3.926-.446 4.254-2.373 1.376-8.08-4.335-16.385-12.62-17.872-5.676-1.02-10.244 1.231-13.676 5.072-2.97 3.325-5.2 8.472-3.652 13.289.569 1.769 3.195 2.28 4.544 1.69 4.239-1.853.603-12.179 10.141-12.483 9.595-.305 6.651 11.451 11.009 12.677m-2.149 31.574-49.09-.229c-.152-2.742-.147-4.724.259-6.735 4.168-2.51 8.034-5.381 10.403-9.677 1.89-3.428-.189-7.15-3.648-8.222-9.109-2.821-22.374-1.882-24.883 3.238-2.378 4.854 3.993 11.471 10.931 14.782l-.114 6.756-49.196.071c-.867.002-2.932 1.629-2.904 2.798.76 30.864 26.091 55.983 58.146 54.697 45.506-1.825 60.168-57.432 50.096-57.479"/><path fill="#923b00" d="M156.636 258.452c-5.102 2.754-9.499 7.084-12.663 11.697-9.824 14.326-14.447 31.909-11.785 49.723 2.306 15.434 12.037 27.943 26.616 33.414 30.019 11.266 69.76 1.333 75.046-33.341 2.951-19.352-2.753-39.24-15.382-53.133l-8.242-8.407c15.563-2.321 30.492-7.284 44.675-14.908 19.68 17.779 43.039 52.919 42.94 77.482-.055 13.715-13.337 22.209-27.303 21.516-.799-14.878-2.069-29.284-6.754-43.393l-7.92-23.853c-.751-2.262-1.981-3.137-3.451-3.599-1.287-.405-4.704.54-4.099 2.345 5.777 17.243 11.117 33.896 13.092 51.865 1.967 17.889 2.635 35.324-.685 52.76-1.774 9.32-8.121 16.193-17.861 16.177l-30.493-.051c-10.89-.019-15.174-10.127-15.851-22.253 8.354-2.046 16.599-3.704 14.554-8.748-.439-1.085-2.01-3.079-3.798-2.34-14.853 6.136-31.188 6.89-46.307.652-2.578-1.063-4.931-1.561-6.271 1.285-2.278 4.839 5.821 7.066 14.435 8.933-.582 11.409-3.943 21.6-15.274 22.483-11.116.866-22.16.667-33.192-.345-7.713-.708-13.308-6.723-14.986-14.226-3.465-15.497-3.071-31.045-1.589-47.247 1.835-20.059 7.322-38.752 13.269-57.746.55-1.757-.75-3.78-1.827-4.138-.759-.253-2.401.449-3.597 1.209-9.184 22.346-15.19 45.8-16.408 70.204-15.872-.115-27.518-8.148-26.99-23.489 2.83-27.169 22.775-57.032 42.961-75.182 14.765 7.801 29.638 12.102 45.14 14.654"/><path fill="#8b3900" d="M299.458 173.962c13.177.002 22.956-10.654 21.86-24.023-.546-6.663-3.384-13.018-8.799-16.464.334-3.131-1.201-5.791-4.334-6.748-3.509-1.072-7.12-.637-11.131.121l-2.983-10.524c9.618-3.347 19.836-1.83 28.07 4.747 16.745 13.376 18.69 38.709 5.241 55.137-7.666 9.364-18.669 13.598-30.484 12.021z"/><path fill="#8c3a00" d="M53.095 133.397c-5.248 2.677-8.177 8.313-9.001 14.588-1.857 12.137 5.35 23.832 17.126 25.382.14 2.54 3.392 1.099 4.55 1.271l2.579 13.604c-15.981 1.712-30.347-6.729-36.264-21.295-5.65-13.906-3.743-29.643 5.651-41.07 8.392-10.207 21.62-14.041 33.72-9.325l-3.417 10.516c-7.392-1.904-15.85-.426-16.175 4.397-.049.717-.058 1.511 1.231 1.932"/><path fill="#d98e2e" d="M61.22 173.367c-11.777-1.55-18.983-13.245-17.126-25.382.824-6.275 3.753-11.911 9.001-14.588 4.103-2.093 8.89-2.743 14.133-.9-2.632 13.203-3.066 26.55-1.194 40.473-1.751.899-3.347.645-4.814.397"/><path fill="#d98f31" d="M312.519 133.475c5.415 3.446 8.253 9.801 8.799 16.464 1.096 13.369-8.683 24.025-21.86 24.023 2.437-13.586 1.504-27.455-1.325-41.421 4.922-1.962 10.494-1.543 14.386.934"/><path fill="#923d00" d="m280.814 105.1 3.598 7.146c9.628 24.789 11.298 52.594 3.79 78.715-2.471 8.599-5.801 16.13-11.441 22.281.405-.696.378-2.412.764-3.401 6.622-16.975 4.849-35.499-10.851-47.189 5.003-14.394 5.444-29.682-.483-43.768-8.676-20.615-29.191-31.417-51.139-27.268-12.371 2.338-22.955 9.258-32.187 19.277-9.205-9.609-19.533-16.648-31.93-19.228-21.083-4.387-41.622 5.739-50.751 25.598-6.667 14.501-6.872 30.565-1.511 45.643-8.067 6.484-13.038 14.618-13.936 24.382-.87 9.466.694 19.767 5.432 27.703-1.464-.278-2.326-1.637-3.19-2.981-18.546-28.881-18.608-72.946-3.827-103.962 14.141-29.672 41.509-49.444 73.547-55.473 4.016-.756 2.741-6.906-.154-13.385 12.125-.192 18.193 8.537 22.01 3.891-.033-4.445-2.029-8.458-3.738-13.352 14.073 3.297 24.581 12.083 33.845 22.672 31.05 5.994 58.189 24.968 72.152 52.699"/><path fill="#040303" d="M235.318 182.578c10.072.047-4.59 55.654-50.096 57.479-32.055 1.286-57.386-23.833-58.146-54.697-.028-1.169 2.037-2.796 2.904-2.798l49.196-.071.114-6.756c-6.938-3.311-13.309-9.928-10.931-14.782 2.509-5.12 15.774-6.059 24.883-3.238 3.459 1.072 5.538 4.794 3.648 8.222-2.369 4.296-6.235 7.167-10.403 9.677-.406 2.011-.411 3.993-.259 6.735zm-56.106 23.517.011-16.412-16.058.111c.594 4.443 1.262 8.2 3.557 11.476 2.738 3.907 7.579 5.322 12.49 4.825m19.283-4.551c2.284-3.365 3.061-7.321 3.69-11.757l-16.098.018.025 16.413c4.642.461 9.736-.773 12.383-4.674m7.789 25.079c-11.898-11.129-35.633-11.202-47.63-.224 14.252 9.042 32.614 9.581 47.63.224"/><path fill="#070706" d="M149.541 151.089c-5.185-.814-1.621-12.561-11.095-12.747-9.541-.187-6.166 10.579-10.11 12.582-1.601.813-4.558-.15-4.917-2.405-1.24-7.795 4.217-16.38 12.586-17.733 10.388-1.678 19.157 7.964 17.561 17.726-.317 1.941-2.723 2.782-4.025 2.577"/><path fill="#060606" d="M237.467 151.004c-4.358-1.226-1.414-12.982-11.009-12.677-9.538.304-5.902 10.63-10.141 12.483-1.349.59-3.975.079-4.544-1.69-1.548-4.817.682-9.964 3.652-13.289 3.432-3.841 8-6.092 13.676-5.072 8.285 1.487 13.996 9.792 12.62 17.872-.328 1.927-3.081 2.703-4.254 2.373"/><path fill="#d78520" d="m143.973 270.149 2.825-2.223c22.146 9.217 46.432 10.304 68.441 1.368 1.449-.588 2.561-.778 3.229-2.482 12.629 13.893 18.333 33.781 15.382 53.133-5.286 34.674-45.027 44.607-75.046 33.341-14.579-5.471-24.31-17.98-26.616-33.414-2.662-17.814 1.961-35.397 11.785-49.723"/><path fill="#bb5700" d="M156.636 258.452c17.796 2.929 35.639 2.631 53.59-.047l8.242 8.407c-.668 1.704-1.78 1.894-3.229 2.482-22.009 8.936-46.295 7.849-68.441-1.368l-2.825 2.223c3.164-4.613 7.561-8.943 12.663-11.697"/><path fill="#d32017" d="M206.284 226.623c-15.016 9.357-33.378 8.818-47.63-.224 11.997-10.978 35.732-10.905 47.63.224"/><path fill="#f8f8f7" d="M198.495 201.544c-2.647 3.901-7.741 5.135-12.383 4.674l-.025-16.413 16.098-.018c-.629 4.436-1.406 8.392-3.69 11.757"/><path fill="#f8f7f5" d="M179.212 206.095c-4.911.497-9.752-.918-12.49-4.825-2.295-3.276-2.963-7.033-3.557-11.476l16.058-.111z"/></svg>