<svg xmlns="http://www.w3.org/2000/svg" viewBox="20.6 20.2 308.8 387.2" width="309" height="387"><path fill="#060504" d="M232.797 385.252c-3.128 12.088-12.198 19.427-24.219 20.346-11.558.884-23.339 1.123-34.766-.113-12.015-1.299-19.783-9.491-21.245-21.184l-1.087-8.7-6.967-.088c-1.003 14.089-5.1 26.836-18.949 29.169-13.475 2.27-27.66 2.121-41.458.426-23.073-2.835-24.763-30.7-25.421-52.794-18.622-.063-34.777-8.443-36.082-27.073-1.848-26.369 23.165-64.813 44.035-84.067-11.033-6.182-20.194-12.8-27.85-21.958-18.626-22.279-22.717-53.211-9.402-79.179.858-17.129 5.443-32.909 14.203-48.11-16.934-8.89-23.815-27.295-17.736-45.025C30.778 32.537 43.48 22.546 57.795 21.34c15.32-1.29 29.336 6.537 36.843 20.157 34.164-16.073 72.761-16.04 106.297.193 7.905-14.196 22.306-22.198 37.661-20.187 18.18 2.38 31.911 17.13 32.877 35.413.938 14.729-6.078 27.74-19.264 34.872 8.391 15.715 12.753 31.83 13.648 49.132 4.566 6.796 6.528 13.941 7.61 21.883 3.659 33.785-13.955 61.212-44.382 78.411 15.746 15.021 28.015 31.515 37.098 50.661 7.777 16.394 11.769 33.905.622 49.723 19.641-7.09 28.681-29.285 22.165-48.567-2.697-7.979-2.451-16.491 3.387-22.748 4.054-4.345 10.442-6.274 16.444-4.881 15.166 3.522 20.572 23.576 19.477 39.666-3.171 46.576-47.545 82.748-93.239 71.523zM56.167 78.936c.41.373 1.248.984 2.054 1.088l-8.4 14.785c-3.994 7.027-7.212 14.044-9.116 22.086 8.705 3.816 23.898 12.69 23.43 16.61-.228 1.911-2.06 2.885-4.25 3.087l-23.537 2.171c.304 5.022-4.69 9.458-5.138 15.804l23.92 3.687c4.16 6.965-8.504 9.2-19.117 17.732l-6.121 3.084c-2.036 1.026.733 5.052.96 7.027.777 6.731 3.938 13.742 7.836 20.079 12.257 19.923 34.942 32.932 57.042 39.182 31.797 8.993 65.318 9.755 97.453 1.903 31.676-7.74 64.163-27.993 71.416-59.858.464-2.036 1.589-4.93 1.256-7.404-.425-3.152-4.848-3.252-6.607-4.36l-16.996-10.707c-2.778-1.75-3.46-4.385-2.365-6.587l24.31-3.479c-.711-4.532-2.701-8.206-4.806-12.236l-.913-4.032c-10.759-1.186-26.835-.464-27.003-5.211-.153-4.293 15.007-12.647 23.098-16.967-3.494-12.759-9.75-23.073-16.175-33.71-.849-1.406 1.038-2.717 1.922-3.026 1.13-.394 2.793-.388 3.869 1.182l3.563 5.199c15.68-7.797 20.404-25.003 13.806-39.707-3.942-8.786-13.23-16.708-24.585-17.687-12.513-1.079-23.844 5.518-29.903 16.508l9.678 7.99c.541.447.348 1.736 1.514 2.624 7.051 5.37 19.718 17.213 19.634 20.562-.021.852-.376 1.039-.945 1.588-1.541.345-1.912-.745-2.788-1.95-6.933-9.522-12.455-12.738-13.768-14.433-1.273-1.643-3.689-2.381-3.527-5.938l-2.331 2.285c-9.677-5.843-19.235-11.83-30.484-15.268-2.952 12.958-9.442 40.403-16.531 39.496-5.862-.75-7.452-30.605-7.469-44.775-8.1-.948-16.603-1.157-25.036.26.248 13.924-1.28 43.795-7.518 44.471-6.812.739-13.839-27.215-16.544-39.287-11.59 3.242-21.009 9.323-30.584 15.772-3.592 2.418-5.947 6.361-10.296 7.45 1.457-1.22-.591-3.414-.577-4.687 2.132-2.967 6.2-6.743 8.812-8.894 3.15-2.593 6.205-4.954 9.902-7.278-4.854-9.674-14.437-15.632-23.901-16.57C53.316 27.51 43.38 32.11 37.002 40.89c-11.116 15.305-6.727 35.766 10.086 44.903l5.488-6.207c1.057-1.195 2.33-1.044 3.59-.65m11.7 211.391c.729.154 1.258-.154 1.87-1.231-.447 3.234.764 5.992 3.226 7.984-.064 1.012-.19 2.359.11 3.673 8.435 5.919 19.769 11.425 15.125 15.775-2.057 1.927-12.225 2.03-19.315.458-1.029 5.79-2.187 11.086-1.978 16.701l18.77 6.634c1.17.413 2.044 2.293 1.994 3.172-.23 4.017-12.129 5.9-21.29 7.283-.228 17.76.916 45.317 18.768 46.969 12.899 1.195 25.823 1.515 38.45-.027 5.937-.725 10.639-4.958 11.711-10.379l2.466-12.473-11.479-3.139c-1.812-.495-2.905-2.084-3.124-3.351-.318-1.833.937-3.184 1.883-3.865 2.826-2.035 17.949 8.753 41.807.19 2.369-.85 4.015-.128 4.905 1.112 1.45 2.022.449 4.439-1.585 5.438-3.69 1.813-7.466 2.281-11.871 3.403 1.312 13.571 3.512 22.586 17.682 23.54 10.847.731 21.208.516 31.987.024 8.968-.409 15.316-6.09 17.822-14.553 3.054-10.314 4.105-21.081 4.145-31.596.024-6.389.177-12.777-.764-19.034l-2.311-15.367c-9.789.813-21.17 1.669-20.69-3.196.08-.811.454-2.009 1.528-2.779l15.864-11.369-2.535-8.357 1.916-1.08c1.653.346 3.511.569 4.55-1.266 6.445 17.286 8.928 35.783 10.013 55.04 9.816.719 21.152-2.519 26.194-11.838 5.198-9.611 2.338-21.267-1.407-30.711-7.839 2.992-19.139 5.135-20.952 1.99-2.246-3.896 7.036-11.274 13.512-17.943-2.522-4.776-4.895-9.459-8.628-13.855-6.783 3.324-14.343 7.643-16.787 5.773-2.989-2.287 1.968-13.033 6.063-19.904-4.763-5.065-8.461-9.31-13.307-13.346-21.873 10.503-44.917 14.756-68.435 16.422-4.033-.747-8.988-1.095-13.388-.121-.681-1.154-1.506-.975-2.429-.823-22.401-1.362-44.043-5.35-64.645-15.128-4.855 2.922-8.269 7.874-12.514 12.721l6.168 14.23c.91 2.099.746 6.348-2.397 6.339-5.346-.016-10.28-3.76-15.185-5.728-3.408 4.608-5.641 8.91-8.218 13.831l14.046 14.437c1.25 1.284-.703 3.613-1.589 4.189-2.64 1.716-12.336-.866-19.825-2.701-4.826 13.914-7.093 28.809 4.567 37.171 5.797 4.156 13.048 5.438 20.048 4.95.237-18.943 2.747-37.342 9.459-54.289m252.77 22.287c1.464-8.494 1.532-15.658-.16-22.983l-23.913 5.938c.902 5.295 1.517 9.448 1.416 14.772 7.495 1.516 14.864 2.677 22.657 2.273m-20.225 37.821c5.505-5.463 10.042-11.321 13.674-18.468-6.631-3.249-12.579-6.261-18.821-10.134-1.939 5.11-4.474 8.92-7.645 13.214 4.776 4.871 8.889 9.127 12.792 15.388m-12.602 10.491c-2.392-5.889-5.759-11.542-9.402-17.347-4.292 3.085-7.798 4.802-12.886 6.651 1.869 5.818 3.385 11.389 4.537 18.266 6.386-1.127 11.51-4.047 17.751-7.57m-32.014 10.636c-1.184-6.754-1.743-12.24-1.861-18.949l-16.658.001c.107 6.162.119 10.844-.916 16.909 6.454 1.72 12.551 2.582 19.435 2.039"/><path fill="#d45700" d="M239.887 158.345c-21.4-12.474-47.139-15.041-71.113-8.404-2.988-10.206-39.39-10.047-41.827-.216-24.569-6.232-50.257-4.222-71.817 8.529l-23.92-3.687c.448-6.346 5.442-10.782 5.138-15.804l23.537-2.171c2.19-.202 4.022-1.176 4.25-3.087.468-3.92-14.725-12.794-23.43-16.61 1.904-8.042 5.122-15.059 9.115-22.086l8.401-14.785c3.008-2.241 5.387-5.382 7.653-8.922 2.625-1.082 2.839-3.692 4.201-5.077 4.35-1.088 6.704-5.03 10.296-7.45 9.575-6.448 18.994-12.53 30.584-15.77 2.705 12.071 9.732 40.025 16.544 39.286 6.238-.676 7.766-30.547 7.518-44.472 8.433-1.416 16.936-1.207 25.036-.259.017 14.17 1.607 44.024 7.469 44.775 7.089.907 13.579-26.538 16.531-39.497 11.249 3.44 20.807 9.426 30.484 15.27l2.331-2.286c-.162 3.557 2.254 4.295 3.527 5.938 1.313 1.695 6.835 4.911 13.768 14.434.876 1.204 1.247 2.294 2.788 1.95 7.45-1.669 12.197-8.385 12.979-15.627.841-7.794-3.208-15.525-11.003-18.193-8.805-3.013-17.5 1.805-22.179 9.045l-9.678-7.99c6.059-10.99 17.39-17.587 29.903-16.508 11.355.979 20.643 8.901 24.585 17.687 6.598 14.704 1.874 31.91-13.806 39.707l-3.563-5.2c-1.076-1.57-2.739-1.575-3.869-1.18-.884.308-2.771 1.62-1.922 3.024 6.425 10.638 12.681 20.952 16.175 33.711-8.091 4.32-23.251 12.674-23.098 16.967.168 4.747 16.244 4.025 27.003 5.211l.913 4.032c2.105 4.03 4.095 7.704 4.806 12.236zM92.128 104.352l5.293-7.114c.916-1.231-.58-4.215-2.387-3.983-4.042.52-6.278 4.81-5.966 8.288 1.474.534 1.734.8 3.06 2.809m16.958-1.926c3.406-4.316-3.311-10.139-5.51-9.357-.577.205-1.354 2.182-.787 3.115 1.46 2.402 4.023 3.958 6.297 6.242m4.405 36.365c2.335-.04 3.947-2.154 3.773-4.783-.662-10.058-9.012-18.336-19.234-16.192-7.779 1.632-11.945 8.821-12.715 16.29-.264 2.568 1.905 4.85 4.06 4.623 2.312-.243 3.406-2.241 3.448-4.716.083-4.847 4.154-8.787 8.457-8.636 10.94.386 6.325 13.517 12.211 13.414m92.059-.111c1.121.332 3.75-.17 4.159-2.13 1.599-7.659-3.408-15.556-10.993-18.247-5.045-1.79-10.292-.516-14.576 3.034-3.223 2.671-5.698 7.372-6.05 12.673-.191 2.881 1.61 5.133 4.244 4.739 2.081-.312 3.456-2.12 3.376-4.783-.146-4.84 4.095-8.63 8.577-8.591 9.214.08 6.886 12.007 11.263 13.305"/><path fill="#d45600" d="M140.382 261.128c-29.879 6.617-45.763 40.123-38.054 68.563 7.068 26.079 39.758 33.993 65.348 25.965 13.497-4.235 23.71-14.552 26.506-28.7 5.805-29.375-11.066-60.27-40.412-65.707 23.518-1.666 46.562-5.919 68.435-16.422 4.846 4.036 8.544 8.281 13.307 13.346-4.095 6.871-9.052 17.617-6.063 19.904 2.444 1.87 10.004-2.449 16.787-5.773 3.733 4.396 6.106 9.079 8.628 13.855-6.476 6.669-15.758 14.047-13.512 17.943 1.813 3.145 13.113 1.002 20.952-1.99 3.745 9.444 6.605 21.1 1.407 30.711-5.042 9.319-16.378 12.557-26.194 11.838-1.085-19.257-3.568-37.754-10.013-55.04l-6.254-16.773c-.743-1.993-3.05-2.297-4.612-1.603-1.014.45-2.226 1.982-1.596 3.765l5.996 16.957 2.535 8.357-15.864 11.369c-1.074.77-1.448 1.968-1.528 2.779-.48 4.865 10.901 4.009 20.69 3.196l2.311 15.367-5.094 2.02-14.015 5.93c-1.383.586-1.805 2.486-1.689 3.327.563 4.105 8.764 4.384 14.456 6.187 2.269.719 4.288 3.524 7.106 1.57-.04 10.515-1.091 21.282-4.145 31.596-2.506 8.463-8.854 14.144-17.822 14.553-10.779.492-21.14.707-31.987-.024-14.17-.954-16.37-9.969-17.682-23.54 4.405-1.122 8.181-1.59 11.871-3.403 2.034-.999 3.035-3.416 1.585-5.438-.89-1.24-2.536-1.962-4.905-1.112-23.858 8.563-38.981-2.225-41.807-.19-.946.681-2.201 2.032-1.883 3.865.219 1.267 1.312 2.856 3.124 3.351l11.479 3.139-2.466 12.473c-1.072 5.421-5.774 9.654-11.711 10.379-12.627 1.542-25.551 1.222-38.45.027-17.852-1.652-18.996-29.209-18.769-46.969 9.162-1.383 21.061-3.266 21.29-7.283.051-.879-.824-2.759-1.993-3.172l-18.77-6.634c-.209-5.615.95-10.911 1.978-16.701 7.09 1.572 17.258 1.469 19.315-.458 4.644-4.35-6.69-9.856-15.125-15.775-.3-1.314-.174-2.661-.11-3.673.66-1.442.687-3.222 1.312-4.957l5.798-16.117c.647-1.798-.225-3.241-1.65-3.952-1.241-.618-3.462.362-4.197 2.218l-6.358 16.055c-6.712 16.947-9.222 35.346-9.459 54.289-7 .488-14.251-.794-20.048-4.95-11.66-8.362-9.393-23.257-4.567-37.171 7.489 1.835 17.185 4.417 19.825 2.701.886-.576 2.838-2.905 1.589-4.189L41.162 286.57c2.577-4.921 4.81-9.223 8.218-13.831 4.905 1.968 9.838 5.712 15.185 5.728 3.143.009 3.307-4.24 2.397-6.339l-6.168-14.23c4.245-4.847 7.66-9.799 12.514-12.721 20.602 9.778 42.244 13.766 64.645 15.128.923-.152 1.748-.331 2.429.823"/><path fill="#fdfdfd" d="M126.947 149.725c-1.761 7.104 8.402 16.651 16.788 20.335l.007 8.669-53.715.258c-8.71.041-.12 52.295 48.088 61.238 17.812 3.304 35.002-2.666 48.961-14.361 12.177-10.201 19.293-25.144 21.23-40.719.258-2.073-.282-3.624-1.116-4.72-1.155-1.518-2.918-1.628-5.207-1.624l-50.741.096.055-8.844c8.469-3.418 19.245-14.071 17.477-20.112 23.974-6.637 49.713-4.07 71.113 8.404-1.095 2.202-.413 4.837 2.365 6.587l16.996 10.707c1.707 4.032 4.037 7.604 5.351 11.764-7.253 31.865-39.74 52.118-71.416 59.858-32.135 7.852-65.656 7.09-97.453-1.903-22.1-6.25-44.785-19.259-57.042-39.182-3.898-6.337-7.059-13.348-7.836-20.079 1.986-3.188 4.263-6.498 5.16-10.111 10.614-8.532 23.278-10.767 19.118-17.732 21.56-12.751 47.248-14.761 71.817-8.529"/><path fill="#fdfcfa" d="M153.77 261.249c29.346 5.437 46.217 36.332 40.412 65.707-2.796 14.148-13.009 24.465-26.506 28.7-25.59 8.028-58.28.114-65.348-25.965-7.71-28.44 8.175-61.946 38.054-68.563 4.4-.974 9.355-.626 13.388.121"/><path fill="#d45700" d="M78.31 52.445c-5.427-8.18-16.188-12.063-24.841-7.002-5.6 3.274-8.218 9.173-8.056 15.02.164 5.916 2.693 11.553 8.081 15.183 1.435.966 2.66 1.546 2.672 3.29-1.26-.394-2.533-.545-3.59.65l-5.488 6.207C30.275 76.656 25.886 56.195 37.002 40.89c6.378-8.781 16.314-13.38 27.309-12.292 9.464.937 19.047 6.895 23.901 16.57-3.697 2.323-6.752 4.684-9.902 7.277"/><path fill="#fbf7f2" d="M78.31 52.445c-2.613 2.151-6.68 5.927-8.812 8.894-.014 1.273 2.034 3.467.577 4.686-1.362 1.385-1.576 3.995-4.201 5.077-2.266 3.54-4.645 6.68-7.653 8.922-.806-.104-1.644-.715-2.055-1.088-.011-1.744-1.237-2.324-2.672-3.29-5.388-3.63-7.917-9.267-8.081-15.184-.162-5.846 2.457-11.745 8.056-15.02 8.653-5.06 19.414-1.177 24.84 7.003"/><path fill="#d45900" d="M320.637 312.614c-7.793.404-15.162-.757-22.657-2.273.101-5.324-.514-9.477-1.416-14.772l23.913-5.938c1.692 7.325 1.624 14.489.16 22.983"/><path fill="#d45900" d="M300.412 350.435c-3.903-6.261-8.016-10.517-12.792-15.388 3.171-4.294 5.706-8.104 7.645-13.214 6.242 3.873 12.19 6.885 18.821 10.134-3.632 7.147-8.169 13.005-13.674 18.468"/><path fill="#d45800" d="M287.81 360.926c-6.241 3.523-11.365 6.443-17.751 7.57-1.152-6.877-2.668-12.448-4.537-18.266 5.088-1.849 8.594-3.566 12.886-6.651 3.643 5.805 7.01 11.458 9.402 17.347"/><path fill="#d35800" d="M255.796 371.562c-6.884.543-12.981-.319-19.435-2.039 1.035-6.065 1.023-10.747.916-16.909l16.658-.001c.118 6.709.677 12.195 1.861 18.949"/><path fill="#201a13" d="M227.504 289.621c-1.039 1.835-2.897 1.612-4.55 1.266l-1.916 1.08-5.996-16.957c-.63-1.783.582-3.315 1.596-3.765 1.562-.694 3.869-.39 4.612 1.603z"/><path fill="#d19569" d="M229.946 352.069c-2.818 1.954-4.837-.851-7.106-1.57l1.248-15.444 5.094-2.02c.941 6.257.788 12.645.764 19.034"/><path fill="#c84d00" d="M264.599 187.403c-1.314-4.16-3.644-7.732-5.351-11.764 1.759 1.108 6.182 1.208 6.607 4.36.333 2.474-.792 5.368-1.256 7.404"/><path fill="#d15300" d="M30.853 186.097c-.228-1.975-2.997-6.001-.961-7.027l6.12-3.084c-.897 3.613-3.174 6.923-5.16 10.111"/><path fill="#502000" d="M72.963 297.08c-2.462-1.992-3.673-4.75-3.226-7.984-.612 1.077-1.141 1.385-1.87 1.231l6.359-16.055c.735-1.856 2.956-2.836 4.196-2.218 1.426.711 2.298 2.154 1.651 3.952l-5.798 16.117c-.625 1.735-.651 3.515-1.312 4.957"/><path fill="#fcf8f2" d="M236.951 77.943c.569-.55.924-.736.945-1.588.084-3.349-12.583-15.191-19.634-20.562-1.166-.888-.973-2.177-1.514-2.624 4.679-7.24 13.374-12.058 22.179-9.045 7.795 2.668 11.844 10.399 11.003 18.193-.782 7.242-5.529 13.958-12.979 15.626"/><path fill="#040404" d="M168.774 149.941c1.768 6.041-9.008 16.694-17.477 20.112l-.055 8.844 50.741-.096c2.289-.004 4.052.106 5.207 1.624.834 1.096 1.374 2.647 1.116 4.72-1.937 15.575-9.053 30.518-21.23 40.719-13.959 11.695-31.149 17.665-48.961 14.361-48.209-8.943-56.798-61.197-48.088-61.238l53.715-.258-.007-8.669c-8.386-3.684-18.549-13.231-16.788-20.335 2.437-9.831 38.839-9.99 41.827.216m-24.967 54.045-.139-17.531-17.315.046c.381 4.206 1.045 8.32 3.327 11.772 3.117 4.716 8.836 6.425 14.127 5.713m23.695-12.029.896-5.473-17.321.162-.049 17.276c8.3 1.345 15.067-3.365 16.474-11.965m6.218 34.358c-13.838-12.261-39.241-12.495-52.646-.17 16.286 10.626 36.429 10.431 52.646.17"/><path fill="#060402" d="M205.55 138.68c-4.377-1.298-2.049-13.225-11.263-13.305-4.482-.039-8.723 3.751-8.577 8.591.08 2.663-1.295 4.471-3.376 4.783-2.634.394-4.435-1.858-4.244-4.739.352-5.301 2.827-10.002 6.05-12.673 4.284-3.55 9.531-4.824 14.576-3.034 7.585 2.691 12.592 10.588 10.993 18.247-.409 1.96-3.038 2.462-4.159 2.13M113.491 138.791c-5.886.103-1.271-13.028-12.211-13.414-4.303-.151-8.374 3.789-8.457 8.636-.042 2.475-1.136 4.473-3.448 4.716-2.155.227-4.324-2.055-4.06-4.623.77-7.469 4.936-14.658 12.715-16.29 10.222-2.144 18.572 6.134 19.234 16.192.174 2.629-1.438 4.743-3.773 4.783"/><path fill="#070401" d="M92.128 104.352c-1.326-2.009-1.586-2.275-3.06-2.809-.312-3.478 1.924-7.769 5.966-8.288 1.807-.231 3.303 2.752 2.387 3.984z"/><path fill="#110905" d="M109.086 102.426c-2.274-2.284-4.837-3.84-6.297-6.242-.567-.933.21-2.91.787-3.115 2.199-.782 8.916 5.041 5.51 9.357"/><path fill="#080604" d="M222.84 350.499c-5.692-1.803-13.893-2.082-14.456-6.187-.116-.841.306-2.741 1.689-3.327l14.015-5.93z"/><path fill="#d51d1a" d="M173.72 226.315c-16.217 10.261-36.36 10.456-52.646-.17 13.405-12.325 38.808-12.091 52.646.17"/><path fill="#f8f9f8" d="M143.807 203.986c-5.291.712-11.01-.997-14.127-5.713-2.282-3.452-2.946-7.566-3.327-11.772l17.315-.046z"/><path fill="#f9f9f9" d="M167.502 191.957c-1.407 8.6-8.174 13.31-16.474 11.965l.049-17.276 17.321-.162z"/></svg>